<svg width="38" height="275" fill="none" xmlns="http://www.w3.org/2000/svg"><path d="M37.5 19.8c0 10.442-8.283 18.906-18.5 18.906S.5 30.242.5 19.8C.5 9.36 8.783.895 19 .895S37.5 9.359 37.5 19.8ZM37.5 254.989c0 10.441-8.283 18.906-18.5 18.906S.5 265.43.5 254.989c0-10.442 8.283-18.906 18.5-18.906s18.5 8.464 18.5 18.906Z" fill="#fff"/><path d="M19 19.8V254.99M37.5 19.8c0 10.442-8.283 18.906-18.5 18.906S.5 30.242.5 19.8C.5 9.36 8.783.895 19 .895S37.5 9.359 37.5 19.8Zm0 235.189c0 10.441-8.283 18.906-18.5 18.906S.5 265.43.5 254.989c0-10.442 8.283-18.906 18.5-18.906s18.5 8.464 18.5 18.906Z" stroke="#fff"/></svg>