<svg width="35" height="28" viewBox="0 0 35 28" fill="none" xmlns="http://www.w3.org/2000/svg">
<path d="M0.549327 21.8556V0.544444H34.4507V21.8556H28.8004V22.4H34.6076C34.8243 22.4 35 22.2259 35 22.0111V0.388889C35 0.174112 34.8243 0 34.6076 0H0.392377C0.175673 0 0 0.174111 0 0.388889V22.0111C0 22.2259 0.175672 22.4 0.392376 22.4H19.0695V21.8556H0.549327Z" fill="white"/>
<path d="M2.51121 3.03333C2.51121 2.81856 2.68688 2.64444 2.90359 2.64444H32.0179C32.2346 2.64444 32.4103 2.81856 32.4103 3.03333C32.4103 3.24811 32.2346 3.42222 32.0179 3.42222H2.90359C2.68688 3.42222 2.51121 3.24811 2.51121 3.03333Z" fill="white"/>
<path d="M2.51121 10.0333C2.51121 9.81856 2.68688 9.64444 2.90359 9.64444H32.0179C32.2346 9.64444 32.4103 9.81856 32.4103 10.0333C32.4103 10.2481 32.2346 10.4222 32.0179 10.4222H2.90359C2.68688 10.4222 2.51121 10.2481 2.51121 10.0333Z" fill="white"/>
<path d="M2.51121 5.36667C2.51121 5.15189 2.68688 4.97778 2.90359 4.97778H32.0179C32.2346 4.97778 32.4103 5.15189 32.4103 5.36667C32.4103 5.58144 32.2346 5.75556 32.0179 5.75556H2.90359C2.68688 5.75556 2.51121 5.58144 2.51121 5.36667Z" fill="white"/>
<path d="M2.51121 12.3667C2.51121 12.1519 2.68688 11.9778 2.90359 11.9778H32.0179C32.2346 11.9778 32.4103 12.1519 32.4103 12.3667C32.4103 12.5814 32.2346 12.7556 32.0179 12.7556H2.90359C2.68688 12.7556 2.51121 12.5814 2.51121 12.3667Z" fill="white"/>
<path d="M2.51121 17.0333C2.51121 16.8186 2.68688 16.6444 2.90359 16.6444H18.3632C18.5799 16.6444 18.7556 16.8186 18.7556 17.0333C18.7556 17.2481 18.5799 17.4222 18.3632 17.4222H2.90359C2.68688 17.4222 2.51121 17.2481 2.51121 17.0333Z" fill="white"/>
<path d="M28.722 17.0333C28.722 16.8186 28.8976 16.6444 29.1143 16.6444H32.0179C32.2346 16.6444 32.4103 16.8186 32.4103 17.0333C32.4103 17.2481 32.2346 17.4222 32.0179 17.4222H29.1143C28.8976 17.4222 28.722 17.2481 28.722 17.0333Z" fill="white"/>
<path d="M2.51121 7.7C2.51121 7.48522 2.68688 7.31111 2.90359 7.31111H32.0179C32.2346 7.31111 32.4103 7.48522 32.4103 7.7C32.4103 7.91478 32.2346 8.08889 32.0179 8.08889H2.90359C2.68688 8.08889 2.51121 7.91478 2.51121 7.7Z" fill="white"/>
<path d="M2.51121 14.7C2.51121 14.4852 2.68688 14.3111 2.90359 14.3111H19.3834C19.6001 14.3111 19.7758 14.4852 19.7758 14.7C19.7758 14.9148 19.6001 15.0889 19.3834 15.0889H2.90359C2.68688 15.0889 2.51121 14.9148 2.51121 14.7Z" fill="white"/>
<path d="M27.9372 14.7C27.9372 14.4852 28.1129 14.3111 28.3296 14.3111H32.0179C32.2346 14.3111 32.4103 14.4852 32.4103 14.7C32.4103 14.9148 32.2346 15.0889 32.0179 15.0889H28.3296C28.1129 15.0889 27.9372 14.9148 27.9372 14.7Z" fill="white"/>
<path d="M2.51121 19.3667C2.51121 19.1519 2.68688 18.9778 2.90359 18.9778H18.7556C18.9723 18.9778 19.148 19.1519 19.148 19.3667C19.148 19.5814 18.9723 19.7556 18.7556 19.7556H2.90359C2.68688 19.7556 2.51121 19.5814 2.51121 19.3667Z" fill="white"/>
<path d="M25.6614 17.5389C25.6614 18.4624 24.906 19.2111 23.9742 19.2111C23.0424 19.2111 22.287 18.4624 22.287 17.5389C22.287 16.6153 23.0424 15.8667 23.9742 15.8667C24.906 15.8667 25.6614 16.6153 25.6614 17.5389Z" fill="white"/>
<path fill-rule="evenodd" clip-rule="evenodd" d="M23.9742 21.3111C26.0762 21.3111 27.7803 19.6222 27.7803 17.5389C27.7803 15.4555 26.0762 13.7667 23.9742 13.7667C21.8722 13.7667 20.1682 15.4555 20.1682 17.5389C20.1682 19.6222 21.8722 21.3111 23.9742 21.3111ZM23.9742 20.2222C25.4695 20.2222 26.6816 19.0209 26.6816 17.5389C26.6816 16.0569 25.4695 14.8556 23.9742 14.8556C22.479 14.8556 21.2668 16.0569 21.2668 17.5389C21.2668 19.0209 22.479 20.2222 23.9742 20.2222Z" fill="white"/>
<path d="M21.5022 28V20.4167H26.3677V28L23.935 26.2111L21.5022 28Z" fill="white"/>
<path d="M28.4865 22.1278C28.4865 21.9774 28.6095 21.8556 28.7612 21.8556H34.4899C34.6416 21.8556 34.7646 21.9774 34.7646 22.1278C34.7646 22.2781 34.6416 22.4 34.4899 22.4H28.7612C28.6095 22.4 28.4865 22.2781 28.4865 22.1278Z" fill="white"/>
<path d="M0.235426 22.1278C0.235426 21.9774 0.358397 21.8556 0.51009 21.8556H19.1087C19.2604 21.8556 19.3834 21.9774 19.3834 22.1278C19.3834 22.2781 19.2604 22.4 19.1087 22.4H0.51009C0.358397 22.4 0.235426 22.2781 0.235426 22.1278Z" fill="white"/>
</svg>
