<svg width="35" height="24" viewBox="0 0 35 24" fill="none" xmlns="http://www.w3.org/2000/svg">
<rect x="2.58984" y="14.0332" width="17.0494" height="0.784754" rx="0.392377" fill="white"/>
<rect x="2.58984" y="16.0625" width="6.75966" height="0.784754" rx="0.392377" fill="white"/>
<rect x="2.58984" y="18.0898" width="13.5193" height="0.784754" rx="0.392377" fill="white"/>
<rect x="2.58984" y="20.1172" width="23.9592" height="0.784752" rx="0.392376" fill="white"/>
<rect x="20.7656" y="14.0332" width="11.5665" height="0.784754" rx="0.392377" fill="white"/>
<rect x="10.4766" y="16.0625" width="21.8562" height="0.784754" rx="0.392377" fill="white"/>
<rect x="17.2354" y="18.0898" width="15.0966" height="0.784754" rx="0.392377" fill="white"/>
<rect x="27.6758" y="20.1172" width="4.65665" height="0.784752" rx="0.392376" fill="white"/>
<rect x="14.9824" y="3.25" width="4.65665" height="0.784753" rx="0.392377" fill="white"/>
<rect x="14.9824" y="5.27734" width="11.4914" height="0.784753" rx="0.392377" fill="white"/>
<rect x="14.9824" y="7.30664" width="3.45494" height="0.784753" rx="0.392377" fill="white"/>
<rect x="14.9824" y="9.33398" width="8.11159" height="0.784754" rx="0.392377" fill="white"/>
<rect x="20.7656" y="3.25" width="11.5665" height="0.784753" rx="0.392377" fill="white"/>
<rect x="27.6006" y="5.27734" width="4.73176" height="0.784753" rx="0.392377" fill="white"/>
<rect x="19.5645" y="7.30664" width="12.7682" height="0.784753" rx="0.392377" fill="white"/>
<rect x="24.2207" y="9.33398" width="8.11159" height="0.784754" rx="0.392377" fill="white"/>
<rect x="22.1924" y="11.3613" width="10.1395" height="0.784753" rx="0.392376" fill="white"/>
<rect x="15.0576" y="11.3613" width="6.00858" height="0.784753" rx="0.392376" fill="white"/>
<path fill-rule="evenodd" clip-rule="evenodd" d="M33.4305 0.582531H1.56951C1.00608 0.582531 0.549327 1.03928 0.549327 1.60271V22.3987C0.549327 22.9621 1.00608 23.4189 1.56951 23.4189H33.4305C33.9939 23.4189 34.4507 22.9621 34.4507 22.3987V1.60271C34.4507 1.03928 33.9939 0.582531 33.4305 0.582531ZM1.56951 0.0332031C0.702692 0.0332031 0 0.735895 0 1.60271V22.3987C0 23.2655 0.702693 23.9682 1.56951 23.9682H33.4305C34.2973 23.9682 35 23.2655 35 22.3987V1.60271C35 0.735895 34.2973 0.0332031 33.4305 0.0332031H1.56951Z" fill="white"/>
<path d="M12.3996 7.71706C12.3996 10.1658 10.4321 12.1509 8.00497 12.1509C5.57789 12.1509 3.61035 10.1658 3.61035 7.71706C3.61035 5.26831 5.57789 3.2832 8.00497 3.2832C10.4321 3.2832 12.3996 5.26831 12.3996 7.71706Z" fill="white"/>
<path d="M4.31606 10.1278V9.95003C4.89345 7.58757 10.6674 7.03726 11.726 9.95003V10.0772C10.9507 11.3188 9.58175 12.1452 8.02112 12.1509L7.83377 12.1476C6.35892 12.0906 5.07035 11.3003 4.31606 10.1278Z" fill="#383E59"/>
<path d="M10.3605 6.51105C10.3605 7.94112 9.30589 9.10042 8.00497 9.10042C6.70405 9.10042 5.64945 7.94112 5.64945 6.51105C5.64945 5.08098 6.70405 3.92168 8.00497 3.92168C9.30589 3.92168 10.3605 5.08098 10.3605 6.51105Z" fill="#FAA668"/>
</svg>
