<svg width="351" height="234" viewBox="0 0 351 234" fill="none" xmlns="http://www.w3.org/2000/svg">
<path d="M15.1903 4.88612V6.28762H10.9032V5.17714L12.8366 3.38505C13.0047 3.22678 13.1168 3.09148 13.1729 2.97915C13.2289 2.86683 13.2569 2.75706 13.2569 2.64984C13.2569 2.51709 13.2111 2.41498 13.1194 2.3435C13.0328 2.26691 12.9054 2.22862 12.7373 2.22862C12.5742 2.22862 12.4214 2.27202 12.2787 2.35881C12.1361 2.44561 12.0266 2.56815 11.9501 2.72642L10.5899 2.04482C10.7937 1.66189 11.0917 1.36066 11.484 1.14111C11.8763 0.916466 12.3501 0.804141 12.9054 0.804141C13.3282 0.804141 13.7027 0.873068 14.0287 1.01092C14.3548 1.14877 14.6095 1.34534 14.7929 1.60062C14.9763 1.85591 15.068 2.14948 15.068 2.48135C15.068 2.77748 15.0044 3.05574 14.877 3.31613C14.7547 3.57141 14.5127 3.86243 14.151 4.18919L13.3868 4.88612H15.1903Z" fill="white"/>
<path d="M18.6246 2.02184C19.1391 2.02184 19.5518 2.17756 19.8626 2.48901C20.1784 2.80045 20.3364 3.27017 20.3364 3.89817V6.28762H18.6093V4.19685C18.6093 3.71692 18.4386 3.47695 18.0973 3.47695C17.9037 3.47695 17.7458 3.54588 17.6235 3.68373C17.5063 3.81648 17.4477 4.02837 17.4477 4.31939V6.28762H15.7207V2.09843H17.3637V2.51198C17.5267 2.3486 17.7152 2.22607 17.9292 2.14438C18.1431 2.06269 18.375 2.02184 18.6246 2.02184Z" fill="white"/>
<path d="M25.7844 0.605021V6.28762H24.1414V5.94299C23.8918 6.2238 23.5097 6.3642 22.9951 6.3642C22.6283 6.3642 22.2895 6.27741 21.9787 6.10382C21.6731 5.92512 21.4285 5.66983 21.2451 5.33797C21.0668 5.0061 20.9776 4.62317 20.9776 4.18919C20.9776 3.75521 21.0668 3.37484 21.2451 3.04808C21.4285 2.71621 21.6731 2.46348 21.9787 2.28989C22.2895 2.11119 22.6283 2.02184 22.9951 2.02184C23.4587 2.02184 23.8128 2.14182 24.0573 2.38179V0.605021H25.7844ZM23.4078 5.01631C23.6065 5.01631 23.7695 4.94483 23.8969 4.80187C24.0242 4.65381 24.0879 4.44958 24.0879 4.18919C24.0879 3.9288 24.0242 3.72713 23.8969 3.58417C23.7695 3.44121 23.6065 3.36974 23.4078 3.36974C23.2091 3.36974 23.0461 3.44121 22.9187 3.58417C22.7913 3.72713 22.7276 3.9288 22.7276 4.18919C22.7276 4.44958 22.7913 4.65381 22.9187 4.80187C23.0461 4.94483 23.2091 5.01631 23.4078 5.01631Z" fill="white"/>
<path d="M31.4691 0.926677C31.9633 0.926677 32.3938 1.00837 32.7606 1.17175C33.1274 1.33513 33.4102 1.56999 33.6088 1.87633C33.8075 2.18267 33.9069 2.54007 33.9069 2.94852C33.9069 3.35697 33.8075 3.71437 33.6088 4.02071C33.4102 4.32705 33.1274 4.56191 32.7606 4.72529C32.3938 4.88867 31.9633 4.97036 31.4691 4.97036H30.6973V6.28762H28.8938V0.926677H31.4691ZM31.3545 3.57651C31.599 3.57651 31.7824 3.5229 31.9047 3.41569C32.027 3.30336 32.0881 3.14764 32.0881 2.94852C32.0881 2.7494 32.027 2.59623 31.9047 2.48901C31.7824 2.37668 31.599 2.32052 31.3545 2.32052H30.6973V3.57651H31.3545Z" fill="white"/>
<path d="M34.5195 0.605021H36.2466V6.28762H34.5195V0.605021Z" fill="white"/>
<path d="M38.8843 2.02184C39.618 2.02184 40.1784 2.18777 40.5656 2.51964C40.9527 2.8464 41.1463 3.35187 41.1463 4.03602V6.28762H39.5415V5.73621C39.3429 6.15487 38.948 6.3642 38.357 6.3642C38.0259 6.3642 37.7431 6.30804 37.5088 6.19572C37.2795 6.07829 37.1038 5.92256 36.9815 5.72855C36.8643 5.52943 36.8057 5.30733 36.8057 5.06226C36.8057 4.6487 36.9637 4.3347 37.2795 4.12027C37.5954 3.90583 38.0743 3.79861 38.7162 3.79861H39.4116C39.3556 3.47185 39.0932 3.30847 38.6245 3.30847C38.436 3.30847 38.245 3.3391 38.0514 3.40037C37.8578 3.45653 37.6922 3.53567 37.5546 3.63778L37.0044 2.49667C37.2439 2.3486 37.5317 2.23373 37.868 2.15204C38.2093 2.06524 38.5481 2.02184 38.8843 2.02184ZM38.8767 5.32265C38.999 5.32265 39.1085 5.28946 39.2053 5.22309C39.3021 5.15672 39.3734 5.05716 39.4193 4.92441V4.63339H38.9913C38.6398 4.63339 38.464 4.75082 38.464 4.98568C38.464 5.08268 38.4997 5.16437 38.571 5.23075C38.6474 5.29202 38.7493 5.32265 38.8767 5.32265Z" fill="white"/>
<path d="M44.2141 6.3642C43.7403 6.3642 43.3149 6.2723 42.9379 6.0885C42.566 5.90469 42.273 5.64686 42.0591 5.31499C41.8502 4.98312 41.7458 4.60786 41.7458 4.18919C41.7458 3.77053 41.8502 3.39782 42.0591 3.07105C42.273 2.73919 42.566 2.48135 42.9379 2.29755C43.3149 2.11374 43.7403 2.02184 44.2141 2.02184C44.7236 2.02184 45.1591 2.13161 45.5209 2.35116C45.8826 2.5707 46.1322 2.87449 46.2698 3.26252L44.9324 3.92115C44.7694 3.55354 44.5274 3.36974 44.2065 3.36974C44.0027 3.36974 43.832 3.44121 43.6944 3.58417C43.562 3.72713 43.4958 3.9288 43.4958 4.18919C43.4958 4.45469 43.562 4.65891 43.6944 4.80187C43.832 4.94483 44.0027 5.01631 44.2065 5.01631C44.5274 5.01631 44.7694 4.83251 44.9324 4.4649L46.2698 5.12353C46.1322 5.51156 45.8826 5.81535 45.5209 6.03489C45.1591 6.25443 44.7236 6.3642 44.2141 6.3642Z" fill="white"/>
<path d="M51.0792 4.18919C51.0792 4.21472 51.0716 4.35002 51.0563 4.59509H48.1524C48.2135 4.75337 48.3154 4.8759 48.458 4.9627C48.6007 5.04439 48.779 5.08524 48.993 5.08524C49.1764 5.08524 49.3292 5.06226 49.4515 5.01631C49.5789 4.97036 49.7164 4.89122 49.8642 4.7789L50.7659 5.69026C50.3583 6.13955 49.7495 6.3642 48.9395 6.3642C48.4351 6.3642 47.9919 6.2723 47.6098 6.0885C47.2277 5.89959 46.9322 5.6392 46.7233 5.30733C46.5145 4.97546 46.41 4.60275 46.41 4.18919C46.41 3.77053 46.5119 3.39782 46.7157 3.07105C46.9246 2.73919 47.2073 2.48135 47.5639 2.29755C47.9257 2.11374 48.3307 2.02184 48.779 2.02184C49.2019 2.02184 49.5865 2.10608 49.9329 2.27457C50.2845 2.44306 50.5621 2.69068 50.7659 3.01744C50.9748 3.34421 51.0792 3.73479 51.0792 4.18919ZM48.7943 3.20125C48.616 3.20125 48.4682 3.24975 48.3511 3.34676C48.2339 3.44377 48.1575 3.58162 48.1218 3.76032H49.4668C49.4311 3.58673 49.3547 3.45143 49.2375 3.35442C49.1203 3.2523 48.9726 3.20125 48.7943 3.20125Z" fill="white"/>
<path d="M56.1239 6.3642C55.6602 6.3642 55.2425 6.2723 54.8706 6.0885C54.5038 5.89959 54.2159 5.64175 54.007 5.31499C53.7982 4.98312 53.6937 4.60786 53.6937 4.18919C53.6937 3.77053 53.7982 3.39782 54.007 3.07105C54.2159 2.73919 54.5038 2.48135 54.8706 2.29755C55.2425 2.11374 55.6602 2.02184 56.1239 2.02184C56.5926 2.02184 57.0103 2.11374 57.3771 2.29755C57.749 2.48135 58.0369 2.73919 58.2407 3.07105C58.4495 3.39782 58.554 3.77053 58.554 4.18919C58.554 4.60786 58.4495 4.98312 58.2407 5.31499C58.0369 5.64175 57.749 5.89959 57.3771 6.0885C57.0103 6.2723 56.5926 6.3642 56.1239 6.3642ZM56.1239 5.01631C56.3225 5.01631 56.4856 4.94483 56.6129 4.80187C56.7403 4.65381 56.804 4.44958 56.804 4.18919C56.804 3.9288 56.7403 3.72713 56.6129 3.58417C56.4856 3.44121 56.3225 3.36974 56.1239 3.36974C55.9252 3.36974 55.7621 3.44121 55.6348 3.58417C55.5074 3.72713 55.4437 3.9288 55.4437 4.18919C55.4437 4.44958 55.5074 4.65381 55.6348 4.80187C55.7621 4.94483 55.9252 5.01631 56.1239 5.01631Z" fill="white"/>
<path d="M61.9985 2.02184C62.513 2.02184 62.9257 2.17756 63.2365 2.48901C63.5523 2.80045 63.7102 3.27017 63.7102 3.89817V6.28762H61.9832V4.19685C61.9832 3.71692 61.8125 3.47695 61.4712 3.47695C61.2776 3.47695 61.1196 3.54588 60.9974 3.68373C60.8802 3.81648 60.8216 4.02837 60.8216 4.31939V6.28762H59.0945V2.09843H60.7375V2.51198C60.9006 2.3486 61.0891 2.22607 61.303 2.14438C61.517 2.06269 61.7488 2.02184 61.9985 2.02184Z" fill="white"/>
<path d="M70.4501 5.35328H68.4173L68.0581 6.28762H66.2241L68.5625 0.926677H70.3354L72.6739 6.28762H70.8092L70.4501 5.35328ZM69.9533 4.05134L69.4337 2.70345L68.914 4.05134H69.9533Z" fill="white"/>
<path d="M77.4942 0.605021V6.28762H75.8512V5.94299C75.6016 6.2238 75.2195 6.3642 74.7049 6.3642C74.3381 6.3642 73.9993 6.27741 73.6886 6.10382C73.3829 5.92512 73.1383 5.66983 72.9549 5.33797C72.7766 5.0061 72.6875 4.62317 72.6875 4.18919C72.6875 3.75521 72.7766 3.37484 72.9549 3.04808C73.1383 2.71621 73.3829 2.46348 73.6886 2.28989C73.9993 2.11119 74.3381 2.02184 74.7049 2.02184C75.1686 2.02184 75.5226 2.14182 75.7672 2.38179V0.605021H77.4942ZM75.1176 5.01631C75.3163 5.01631 75.4793 4.94483 75.6067 4.80187C75.7341 4.65381 75.7977 4.44958 75.7977 4.18919C75.7977 3.9288 75.7341 3.72713 75.6067 3.58417C75.4793 3.44121 75.3163 3.36974 75.1176 3.36974C74.9189 3.36974 74.7559 3.44121 74.6285 3.58417C74.5012 3.72713 74.4375 3.9288 74.4375 4.18919C74.4375 4.44958 74.5012 4.65381 74.6285 4.80187C74.7559 4.94483 74.9189 5.01631 75.1176 5.01631Z" fill="white"/>
<path d="M82.913 2.09843L81.2317 6.28762H79.4435L77.7623 2.09843H79.5352L80.3758 4.34236L81.2776 2.09843H82.913Z" fill="white"/>
<path d="M87.5127 4.18919C87.5127 4.21472 87.505 4.35002 87.4898 4.59509H84.5858C84.647 4.75337 84.7489 4.8759 84.8915 4.9627C85.0342 5.04439 85.2125 5.08524 85.4264 5.08524C85.6098 5.08524 85.7627 5.06226 85.885 5.01631C86.0123 4.97036 86.1499 4.89122 86.2976 4.7789L87.1994 5.69026C86.7918 6.13955 86.183 6.3642 85.3729 6.3642C84.8686 6.3642 84.4253 6.2723 84.0433 6.0885C83.6612 5.89959 83.3657 5.6392 83.1568 5.30733C82.9479 4.97546 82.8435 4.60275 82.8435 4.18919C82.8435 3.77053 82.9454 3.39782 83.1491 3.07105C83.358 2.73919 83.6408 2.48135 83.9974 2.29755C84.3591 2.11374 84.7641 2.02184 85.2125 2.02184C85.6353 2.02184 86.02 2.10608 86.3664 2.27457C86.7179 2.44306 86.9956 2.69068 87.1994 3.01744C87.4082 3.34421 87.5127 3.73479 87.5127 4.18919ZM85.2277 3.20125C85.0494 3.20125 84.9017 3.24975 84.7845 3.34676C84.6673 3.44377 84.5909 3.58162 84.5553 3.76032H85.9002C85.8646 3.58673 85.7882 3.45143 85.671 3.35442C85.5538 3.2523 85.4061 3.20125 85.2277 3.20125Z" fill="white"/>
<path d="M89.7007 2.55028C90.0064 2.19799 90.4573 2.02184 91.0533 2.02184V3.55354C90.9158 3.53312 90.7884 3.5229 90.6712 3.5229C90.0803 3.5229 89.7848 3.82414 89.7848 4.42661V6.28762H88.0577V2.09843H89.7007V2.55028Z" fill="white"/>
<path d="M94.7345 6.14211C94.4747 6.29017 94.1206 6.3642 93.6723 6.3642C93.0864 6.3642 92.6355 6.2238 92.3196 5.94299C92.0038 5.65707 91.8458 5.23075 91.8458 4.66402V3.59183H91.2727V2.32818H91.8458V1.15643H93.5729V2.32818H94.4288V3.59183H93.5729V4.6487C93.5729 4.77634 93.606 4.8759 93.6723 4.94738C93.7385 5.01886 93.8251 5.0546 93.9321 5.0546C94.0798 5.0546 94.2097 5.01631 94.3218 4.93972L94.7345 6.14211Z" fill="white"/>
<path d="M95.1698 2.09843H96.8968V6.28762H95.1698V2.09843ZM96.0333 1.76145C95.7225 1.76145 95.4704 1.67976 95.2768 1.51638C95.0883 1.34789 94.994 1.13601 94.994 0.880726C94.994 0.625443 95.0883 0.416111 95.2768 0.25273C95.4704 0.0842433 95.7225 0 96.0333 0C96.3492 0 96.6014 0.0791378 96.7899 0.237413C96.9784 0.395688 97.0726 0.599915 97.0726 0.850092C97.0726 1.11559 96.9784 1.33513 96.7899 1.50872C96.6014 1.67721 96.3492 1.76145 96.0333 1.76145Z" fill="white"/>
<path d="M99.2977 6.3642C98.9411 6.3642 98.5896 6.32591 98.2431 6.24933C97.8967 6.17274 97.6165 6.07318 97.4025 5.95065L97.8763 4.80953C98.0699 4.92696 98.2992 5.01886 98.5641 5.08524C98.829 5.15161 99.0863 5.1848 99.3359 5.1848C99.5346 5.1848 99.6722 5.16948 99.7486 5.13885C99.8301 5.10311 99.8709 5.05205 99.8709 4.98568C99.8709 4.9193 99.8199 4.87335 99.718 4.84782C99.6212 4.8223 99.4607 4.79677 99.2366 4.77124C98.8952 4.73039 98.6049 4.67934 98.3654 4.61807C98.126 4.55169 97.9145 4.42661 97.7311 4.2428C97.5528 4.059 97.4637 3.79606 97.4637 3.45398C97.4637 3.18338 97.5452 2.94086 97.7082 2.72642C97.8712 2.51198 98.1132 2.34094 98.4342 2.2133C98.7602 2.08566 99.15 2.02184 99.6034 2.02184C99.9193 2.02184 100.227 2.05247 100.528 2.11374C100.834 2.1699 101.094 2.25415 101.308 2.36647L100.834 3.50759C100.467 3.30336 100.064 3.20125 99.6263 3.20125C99.2493 3.20125 99.0608 3.26762 99.0608 3.40037C99.0608 3.46674 99.1118 3.51525 99.2137 3.54588C99.3156 3.57141 99.476 3.59694 99.6951 3.62247C100.036 3.66331 100.324 3.71692 100.559 3.78329C100.798 3.84967 101.007 3.97476 101.185 4.15856C101.369 4.34236 101.46 4.6053 101.46 4.94738C101.46 5.20777 101.379 5.44519 101.216 5.65962C101.053 5.87406 100.808 6.0451 100.482 6.17274C100.156 6.30038 99.7613 6.3642 99.2977 6.3642Z" fill="white"/>
<path d="M101.983 2.09843H103.71V6.28762H101.983V2.09843ZM102.847 1.76145C102.536 1.76145 102.284 1.67976 102.09 1.51638C101.902 1.34789 101.808 1.13601 101.808 0.880726C101.808 0.625443 101.902 0.416111 102.09 0.25273C102.284 0.0842433 102.536 0 102.847 0C103.163 0 103.415 0.0791378 103.603 0.237413C103.792 0.395688 103.886 0.599915 103.886 0.850092C103.886 1.11559 103.792 1.33513 103.603 1.50872C103.415 1.67721 103.163 1.76145 102.847 1.76145Z" fill="white"/>
<path d="M107.38 2.02184C107.894 2.02184 108.307 2.17756 108.618 2.48901C108.934 2.80045 109.092 3.27017 109.092 3.89817V6.28762H107.365V4.19685C107.365 3.71692 107.194 3.47695 106.853 3.47695C106.659 3.47695 106.501 3.54588 106.379 3.68373C106.262 3.81648 106.203 4.02837 106.203 4.31939V6.28762H104.476V2.09843H106.119V2.51198C106.282 2.3486 106.47 2.22607 106.684 2.14438C106.898 2.06269 107.13 2.02184 107.38 2.02184Z" fill="white"/>
<path d="M114.586 2.09843V5.45284C114.586 6.24933 114.364 6.84669 113.921 7.24493C113.483 7.64828 112.856 7.84995 112.041 7.84995C111.623 7.84995 111.233 7.804 110.872 7.7121C110.51 7.6253 110.202 7.49766 109.947 7.32917L110.528 6.14977C110.691 6.2723 110.897 6.37186 111.147 6.44845C111.396 6.52503 111.636 6.56332 111.865 6.56332C112.211 6.56332 112.464 6.48929 112.622 6.34123C112.779 6.19316 112.858 5.97617 112.858 5.69026V5.61367C112.599 5.9098 112.214 6.05786 111.704 6.05786C111.348 6.05786 111.014 5.97617 110.703 5.81279C110.398 5.64431 110.153 5.40689 109.97 5.10055C109.786 4.78911 109.695 4.43427 109.695 4.03602C109.695 3.63778 109.786 3.28549 109.97 2.97915C110.153 2.67281 110.398 2.43795 110.703 2.27457C111.014 2.10608 111.348 2.02184 111.704 2.02184C112.275 2.02184 112.688 2.20564 112.942 2.57325V2.09843H114.586ZM112.163 4.70997C112.367 4.70997 112.535 4.6487 112.667 4.52617C112.805 4.39853 112.874 4.23514 112.874 4.03602C112.874 3.8369 112.805 3.67607 112.667 3.55354C112.535 3.431 112.367 3.36974 112.163 3.36974C111.954 3.36974 111.781 3.431 111.643 3.55354C111.511 3.67607 111.445 3.8369 111.445 4.03602C111.445 4.23514 111.513 4.39853 111.651 4.52617C111.789 4.6487 111.959 4.70997 112.163 4.70997Z" fill="white"/>
<path d="M123.41 0.926677L121.148 6.28762H119.375L117.113 0.926677H119.054L120.33 4.059L121.637 0.926677H123.41Z" fill="white"/>
<path d="M123.685 2.09843H125.412V6.28762H123.685V2.09843ZM124.549 1.76145C124.238 1.76145 123.986 1.67976 123.792 1.51638C123.604 1.34789 123.509 1.13601 123.509 0.880726C123.509 0.625443 123.604 0.416111 123.792 0.25273C123.986 0.0842433 124.238 0 124.549 0C124.865 0 125.117 0.0791378 125.305 0.237413C125.494 0.395688 125.588 0.599915 125.588 0.850092C125.588 1.11559 125.494 1.33513 125.305 1.50872C125.117 1.67721 124.865 1.76145 124.549 1.76145Z" fill="white"/>
<path d="M130.801 0.605021V6.28762H129.158V5.94299C128.908 6.2238 128.526 6.3642 128.012 6.3642C127.645 6.3642 127.306 6.27741 126.995 6.10382C126.69 5.92512 126.445 5.66983 126.262 5.33797C126.084 5.0061 125.994 4.62317 125.994 4.18919C125.994 3.75521 126.084 3.37484 126.262 3.04808C126.445 2.71621 126.69 2.46348 126.995 2.28989C127.306 2.11119 127.645 2.02184 128.012 2.02184C128.475 2.02184 128.829 2.14182 129.074 2.38179V0.605021H130.801ZM128.424 5.01631C128.623 5.01631 128.786 4.94483 128.914 4.80187C129.041 4.65381 129.105 4.44958 129.105 4.18919C129.105 3.9288 129.041 3.72713 128.914 3.58417C128.786 3.44121 128.623 3.36974 128.424 3.36974C128.226 3.36974 128.063 3.44121 127.935 3.58417C127.808 3.72713 127.744 3.9288 127.744 4.18919C127.744 4.44958 127.808 4.65381 127.935 4.80187C128.063 4.94483 128.226 5.01631 128.424 5.01631Z" fill="white"/>
<path d="M136.014 4.18919C136.014 4.21472 136.006 4.35002 135.991 4.59509H133.087C133.148 4.75337 133.25 4.8759 133.392 4.9627C133.535 5.04439 133.713 5.08524 133.927 5.08524C134.111 5.08524 134.264 5.06226 134.386 5.01631C134.513 4.97036 134.651 4.89122 134.798 4.7789L135.7 5.69026C135.293 6.13955 134.684 6.3642 133.874 6.3642C133.369 6.3642 132.926 6.2723 132.544 6.0885C132.162 5.89959 131.866 5.6392 131.658 5.30733C131.449 4.97546 131.344 4.60275 131.344 4.18919C131.344 3.77053 131.446 3.39782 131.65 3.07105C131.859 2.73919 132.142 2.48135 132.498 2.29755C132.86 2.11374 133.265 2.02184 133.713 2.02184C134.136 2.02184 134.521 2.10608 134.867 2.27457C135.219 2.44306 135.496 2.69068 135.7 3.01744C135.909 3.34421 136.014 3.73479 136.014 4.18919ZM133.729 3.20125C133.55 3.20125 133.403 3.24975 133.285 3.34676C133.168 3.44377 133.092 3.58162 133.056 3.76032H134.401C134.365 3.58673 134.289 3.45143 134.172 3.35442C134.055 3.2523 133.907 3.20125 133.729 3.20125Z" fill="white"/>
<path d="M138.767 6.3642C138.303 6.3642 137.886 6.2723 137.514 6.0885C137.147 5.89959 136.859 5.64175 136.65 5.31499C136.441 4.98312 136.337 4.60786 136.337 4.18919C136.337 3.77053 136.441 3.39782 136.65 3.07105C136.859 2.73919 137.147 2.48135 137.514 2.29755C137.886 2.11374 138.303 2.02184 138.767 2.02184C139.236 2.02184 139.654 2.11374 140.02 2.29755C140.392 2.48135 140.68 2.73919 140.884 3.07105C141.093 3.39782 141.197 3.77053 141.197 4.18919C141.197 4.60786 141.093 4.98312 140.884 5.31499C140.68 5.64175 140.392 5.89959 140.02 6.0885C139.654 6.2723 139.236 6.3642 138.767 6.3642ZM138.767 5.01631C138.966 5.01631 139.129 4.94483 139.256 4.80187C139.383 4.65381 139.447 4.44958 139.447 4.18919C139.447 3.9288 139.383 3.72713 139.256 3.58417C139.129 3.44121 138.966 3.36974 138.767 3.36974C138.568 3.36974 138.405 3.44121 138.278 3.58417C138.151 3.72713 138.087 3.9288 138.087 4.18919C138.087 4.44958 138.151 4.65381 138.278 4.80187C138.405 4.94483 138.568 5.01631 138.767 5.01631Z" fill="white"/>
<path d="M146.849 6.41015C146.283 6.41015 145.774 6.29272 145.32 6.05786C144.867 5.8179 144.51 5.48603 144.25 5.06226C143.996 4.63339 143.868 4.14835 143.868 3.60715C143.868 3.06595 143.996 2.58346 144.25 2.15969C144.51 1.73082 144.867 1.39895 145.32 1.16409C145.774 0.924124 146.283 0.804141 146.849 0.804141C147.368 0.804141 147.832 0.896043 148.24 1.07985C148.647 1.26365 148.983 1.52914 149.248 1.87633L148.11 2.89491C147.778 2.47624 147.389 2.26691 146.94 2.26691C146.563 2.26691 146.26 2.38945 146.031 2.63452C145.802 2.87449 145.687 3.1987 145.687 3.60715C145.687 4.0156 145.802 4.34236 146.031 4.58743C146.26 4.8274 146.563 4.94738 146.94 4.94738C147.389 4.94738 147.778 4.73805 148.11 4.31939L149.248 5.33797C148.983 5.68515 148.647 5.95065 148.24 6.13445C147.832 6.31825 147.368 6.41015 146.849 6.41015Z" fill="white"/>
<path d="M151.812 6.3642C151.348 6.3642 150.931 6.2723 150.559 6.0885C150.192 5.89959 149.904 5.64175 149.695 5.31499C149.486 4.98312 149.382 4.60786 149.382 4.18919C149.382 3.77053 149.486 3.39782 149.695 3.07105C149.904 2.73919 150.192 2.48135 150.559 2.29755C150.931 2.11374 151.348 2.02184 151.812 2.02184C152.281 2.02184 152.699 2.11374 153.065 2.29755C153.437 2.48135 153.725 2.73919 153.929 3.07105C154.138 3.39782 154.242 3.77053 154.242 4.18919C154.242 4.60786 154.138 4.98312 153.929 5.31499C153.725 5.64175 153.437 5.89959 153.065 6.0885C152.699 6.2723 152.281 6.3642 151.812 6.3642ZM151.812 5.01631C152.011 5.01631 152.174 4.94483 152.301 4.80187C152.428 4.65381 152.492 4.44958 152.492 4.18919C152.492 3.9288 152.428 3.72713 152.301 3.58417C152.174 3.44121 152.011 3.36974 151.812 3.36974C151.613 3.36974 151.45 3.44121 151.323 3.58417C151.196 3.72713 151.132 3.9288 151.132 4.18919C151.132 4.44958 151.196 4.65381 151.323 4.80187C151.45 4.94483 151.613 5.01631 151.812 5.01631Z" fill="white"/>
<path d="M157.687 2.02184C158.201 2.02184 158.614 2.17756 158.925 2.48901C159.241 2.80045 159.398 3.27017 159.398 3.89817V6.28762H157.671V4.19685C157.671 3.71692 157.501 3.47695 157.159 3.47695C156.966 3.47695 156.808 3.54588 156.686 3.68373C156.568 3.81648 156.51 4.02837 156.51 4.31939V6.28762H154.783V2.09843H156.426V2.51198C156.589 2.3486 156.777 2.22607 156.991 2.14438C157.205 2.06269 157.437 2.02184 157.687 2.02184Z" fill="white"/>
<path d="M163.228 6.14211C162.968 6.29017 162.614 6.3642 162.166 6.3642C161.58 6.3642 161.129 6.2238 160.813 5.94299C160.497 5.65707 160.34 5.23075 160.34 4.66402V3.59183H159.766V2.32818H160.34V1.15643H162.067V2.32818H162.923V3.59183H162.067V4.6487C162.067 4.77634 162.1 4.8759 162.166 4.94738C162.232 5.01886 162.319 5.0546 162.426 5.0546C162.574 5.0546 162.703 5.01631 162.816 4.93972L163.228 6.14211Z" fill="white"/>
<path d="M167.999 4.18919C167.999 4.21472 167.991 4.35002 167.976 4.59509H165.072C165.133 4.75337 165.235 4.8759 165.378 4.9627C165.521 5.04439 165.699 5.08524 165.913 5.08524C166.096 5.08524 166.249 5.06226 166.371 5.01631C166.499 4.97036 166.636 4.89122 166.784 4.7789L167.686 5.69026C167.278 6.13955 166.669 6.3642 165.859 6.3642C165.355 6.3642 164.912 6.2723 164.53 6.0885C164.148 5.89959 163.852 5.6392 163.643 5.30733C163.434 4.97546 163.33 4.60275 163.33 4.18919C163.33 3.77053 163.432 3.39782 163.636 3.07105C163.844 2.73919 164.127 2.48135 164.484 2.29755C164.846 2.11374 165.251 2.02184 165.699 2.02184C166.122 2.02184 166.506 2.10608 166.853 2.27457C167.204 2.44306 167.482 2.69068 167.686 3.01744C167.895 3.34421 167.999 3.73479 167.999 4.18919ZM165.714 3.20125C165.536 3.20125 165.388 3.24975 165.271 3.34676C165.154 3.44377 165.077 3.58162 165.042 3.76032H166.387C166.351 3.58673 166.275 3.45143 166.157 3.35442C166.04 3.2523 165.893 3.20125 165.714 3.20125Z" fill="white"/>
<path d="M170.18 6.3642C169.823 6.3642 169.471 6.32591 169.125 6.24933C168.779 6.17274 168.498 6.07318 168.284 5.95065L168.758 4.80953C168.952 4.92696 169.181 5.01886 169.446 5.08524C169.711 5.15161 169.968 5.1848 170.218 5.1848C170.416 5.1848 170.554 5.16948 170.63 5.13885C170.712 5.10311 170.753 5.05205 170.753 4.98568C170.753 4.9193 170.702 4.87335 170.6 4.84782C170.503 4.8223 170.343 4.79677 170.118 4.77124C169.777 4.73039 169.487 4.67934 169.247 4.61807C169.008 4.55169 168.796 4.42661 168.613 4.2428C168.435 4.059 168.345 3.79606 168.345 3.45398C168.345 3.18338 168.427 2.94086 168.59 2.72642C168.753 2.51198 168.995 2.34094 169.316 2.2133C169.642 2.08566 170.032 2.02184 170.485 2.02184C170.801 2.02184 171.109 2.05247 171.41 2.11374C171.716 2.1699 171.975 2.25415 172.189 2.36647L171.716 3.50759C171.349 3.30336 170.946 3.20125 170.508 3.20125C170.131 3.20125 169.943 3.26762 169.943 3.40037C169.943 3.46674 169.994 3.51525 170.095 3.54588C170.197 3.57141 170.358 3.59694 170.577 3.62247C170.918 3.66331 171.206 3.71692 171.44 3.78329C171.68 3.84967 171.889 3.97476 172.067 4.15856C172.25 4.34236 172.342 4.6053 172.342 4.94738C172.342 5.20777 172.261 5.44519 172.098 5.65962C171.935 5.87406 171.69 6.0451 171.364 6.17274C171.038 6.30038 170.643 6.3642 170.18 6.3642Z" fill="white"/>
<path d="M175.945 6.14211C175.685 6.29017 175.331 6.3642 174.883 6.3642C174.297 6.3642 173.846 6.2238 173.53 5.94299C173.214 5.65707 173.056 5.23075 173.056 4.66402V3.59183H172.483V2.32818H173.056V1.15643H174.783V2.32818H175.639V3.59183H174.783V4.6487C174.783 4.77634 174.816 4.8759 174.883 4.94738C174.949 5.01886 175.035 5.0546 175.142 5.0546C175.29 5.0546 175.42 5.01631 175.532 4.93972L175.945 6.14211Z" fill="white"/>
<path d="M183.172 4.92441V6.28762H178.725V0.926677H183.073V2.28989H180.498V2.91788H182.76V4.21983H180.498V4.92441H183.172Z" fill="white"/>
<path d="M186.717 2.02184C187.232 2.02184 187.644 2.17756 187.955 2.48901C188.271 2.80045 188.429 3.27017 188.429 3.89817V6.28762H186.702V4.19685C186.702 3.71692 186.531 3.47695 186.19 3.47695C185.996 3.47695 185.838 3.54588 185.716 3.68373C185.599 3.81648 185.54 4.02837 185.54 4.31939V6.28762H183.813V2.09843H185.456V2.51198C185.619 2.3486 185.808 2.22607 186.022 2.14438C186.236 2.06269 186.467 2.02184 186.717 2.02184Z" fill="white"/>
<path d="M192.259 6.14211C191.999 6.29017 191.645 6.3642 191.196 6.3642C190.61 6.3642 190.16 6.2238 189.844 5.94299C189.528 5.65707 189.37 5.23075 189.37 4.66402V3.59183H188.797V2.32818H189.37V1.15643H191.097V2.32818H191.953V3.59183H191.097V4.6487C191.097 4.77634 191.13 4.8759 191.196 4.94738C191.263 5.01886 191.349 5.0546 191.456 5.0546C191.604 5.0546 191.734 5.01631 191.846 4.93972L192.259 6.14211Z" fill="white"/>
<path d="M194.337 2.55028C194.643 2.19799 195.093 2.02184 195.689 2.02184V3.55354C195.552 3.53312 195.425 3.5229 195.307 3.5229C194.716 3.5229 194.421 3.82414 194.421 4.42661V6.28762H192.694V2.09843H194.337V2.55028Z" fill="white"/>
<path d="M200.589 4.18919C200.589 4.21472 200.582 4.35002 200.566 4.59509H197.662C197.724 4.75337 197.825 4.8759 197.968 4.9627C198.111 5.04439 198.289 5.08524 198.503 5.08524C198.686 5.08524 198.839 5.06226 198.962 5.01631C199.089 4.97036 199.226 4.89122 199.374 4.7789L200.276 5.69026C199.868 6.13955 199.26 6.3642 198.449 6.3642C197.945 6.3642 197.502 6.2723 197.12 6.0885C196.738 5.89959 196.442 5.6392 196.233 5.30733C196.024 4.97546 195.92 4.60275 195.92 4.18919C195.92 3.77053 196.022 3.39782 196.226 3.07105C196.435 2.73919 196.717 2.48135 197.074 2.29755C197.436 2.11374 197.841 2.02184 198.289 2.02184C198.712 2.02184 199.097 2.10608 199.443 2.27457C199.794 2.44306 200.072 2.69068 200.276 3.01744C200.485 3.34421 200.589 3.73479 200.589 4.18919ZM198.304 3.20125C198.126 3.20125 197.978 3.24975 197.861 3.34676C197.744 3.44377 197.667 3.58162 197.632 3.76032H198.977C198.941 3.58673 198.865 3.45143 198.748 3.35442C198.63 3.2523 198.483 3.20125 198.304 3.20125Z" fill="white"/>
<path d="M203.924 2.02184C204.29 2.02184 204.627 2.11119 204.932 2.28989C205.243 2.46348 205.488 2.71621 205.666 3.04808C205.849 3.37995 205.941 3.76287 205.941 4.19685C205.941 4.63083 205.849 5.01376 205.666 5.34562C205.488 5.67239 205.243 5.92512 204.932 6.10382C204.627 6.27741 204.29 6.3642 203.924 6.3642C203.46 6.3642 203.106 6.24422 202.861 6.00425V7.77337H201.134V2.09843H202.777V2.44306C203.027 2.16225 203.409 2.02184 203.924 2.02184ZM203.511 5.01631C203.71 5.01631 203.873 4.94483 204 4.80187C204.127 4.65891 204.191 4.45724 204.191 4.19685C204.191 3.93646 204.127 3.73479 204 3.59183C203.873 3.44377 203.71 3.36974 203.511 3.36974C203.312 3.36974 203.149 3.44377 203.022 3.59183C202.894 3.73479 202.831 3.93646 202.831 4.19685C202.831 4.45724 202.894 4.65891 203.022 4.80187C203.149 4.94483 203.312 5.01631 203.511 5.01631Z" fill="white"/>
<path d="M208.128 2.55028C208.434 2.19799 208.885 2.02184 209.481 2.02184V3.55354C209.343 3.53312 209.216 3.5229 209.099 3.5229C208.508 3.5229 208.212 3.82414 208.212 4.42661V6.28762H206.485V2.09843H208.128V2.55028Z" fill="white"/>
<path d="M214.381 4.18919C214.381 4.21472 214.373 4.35002 214.358 4.59509H211.454C211.515 4.75337 211.617 4.8759 211.759 4.9627C211.902 5.04439 212.08 5.08524 212.294 5.08524C212.478 5.08524 212.631 5.06226 212.753 5.01631C212.88 4.97036 213.018 4.89122 213.165 4.7789L214.067 5.69026C213.66 6.13955 213.051 6.3642 212.241 6.3642C211.736 6.3642 211.293 6.2723 210.911 6.0885C210.529 5.89959 210.233 5.6392 210.025 5.30733C209.816 4.97546 209.711 4.60275 209.711 4.18919C209.711 3.77053 209.813 3.39782 210.017 3.07105C210.226 2.73919 210.509 2.48135 210.865 2.29755C211.227 2.11374 211.632 2.02184 212.08 2.02184C212.503 2.02184 212.888 2.10608 213.234 2.27457C213.586 2.44306 213.863 2.69068 214.067 3.01744C214.276 3.34421 214.381 3.73479 214.381 4.18919ZM212.096 3.20125C211.917 3.20125 211.77 3.24975 211.652 3.34676C211.535 3.44377 211.459 3.58162 211.423 3.76032H212.768C212.732 3.58673 212.656 3.45143 212.539 3.35442C212.422 3.2523 212.274 3.20125 212.096 3.20125Z" fill="white"/>
<path d="M217.829 2.02184C218.344 2.02184 218.757 2.17756 219.067 2.48901C219.383 2.80045 219.541 3.27017 219.541 3.89817V6.28762H217.814V4.19685C217.814 3.71692 217.644 3.47695 217.302 3.47695C217.109 3.47695 216.951 3.54588 216.828 3.68373C216.711 3.81648 216.653 4.02837 216.653 4.31939V6.28762H214.926V2.09843H216.569V2.51198C216.732 2.3486 216.92 2.22607 217.134 2.14438C217.348 2.06269 217.58 2.02184 217.829 2.02184Z" fill="white"/>
<path d="M224.814 4.18919C224.814 4.21472 224.806 4.35002 224.791 4.59509H221.887C221.948 4.75337 222.05 4.8759 222.192 4.9627C222.335 5.04439 222.513 5.08524 222.727 5.08524C222.911 5.08524 223.064 5.06226 223.186 5.01631C223.313 4.97036 223.451 4.89122 223.598 4.7789L224.5 5.69026C224.093 6.13955 223.484 6.3642 222.674 6.3642C222.169 6.3642 221.726 6.2723 221.344 6.0885C220.962 5.89959 220.667 5.6392 220.458 5.30733C220.249 4.97546 220.144 4.60275 220.144 4.18919C220.144 3.77053 220.246 3.39782 220.45 3.07105C220.659 2.73919 220.942 2.48135 221.298 2.29755C221.66 2.11374 222.065 2.02184 222.513 2.02184C222.936 2.02184 223.321 2.10608 223.667 2.27457C224.019 2.44306 224.296 2.69068 224.5 3.01744C224.709 3.34421 224.814 3.73479 224.814 4.18919ZM222.529 3.20125C222.35 3.20125 222.203 3.24975 222.085 3.34676C221.968 3.44377 221.892 3.58162 221.856 3.76032H223.201C223.165 3.58673 223.089 3.45143 222.972 3.35442C222.855 3.2523 222.707 3.20125 222.529 3.20125Z" fill="white"/>
<path d="M229.928 2.09843V6.28762H228.285V5.88938C228.133 6.04765 227.954 6.16764 227.75 6.24933C227.547 6.32591 227.33 6.3642 227.101 6.3642C226.571 6.3642 226.146 6.20338 225.825 5.88172C225.504 5.55496 225.343 5.06481 225.343 4.41129V2.09843H227.07V4.11261C227.07 4.39853 227.116 4.60275 227.208 4.72529C227.3 4.84782 227.435 4.90909 227.613 4.90909C227.781 4.90909 227.921 4.84272 228.033 4.70997C228.145 4.57212 228.201 4.35768 228.201 4.06666V2.09843H229.928Z" fill="white"/>
<path d="M232.337 2.55028C232.643 2.19799 233.094 2.02184 233.69 2.02184V3.55354C233.553 3.53312 233.425 3.5229 233.308 3.5229C232.717 3.5229 232.422 3.82414 232.422 4.42661V6.28762H230.694V2.09843H232.337V2.55028Z" fill="white"/>
<path d="M236.524 0.926677H239.161C239.757 0.926677 240.281 1.03645 240.735 1.25599C241.193 1.47043 241.547 1.77932 241.797 2.18267C242.052 2.58602 242.179 3.06084 242.179 3.60715C242.179 4.15345 242.052 4.62828 241.797 5.03163C241.547 5.43497 241.193 5.74642 240.735 5.96596C240.281 6.1804 239.757 6.28762 239.161 6.28762H236.524V0.926677ZM239.084 4.87846C239.471 4.87846 239.78 4.76869 240.009 4.54914C240.243 4.32449 240.36 4.0105 240.36 3.60715C240.36 3.2038 240.243 2.89236 240.009 2.67281C239.78 2.44816 239.471 2.33584 239.084 2.33584H238.328V4.87846H239.084Z" fill="white"/>
<path d="M244.656 2.02184C245.39 2.02184 245.951 2.18777 246.338 2.51964C246.725 2.8464 246.919 3.35187 246.919 4.03602V6.28762H245.314V5.73621C245.115 6.15487 244.72 6.3642 244.129 6.3642C243.798 6.3642 243.515 6.30804 243.281 6.19572C243.052 6.07829 242.876 5.92256 242.754 5.72855C242.636 5.52943 242.578 5.30733 242.578 5.06226C242.578 4.6487 242.736 4.3347 243.052 4.12027C243.368 3.90583 243.846 3.79861 244.488 3.79861H245.184C245.128 3.47185 244.865 3.30847 244.397 3.30847C244.208 3.30847 244.017 3.3391 243.824 3.40037C243.63 3.45653 243.464 3.53567 243.327 3.63778L242.777 2.49667C243.016 2.3486 243.304 2.23373 243.64 2.15204C243.981 2.06524 244.32 2.02184 244.656 2.02184ZM244.649 5.32265C244.771 5.32265 244.881 5.28946 244.977 5.22309C245.074 5.15672 245.146 5.05716 245.191 4.92441V4.63339H244.763C244.412 4.63339 244.236 4.75082 244.236 4.98568C244.236 5.08268 244.272 5.16437 244.343 5.23075C244.42 5.29202 244.521 5.32265 244.649 5.32265Z" fill="white"/>
<path d="M252.244 2.09843L250.525 6.37186C250.306 6.91817 250.033 7.30109 249.707 7.52064C249.381 7.74018 248.981 7.84995 248.507 7.84995C248.273 7.84995 248.036 7.81421 247.797 7.74273C247.562 7.67636 247.376 7.58701 247.239 7.47468L247.812 6.28762C247.898 6.35399 247.995 6.4076 248.102 6.44845C248.214 6.48929 248.321 6.50972 248.423 6.50972C248.612 6.50972 248.754 6.45355 248.851 6.34123L247.094 2.09843H248.866L249.73 4.34236L250.609 2.09843H252.244Z" fill="white"/>
<path d="M8.65138 2.20309H0.5V234H350.5V2.20309H254.721V5.26649H347.443V230.937H3.55677V5.26649H8.65138V2.20309Z" fill="white"/>
</svg>
