<svg width="35" height="25" viewBox="0 0 35 25" fill="none" xmlns="http://www.w3.org/2000/svg">
<path fill-rule="evenodd" clip-rule="evenodd" d="M12.4135 7.83196C12.4136 5.00988 14.702 2.72266 17.5241 2.72266C20.3462 2.72266 22.6336 5.01002 22.6336 7.83216C22.6336 10.6543 20.3462 12.9427 17.5241 12.9427H17.4889L17.4885 12.9427C14.6767 12.9332 12.4041 10.6447 12.4135 7.83196ZM17.5241 2.95808C14.8319 2.95808 12.649 5.14008 12.649 7.83216L12.649 7.83255C12.6399 10.5153 14.8075 12.6981 17.4891 12.7073L17.4893 12.7073L17.5241 12.7073C20.2161 12.7073 22.3981 10.5243 22.3981 7.83216C22.3981 5.14005 20.2162 2.95808 17.5241 2.95808Z" fill="white"/>
<path fill-rule="evenodd" clip-rule="evenodd" d="M31.1812 23.9685C31.1765 22.1614 30.7852 20.6803 30.0804 19.4761C29.3712 18.2647 28.3487 17.3402 27.0978 16.6467C24.5999 15.262 21.1846 14.7944 17.5009 14.7944C13.8373 14.7944 10.4217 15.245 7.91855 16.613C6.66486 17.2981 5.63823 18.2143 4.92567 19.42C4.21314 20.6255 3.81873 22.1136 3.81873 23.9363C3.81873 23.947 3.81874 23.9578 3.81877 23.9685H4.05419C4.05417 23.9578 4.05415 23.947 4.05415 23.9363C4.05415 22.1484 4.44074 20.7032 5.12835 19.5397C5.81593 18.3764 6.80859 17.4878 8.03145 16.8196C10.4814 15.4807 13.848 15.0298 17.5009 15.0298C21.1732 15.0298 24.5392 15.4975 26.9836 16.8526C28.2038 17.529 29.1927 18.4257 29.8772 19.5951C30.5576 20.7575 30.9411 22.1961 30.9457 23.9685H31.1812Z" fill="white"/>
<path fill-rule="evenodd" clip-rule="evenodd" d="M12.4135 7.83196C12.4136 5.00988 14.702 2.72266 17.5241 2.72266C20.3462 2.72266 22.6336 5.01002 22.6336 7.83216C22.6336 10.6543 20.3462 12.9427 17.5241 12.9427H17.4889L17.4885 12.9427C14.6767 12.9332 12.4041 10.6447 12.4135 7.83196ZM17.5241 2.95808C14.8319 2.95808 12.649 5.14008 12.649 7.83216L12.649 7.83255C12.6399 10.5153 14.8075 12.6981 17.4891 12.7073L17.4893 12.7073L17.5241 12.7073C20.2161 12.7073 22.3981 10.5243 22.3981 7.83216C22.3981 5.14005 20.2162 2.95808 17.5241 2.95808Z" stroke="white" stroke-linecap="round" stroke-linejoin="round"/>
<path fill-rule="evenodd" clip-rule="evenodd" d="M31.1812 23.9685C31.1765 22.1614 30.7852 20.6803 30.0804 19.4761C29.3712 18.2647 28.3487 17.3402 27.0978 16.6467C24.5999 15.262 21.1846 14.7944 17.5009 14.7944C13.8373 14.7944 10.4217 15.245 7.91855 16.613C6.66486 17.2981 5.63823 18.2143 4.92567 19.42C4.21314 20.6255 3.81873 22.1136 3.81873 23.9363C3.81873 23.947 3.81874 23.9578 3.81877 23.9685H4.05419C4.05417 23.9578 4.05415 23.947 4.05415 23.9363C4.05415 22.1484 4.44074 20.7032 5.12835 19.5397C5.81593 18.3764 6.80859 17.4878 8.03145 16.8196C10.4814 15.4807 13.848 15.0298 17.5009 15.0298C21.1732 15.0298 24.5392 15.4975 26.9836 16.8526C28.2038 17.529 29.1927 18.4257 29.8772 19.5951C30.5576 20.7575 30.9411 22.1961 30.9457 23.9685H31.1812Z" stroke="white" stroke-linecap="round" stroke-linejoin="round"/>
</svg>
