<svg width="35" height="24" viewBox="0 0 35 24" fill="none" xmlns="http://www.w3.org/2000/svg">
<g clip-path="url(#clip0_819_253)">
<path d="M7.76904 6.4509L11.0127 8.32534M7.76904 6.4509V10.2669M7.76904 6.4509L11.0251 4.52955M17.4202 23.2627V19.5134M17.4202 23.2627L14.2165 21.4556M17.4202 23.2627L20.6769 21.4556M27.2309 6.4509V10.2669M27.2309 6.4509L23.9539 8.31382M27.2309 6.4509L23.9539 4.53823M17.4202 12.0281V15.7641M17.4202 12.0281L14.2165 10.1767M17.4202 12.0281L20.6769 10.1767M11.0127 8.32534V19.6484M11.0127 8.32534L14.2165 10.1767M11.0127 8.32534L20.7004 2.63923M11.0127 19.6484L7.76904 17.8188V14.0429M11.0127 19.6484L14.2165 21.4556M7.76904 10.2669L17.4202 15.7641M7.76904 10.2669V14.0429M17.4202 15.7641V19.5134M17.4202 15.7641L27.2309 10.2669M17.4202 19.5134L7.76904 14.0429M17.4202 19.5134L27.2309 14.0429M27.2309 10.2669V14.0429M27.2309 14.0429V17.8188L23.9539 19.6372M14.2165 21.4556V10.1767M14.2165 10.1767L23.9539 4.53823M20.6769 10.1767L20.6769 21.4556M20.6769 10.1767L23.9539 8.31382M20.6769 10.1767L11.0251 4.52955M20.6769 21.4556L23.9539 19.6372M23.9539 8.31382V19.6372M23.9539 8.31382L14.2812 2.60821M14.2812 2.60821L17.4468 0.740234L20.7004 2.63923M14.2812 2.60821L11.0251 4.52955M23.9539 4.53823L20.7004 2.63923" stroke="white"/>
</g>
<defs>
<clipPath id="clip0_819_253">
<rect width="35" height="23.935" fill="white" transform="translate(0 0.0332031)"/>
</clipPath>
</defs>
</svg>
