<svg width="46" height="45" viewBox="0 0 46 45" fill="none" xmlns="http://www.w3.org/2000/svg">
<g clip-path="url(#clip0_505_74)">
<path fill-rule="evenodd" clip-rule="evenodd" d="M22.9315 0C10.251 0 0 10.3125 0 23.0705C0 33.2686 6.56814 41.9011 15.6799 44.9564C16.8191 45.1861 17.2364 44.46 17.2364 43.8492C17.2364 43.3144 17.1988 41.4811 17.1988 39.5709C10.8199 40.9463 9.49149 36.8208 9.49149 36.8208C8.46635 34.147 6.94741 33.4598 6.94741 33.4598C4.85957 32.0466 7.09949 32.0466 7.09949 32.0466C9.41545 32.1994 10.6307 34.4147 10.6307 34.4147C12.6805 37.9284 15.9836 36.9356 17.3124 36.3244C17.5021 34.8347 18.1099 33.8034 18.7553 33.2306C13.6676 32.6958 8.31474 30.7097 8.31474 21.848C8.31474 19.327 9.22535 17.2645 10.6682 15.6605C10.4406 15.0877 9.6431 12.7191 10.8964 9.54891C10.8964 9.54891 12.8326 8.93766 17.1984 11.917C19.0675 11.412 20.9951 11.1551 22.9315 11.153C24.8677 11.153 26.8415 11.4206 28.6641 11.917C33.0303 8.93766 34.9666 9.54891 34.9666 9.54891C36.2198 12.7191 35.4219 15.0877 35.1942 15.6605C36.6751 17.2645 37.5482 19.327 37.5482 21.848C37.5482 30.7097 32.1953 32.6573 27.0696 33.2306C27.9051 33.9562 28.6261 35.3311 28.6261 37.5084C28.6261 40.6022 28.5885 43.0852 28.5885 43.8488C28.5885 44.46 29.0063 45.1861 30.145 44.9569C39.2568 41.9006 45.8249 33.2686 45.8249 23.0705C45.8625 10.3125 35.574 0 22.9315 0Z" fill="white"/>
</g>
<defs>
<clipPath id="clip0_505_74">
<rect width="46" height="45" fill="white"/>
</clipPath>
</defs>
</svg>
