<svg width="46" height="46" viewBox="0 0 46 46" fill="none" xmlns="http://www.w3.org/2000/svg">
<path fill-rule="evenodd" clip-rule="evenodd" d="M22.8202 0.166016C10.368 0.166016 0.301605 10.4785 0.301605 23.2365C0.301605 33.4346 6.7515 42.0671 15.6992 45.1224C16.8179 45.3521 17.2277 44.626 17.2277 44.0152C17.2277 43.4804 17.1908 41.6471 17.1908 39.737C10.9267 41.1123 9.62221 36.9868 9.62221 36.9868C8.61553 34.313 7.12393 33.6259 7.12393 33.6259C5.07369 32.2126 7.27328 32.2126 7.27328 32.2126C9.54754 32.3654 10.7409 34.5807 10.7409 34.5807C12.7538 38.0945 15.9974 37.1016 17.3023 36.4904C17.4886 35.0007 18.0855 33.9695 18.7193 33.3966C13.7232 32.8618 8.46664 30.8757 8.46664 22.014C8.46664 19.493 9.36086 17.4305 10.7778 15.8265C10.5542 15.2537 9.7711 12.8851 11.0018 9.71492C11.0018 9.71492 12.9032 9.10367 17.1903 12.083C19.0258 11.578 20.9187 11.3211 22.8202 11.319C24.7216 11.319 26.6598 11.5866 28.4496 12.083C32.7373 9.10367 34.6386 9.71492 34.6386 9.71492C35.8694 12.8851 35.0858 15.2537 34.8622 15.8265C36.3165 17.4305 37.1738 19.493 37.1738 22.014C37.1738 30.8757 31.9173 32.8234 26.8838 33.3966C27.7043 34.1223 28.4123 35.4971 28.4123 37.6745C28.4123 40.7682 28.3754 43.2512 28.3754 44.0148C28.3754 44.626 28.7857 45.3521 29.9039 45.1229C38.8516 42.0666 45.3015 33.4346 45.3015 23.2365C45.3384 10.4785 35.2351 0.166016 22.8202 0.166016Z" fill="white"/>
</svg>
