<svg width="33" height="33" viewBox="0 0 33 33" fill="none" xmlns="http://www.w3.org/2000/svg">
<path fill-rule="evenodd" clip-rule="evenodd" d="M16.5137 0C7.38203 0 0 7.56247 0 16.9183C0 24.3969 4.72992 30.7273 11.2916 32.9679C12.1119 33.1363 12.4124 32.6039 12.4124 32.156C12.4124 31.7637 12.3854 30.4193 12.3854 29.0186C7.79171 30.0271 6.83511 27.0018 6.83511 27.0018C6.09688 25.0411 5.00304 24.5371 5.00304 24.5371C3.49953 23.5007 5.11256 23.5007 5.11256 23.5007C6.78035 23.6128 7.65549 25.2373 7.65549 25.2373C9.13162 27.8141 11.5103 27.086 12.4672 26.6378C12.6038 25.5453 13.0415 24.7891 13.5063 24.369C9.84248 23.9768 5.98769 22.5203 5.98769 16.0218C5.98769 14.1731 6.64345 12.6606 7.68253 11.4843C7.51859 11.0642 6.94429 9.32727 7.84681 7.0025C7.84681 7.0025 9.24114 6.55425 12.3851 8.73912C13.7311 8.36879 15.1192 8.1804 16.5137 8.17881C17.908 8.17881 19.3294 8.37509 20.6419 8.73912C23.7862 6.55425 25.1805 7.0025 25.1805 7.0025C26.083 9.32727 25.5084 11.0642 25.3444 11.4843C26.4109 12.6606 27.0396 14.1731 27.0396 16.0218C27.0396 22.5203 23.1848 23.9486 19.4936 24.369C20.0953 24.9011 20.6145 25.9094 20.6145 27.5061C20.6145 29.7748 20.5875 31.5956 20.5875 32.1556C20.5875 32.6039 20.8883 33.1363 21.7084 32.9682C28.27 30.727 32.9999 24.3969 32.9999 16.9183C33.027 7.56247 25.6179 0 16.5137 0Z" fill="white"/>
</svg>
