<svg width="34" height="33" viewBox="0 0 34 33" fill="none" xmlns="http://www.w3.org/2000/svg">
<path fill-rule="evenodd" clip-rule="evenodd" d="M16.747 0C7.61537 0 0.233337 7.56247 0.233337 16.9183C0.233337 24.3969 4.96326 30.7273 11.5249 32.9679C12.3453 33.1363 12.6458 32.6039 12.6458 32.156C12.6458 31.7637 12.6187 30.4193 12.6187 29.0186C8.02505 30.0271 7.06845 27.0018 7.06845 27.0018C6.33021 25.0411 5.23638 24.5371 5.23638 24.5371C3.73286 23.5007 5.3459 23.5007 5.3459 23.5007C7.01369 23.6128 7.88883 25.2373 7.88883 25.2373C9.36496 27.8141 11.7436 27.086 12.7005 26.6378C12.8371 25.5453 13.2748 24.7891 13.7396 24.369C10.0758 23.9768 6.22103 22.5203 6.22103 16.0218C6.22103 14.1731 6.87679 12.6606 7.91587 11.4843C7.75193 11.0642 7.17763 9.32727 8.08014 7.0025C8.08014 7.0025 9.47448 6.55425 12.6184 8.73912C13.9644 8.36879 15.3526 8.1804 16.747 8.17881C18.1413 8.17881 19.5627 8.37509 20.8752 8.73912C24.0195 6.55425 25.4138 7.0025 25.4138 7.0025C26.3164 9.32727 25.7417 11.0642 25.5778 11.4843C26.6442 12.6606 27.2729 14.1731 27.2729 16.0218C27.2729 22.5203 23.4182 23.9486 19.727 24.369C20.3287 24.9011 20.8479 25.9094 20.8479 27.5061C20.8479 29.7748 20.8208 31.5956 20.8208 32.1556C20.8208 32.6039 21.1217 33.1363 21.9417 32.9682C28.5033 30.727 33.2333 24.3969 33.2333 16.9183C33.2603 7.56247 25.8512 0 16.747 0Z" fill="white"/>
</svg>
