<svg width="351" height="234" viewBox="0 0 351 234" fill="none" xmlns="http://www.w3.org/2000/svg">
<path d="M8.65138 2.20309H0.5V234H350.5V2.20309H167.094V5.26649H347.443V230.937H3.55677V5.26649H8.65138V2.20309Z" fill="white"/>
<path d="M14.4083 6.41015C13.9753 6.41015 13.5753 6.34378 13.2085 6.21103C12.8468 6.07318 12.5309 5.87917 12.2609 5.62899C11.996 5.37881 11.7897 5.08268 11.6419 4.7406C11.4942 4.39853 11.4203 4.02071 11.4203 3.60715C11.4203 3.19359 11.4942 2.81577 11.6419 2.47369C11.7897 2.13161 11.9985 1.83548 12.2686 1.58531C12.5386 1.33513 12.857 1.14367 13.2238 1.01092C13.5957 0.873068 14.0033 0.804141 14.4465 0.804141C14.9763 0.804141 15.4476 0.89349 15.8603 1.07219C16.278 1.25089 16.6219 1.50617 16.8919 1.83804L15.738 2.85662C15.5699 2.6626 15.3865 2.51709 15.1878 2.42008C14.9942 2.31797 14.7777 2.26691 14.5382 2.26691C14.3395 2.26691 14.1587 2.29755 13.9956 2.35881C13.8377 2.42008 13.7027 2.50943 13.5906 2.62686C13.4785 2.74429 13.3919 2.8847 13.3308 3.04808C13.2696 3.21146 13.2391 3.39782 13.2391 3.60715C13.2391 3.80627 13.2696 3.99007 13.3308 4.15856C13.3919 4.32194 13.4785 4.46235 13.5906 4.57978C13.7027 4.69721 13.8352 4.78911 13.988 4.85548C14.1459 4.91675 14.3217 4.94738 14.5153 4.94738C14.7191 4.94738 14.9178 4.9142 15.1114 4.84782C15.3049 4.77634 15.5113 4.65636 15.7303 4.48787L16.7391 5.72855C16.413 5.94809 16.0411 6.11658 15.6234 6.23401C15.2056 6.35144 14.8006 6.41015 14.4083 6.41015ZM15.1725 5.49879V3.46164H16.7391V5.72855L15.1725 5.49879Z" fill="white"/>
<path d="M19.6625 6.3642C19.1887 6.3642 18.7684 6.2723 18.4016 6.0885C18.0399 5.89959 17.7546 5.64175 17.5457 5.31499C17.3368 4.98823 17.2324 4.61296 17.2324 4.18919C17.2324 3.76542 17.3368 3.39016 17.5457 3.0634C17.7546 2.73663 18.0399 2.48135 18.4016 2.29755C18.7684 2.11374 19.1887 2.02184 19.6625 2.02184C20.1363 2.02184 20.5566 2.11374 20.9235 2.29755C21.2903 2.48135 21.5756 2.73663 21.7793 3.0634C21.9882 3.39016 22.0927 3.76542 22.0927 4.18919C22.0927 4.61296 21.9882 4.98823 21.7793 5.31499C21.5756 5.64175 21.2903 5.89959 20.9235 6.0885C20.5566 6.2723 20.1363 6.3642 19.6625 6.3642ZM19.6625 5.01631C19.7899 5.01631 19.9045 4.98568 20.0064 4.92441C20.1083 4.86314 20.1898 4.77124 20.251 4.6487C20.3121 4.52106 20.3427 4.36789 20.3427 4.18919C20.3427 4.00539 20.3121 3.85477 20.251 3.73734C20.1898 3.61481 20.1083 3.5229 20.0064 3.46164C19.9045 3.40037 19.7899 3.36974 19.6625 3.36974C19.5352 3.36974 19.4205 3.40037 19.3186 3.46164C19.2168 3.5229 19.1352 3.61481 19.0741 3.73734C19.013 3.85477 18.9824 4.00539 18.9824 4.18919C18.9824 4.36789 19.013 4.52106 19.0741 4.6487C19.1352 4.77124 19.2168 4.86314 19.3186 4.92441C19.4205 4.98568 19.5352 5.01631 19.6625 5.01631Z" fill="white"/>
<path d="M24.8417 6.3642C24.3679 6.3642 23.9476 6.2723 23.5808 6.0885C23.2191 5.89959 22.9338 5.64175 22.7249 5.31499C22.516 4.98823 22.4116 4.61296 22.4116 4.18919C22.4116 3.76542 22.516 3.39016 22.7249 3.0634C22.9338 2.73663 23.2191 2.48135 23.5808 2.29755C23.9476 2.11374 24.3679 2.02184 24.8417 2.02184C25.3155 2.02184 25.7358 2.11374 26.1026 2.29755C26.4695 2.48135 26.7548 2.73663 26.9585 3.0634C27.1674 3.39016 27.2719 3.76542 27.2719 4.18919C27.2719 4.61296 27.1674 4.98823 26.9585 5.31499C26.7548 5.64175 26.4695 5.89959 26.1026 6.0885C25.7358 6.2723 25.3155 6.3642 24.8417 6.3642ZM24.8417 5.01631C24.9691 5.01631 25.0837 4.98568 25.1856 4.92441C25.2875 4.86314 25.369 4.77124 25.4302 4.6487C25.4913 4.52106 25.5219 4.36789 25.5219 4.18919C25.5219 4.00539 25.4913 3.85477 25.4302 3.73734C25.369 3.61481 25.2875 3.5229 25.1856 3.46164C25.0837 3.40037 24.9691 3.36974 24.8417 3.36974C24.7144 3.36974 24.5997 3.40037 24.4978 3.46164C24.3959 3.5229 24.3144 3.61481 24.2533 3.73734C24.1922 3.85477 24.1616 4.00539 24.1616 4.18919C24.1616 4.36789 24.1922 4.52106 24.2533 4.6487C24.3144 4.77124 24.3959 4.86314 24.4978 4.92441C24.5997 4.98568 24.7144 5.01631 24.8417 5.01631Z" fill="white"/>
<path d="M29.9369 7.84995C29.5242 7.84995 29.137 7.80655 28.7753 7.71976C28.4136 7.63296 28.1028 7.50277 27.843 7.32917L28.4238 6.14977C28.5868 6.27741 28.7931 6.37697 29.0428 6.44845C29.2975 6.52503 29.5369 6.56332 29.7611 6.56332C30.1177 6.56332 30.3724 6.48674 30.5253 6.33357C30.6781 6.18551 30.7545 5.97107 30.7545 5.69026V5.33797L30.831 4.03602L30.8386 2.73408V2.09843H32.4816V5.45284C32.4816 6.26464 32.2575 6.86711 31.8091 7.26025C31.3608 7.65338 30.7367 7.84995 29.9369 7.84995ZM29.6006 6.05786C29.2491 6.05786 28.9205 5.97617 28.6148 5.81279C28.3091 5.64431 28.062 5.40945 27.8735 5.10821C27.685 4.80698 27.5908 4.44958 27.5908 4.03602C27.5908 3.62247 27.685 3.26507 27.8735 2.96384C28.062 2.6626 28.3091 2.43029 28.6148 2.26691C28.9205 2.10353 29.2491 2.02184 29.6006 2.02184C29.9623 2.02184 30.2578 2.09332 30.4871 2.23628C30.7214 2.37924 30.8946 2.60133 31.0067 2.90257C31.1188 3.1987 31.1748 3.57651 31.1748 4.03602C31.1748 4.49553 31.1188 4.8759 31.0067 5.17714C30.8946 5.47327 30.7214 5.69536 30.4871 5.84343C30.2578 5.98639 29.9623 6.05786 29.6006 6.05786ZM30.0591 4.70997C30.1967 4.70997 30.319 4.68189 30.4259 4.62573C30.5329 4.56956 30.617 4.49043 30.6781 4.38831C30.7393 4.2862 30.7698 4.16877 30.7698 4.03602C30.7698 3.89817 30.7393 3.78074 30.6781 3.68373C30.617 3.58162 30.5329 3.50503 30.4259 3.45398C30.319 3.39782 30.1967 3.36974 30.0591 3.36974C29.9267 3.36974 29.8044 3.39782 29.6923 3.45398C29.5853 3.50503 29.4987 3.58162 29.4325 3.68373C29.3714 3.78074 29.3408 3.89817 29.3408 4.03602C29.3408 4.16877 29.3714 4.2862 29.4325 4.38831C29.4987 4.49043 29.5853 4.56956 29.6923 4.62573C29.8044 4.68189 29.9267 4.70997 30.0591 4.70997Z" fill="white"/>
<path d="M33.2453 6.28762V0.605021H34.9724V6.28762H33.2453Z" fill="white"/>
<path d="M38.0458 6.3642C37.5363 6.3642 37.0905 6.26975 36.7084 6.08084C36.3314 5.89193 36.0385 5.63409 35.8296 5.30733C35.6207 4.97546 35.5163 4.60275 35.5163 4.18919C35.5163 3.76542 35.6182 3.39016 35.822 3.0634C36.0309 2.73663 36.3136 2.48135 36.6702 2.29755C37.0319 2.11374 37.437 2.02184 37.8853 2.02184C38.298 2.02184 38.6775 2.10353 39.0239 2.26691C39.3755 2.43029 39.6557 2.67281 39.8645 2.99447C40.0785 3.31613 40.1855 3.71437 40.1855 4.18919C40.1855 4.25046 40.183 4.31939 40.1779 4.39597C40.1728 4.46745 40.1677 4.53382 40.1626 4.59509H36.9453V3.76032H39.2456L38.596 3.98241C38.596 3.81903 38.5654 3.68118 38.5043 3.56886C38.4482 3.45143 38.3693 3.36208 38.2674 3.30081C38.1655 3.23443 38.0432 3.20125 37.9006 3.20125C37.7579 3.20125 37.6331 3.23443 37.5261 3.30081C37.4242 3.36208 37.3453 3.45143 37.2892 3.56886C37.2332 3.68118 37.2052 3.81903 37.2052 3.98241V4.2428C37.2052 4.4215 37.2408 4.57467 37.3121 4.70231C37.3835 4.82995 37.4854 4.92696 37.6178 4.99333C37.7503 5.0546 37.9108 5.08524 38.0993 5.08524C38.2929 5.08524 38.4508 5.05971 38.5731 5.00865C38.7004 4.95759 38.8329 4.88101 38.9704 4.7789L39.8722 5.69026C39.6684 5.9098 39.4162 6.07829 39.1156 6.19572C38.8202 6.30804 38.4635 6.3642 38.0458 6.3642Z" fill="white"/>
<path d="M43.0751 6.28762V0.926677H45.7116C46.3076 0.926677 46.8324 1.03645 47.2858 1.25599C47.7392 1.47043 48.0933 1.77677 48.348 2.17501C48.6028 2.57325 48.7301 3.04808 48.7301 3.59949C48.7301 4.15601 48.6028 4.63594 48.348 5.03929C48.0933 5.43753 47.7392 5.74642 47.2858 5.96596C46.8324 6.1804 46.3076 6.28762 45.7116 6.28762H43.0751ZM44.8786 4.87846H45.6352C45.8899 4.87846 46.1115 4.82995 46.3 4.73295C46.4936 4.63594 46.6439 4.49298 46.7509 4.30407C46.8579 4.11006 46.9114 3.8752 46.9114 3.59949C46.9114 3.32889 46.8579 3.09913 46.7509 2.91023C46.6439 2.72132 46.4936 2.57836 46.3 2.48135C46.1115 2.38434 45.8899 2.33584 45.6352 2.33584H44.8786V4.87846Z" fill="white"/>
<path d="M51.8646 6.28762V5.54475L51.7424 5.34562V3.93646C51.7424 3.73224 51.6787 3.57651 51.5513 3.4693C51.429 3.36208 51.2278 3.30847 50.9476 3.30847C50.7591 3.30847 50.5681 3.3391 50.3745 3.40037C50.1809 3.45653 50.0153 3.53567 49.8777 3.63778L49.3275 2.49667C49.5721 2.3435 49.865 2.22607 50.2063 2.14438C50.5477 2.06269 50.8814 2.02184 51.2074 2.02184C51.9258 2.02184 52.4811 2.18267 52.8734 2.50433C53.2707 2.82598 53.4694 3.33655 53.4694 4.03602V6.28762H51.8646ZM50.6801 6.3642C50.3388 6.3642 50.0535 6.30549 49.8242 6.18806C49.595 6.07063 49.4218 5.91491 49.3046 5.72089C49.1874 5.52177 49.1288 5.30223 49.1288 5.06226C49.1288 4.79166 49.1976 4.56191 49.3352 4.373C49.4727 4.18409 49.6816 4.04113 49.9618 3.94412C50.2471 3.84711 50.6063 3.79861 51.0393 3.79861H51.9105V4.63339H51.3144C51.131 4.63339 50.996 4.66402 50.9094 4.72529C50.8279 4.78145 50.7871 4.86825 50.7871 4.98568C50.7871 5.08268 50.8228 5.16437 50.8941 5.23075C50.9705 5.29202 51.0724 5.32265 51.1998 5.32265C51.317 5.32265 51.424 5.29202 51.5207 5.23075C51.6226 5.16437 51.6965 5.06226 51.7424 4.92441L51.964 5.43753C51.8978 5.74897 51.7576 5.98128 51.5437 6.13445C51.3297 6.28762 51.0419 6.3642 50.6801 6.3642Z" fill="white"/>
<path d="M56.2333 6.3642C55.6576 6.3642 55.2093 6.22635 54.8883 5.95065C54.5674 5.66983 54.4069 5.24096 54.4069 4.66402V1.15643H56.134V4.6487C56.134 4.77634 56.1671 4.8759 56.2333 4.94738C56.3046 5.01886 56.3912 5.0546 56.4931 5.0546C56.6409 5.0546 56.7708 5.01631 56.8829 4.93972L57.2955 6.14211C57.1631 6.21869 57.0026 6.27486 56.8141 6.31059C56.6307 6.34633 56.4371 6.3642 56.2333 6.3642ZM53.8337 3.59183V2.32818H56.9899V3.59183H53.8337Z" fill="white"/>
<path d="M60.2603 6.28762V5.54475L60.138 5.34562V3.93646C60.138 3.73224 60.0743 3.57651 59.947 3.4693C59.8247 3.36208 59.6235 3.30847 59.3433 3.30847C59.1548 3.30847 58.9637 3.3391 58.7701 3.40037C58.5765 3.45653 58.411 3.53567 58.2734 3.63778L57.7232 2.49667C57.9677 2.3435 58.2607 2.22607 58.602 2.14438C58.9433 2.06269 59.277 2.02184 59.6031 2.02184C60.3214 2.02184 60.8767 2.18267 61.269 2.50433C61.6664 2.82598 61.8651 3.33655 61.8651 4.03602V6.28762H60.2603ZM59.0758 6.3642C58.7345 6.3642 58.4492 6.30549 58.2199 6.18806C57.9907 6.07063 57.8174 5.91491 57.7003 5.72089C57.5831 5.52177 57.5245 5.30223 57.5245 5.06226C57.5245 4.79166 57.5933 4.56191 57.7308 4.373C57.8684 4.18409 58.0773 4.04113 58.3575 3.94412C58.6428 3.84711 59.0019 3.79861 59.435 3.79861H60.3062V4.63339H59.7101C59.5267 4.63339 59.3917 4.66402 59.3051 4.72529C59.2235 4.78145 59.1828 4.86825 59.1828 4.98568C59.1828 5.08268 59.2184 5.16437 59.2898 5.23075C59.3662 5.29202 59.4681 5.32265 59.5955 5.32265C59.7126 5.32265 59.8196 5.29202 59.9164 5.23075C60.0183 5.16437 60.0922 5.06226 60.138 4.92441L60.3596 5.43753C60.2934 5.74897 60.1533 5.98128 59.9393 6.13445C59.7254 6.28762 59.4375 6.3642 59.0758 6.3642Z" fill="white"/>
<path d="M66.9506 6.41015C66.5023 6.41015 66.0693 6.3591 65.6515 6.25698C65.2337 6.15487 64.8899 6.02212 64.6198 5.85874L65.2006 4.54148C65.4554 4.68955 65.7381 4.80953 66.0489 4.90143C66.3647 4.98823 66.6704 5.03163 66.9659 5.03163C67.1391 5.03163 67.2741 5.02142 67.3709 5.00099C67.4728 4.97546 67.5467 4.94228 67.5925 4.90143C67.6384 4.85548 67.6613 4.80187 67.6613 4.7406C67.6613 4.6436 67.6078 4.56701 67.5008 4.51085C67.3939 4.45469 67.2512 4.40874 67.0729 4.373C66.8997 4.33215 66.7086 4.29131 66.4997 4.25046C66.2909 4.20451 66.0794 4.1458 65.8655 4.07432C65.6566 4.00284 65.463 3.90838 65.2847 3.79095C65.1115 3.67352 64.9714 3.52035 64.8644 3.33144C64.7574 3.13743 64.7039 2.89746 64.7039 2.61154C64.7039 2.27968 64.7956 1.97844 64.979 1.70784C65.1675 1.43214 65.4452 1.21259 65.812 1.04921C66.1839 0.885832 66.6449 0.804141 67.1952 0.804141C67.5569 0.804141 67.9135 0.842434 68.265 0.919019C68.6166 0.995603 68.9324 1.11303 69.2126 1.27131L68.6701 2.58091C68.4051 2.44816 68.1479 2.3486 67.8982 2.28223C67.6537 2.21586 67.4142 2.18267 67.1799 2.18267C67.0067 2.18267 66.8691 2.19799 66.7672 2.22862C66.6653 2.25925 66.5915 2.3001 66.5456 2.35116C66.5048 2.40221 66.4845 2.45837 66.4845 2.51964C66.4845 2.61154 66.538 2.68558 66.6449 2.74174C66.7519 2.7928 66.892 2.83619 67.0652 2.87193C67.2436 2.90767 67.4372 2.94597 67.646 2.98681C67.86 3.02766 68.0714 3.08382 68.2803 3.1553C68.4892 3.22678 68.6802 3.32123 68.8535 3.43866C69.0318 3.55609 69.1744 3.70926 69.2814 3.89817C69.3884 4.08708 69.4419 4.32194 69.4419 4.60275C69.4419 4.92951 69.3476 5.23075 69.1591 5.50645C68.9757 5.77705 68.7006 5.9966 68.3338 6.16508C67.967 6.32846 67.5059 6.41015 66.9506 6.41015Z" fill="white"/>
<path d="M72.1718 6.3642C71.6929 6.3642 71.2675 6.2723 70.8956 6.0885C70.5237 5.90469 70.2307 5.64941 70.0168 5.32265C69.8079 4.99078 69.7034 4.61296 69.7034 4.18919C69.7034 3.76542 69.8079 3.39016 70.0168 3.0634C70.2307 2.73663 70.5237 2.48135 70.8956 2.29755C71.2675 2.11374 71.6929 2.02184 72.1718 2.02184C72.6813 2.02184 73.1168 2.13161 73.4786 2.35116C73.8403 2.5707 74.0899 2.87449 74.2275 3.26252L72.8901 3.92115C72.8035 3.72713 72.6965 3.58673 72.5692 3.49993C72.4469 3.41313 72.3119 3.36974 72.1641 3.36974C72.0368 3.36974 71.9171 3.40037 71.805 3.46164C71.698 3.5229 71.6114 3.61481 71.5452 3.73734C71.484 3.85477 71.4534 4.00539 71.4534 4.18919C71.4534 4.373 71.484 4.52617 71.5452 4.6487C71.6114 4.77124 71.698 4.86314 71.805 4.92441C71.9171 4.98568 72.0368 5.01631 72.1641 5.01631C72.3119 5.01631 72.4469 4.97291 72.5692 4.88612C72.6965 4.79932 72.8035 4.65891 72.8901 4.4649L74.2275 5.12353C74.0899 5.51156 73.8403 5.81535 73.4786 6.03489C73.1168 6.25443 72.6813 6.3642 72.1718 6.3642Z" fill="white"/>
<path d="M74.6266 6.28762V2.09843H76.3537V6.28762H74.6266ZM75.4902 1.76145C75.1743 1.76145 74.9221 1.67721 74.7336 1.50872C74.5451 1.34024 74.4509 1.1309 74.4509 0.880726C74.4509 0.630549 74.5451 0.421217 74.7336 0.25273C74.9221 0.0842433 75.1743 0 75.4902 0C75.806 0 76.0582 0.0791378 76.2467 0.237413C76.4352 0.395688 76.5295 0.599915 76.5295 0.850092C76.5295 1.11559 76.4352 1.33513 76.2467 1.50872C76.0582 1.67721 75.806 1.76145 75.4902 1.76145Z" fill="white"/>
<path d="M79.4271 6.3642C78.9176 6.3642 78.4718 6.26975 78.0897 6.08084C77.7127 5.89193 77.4198 5.63409 77.2109 5.30733C77.002 4.97546 76.8976 4.60275 76.8976 4.18919C76.8976 3.76542 76.9995 3.39016 77.2033 3.0634C77.4121 2.73663 77.6949 2.48135 78.0515 2.29755C78.4132 2.11374 78.8183 2.02184 79.2666 2.02184C79.6793 2.02184 80.0588 2.10353 80.4052 2.26691C80.7568 2.43029 81.037 2.67281 81.2459 2.99447C81.4598 3.31613 81.5668 3.71437 81.5668 4.18919C81.5668 4.25046 81.5643 4.31939 81.5592 4.39597C81.5541 4.46745 81.549 4.53382 81.5439 4.59509H78.3266V3.76032H80.6269L79.9773 3.98241C79.9773 3.81903 79.9467 3.68118 79.8856 3.56886C79.8296 3.45143 79.7506 3.36208 79.6487 3.30081C79.5468 3.23443 79.4245 3.20125 79.2819 3.20125C79.1392 3.20125 79.0144 3.23443 78.9074 3.30081C78.8055 3.36208 78.7266 3.45143 78.6705 3.56886C78.6145 3.68118 78.5865 3.81903 78.5865 3.98241V4.2428C78.5865 4.4215 78.6221 4.57467 78.6935 4.70231C78.7648 4.82995 78.8667 4.92696 78.9991 4.99333C79.1316 5.0546 79.2921 5.08524 79.4806 5.08524C79.6742 5.08524 79.8321 5.05971 79.9544 5.00865C80.0817 4.95759 80.2142 4.88101 80.3517 4.7789L81.2535 5.69026C81.0497 5.9098 80.7975 6.07829 80.4969 6.19572C80.2015 6.30804 79.8448 6.3642 79.4271 6.3642Z" fill="white"/>
<path d="M85.0158 2.02184C85.3367 2.02184 85.6271 2.08821 85.8869 2.22096C86.1468 2.3486 86.3506 2.55028 86.4983 2.82598C86.6511 3.10169 86.7276 3.45908 86.7276 3.89817V6.28762H85.0005V4.19685C85.0005 3.93646 84.9546 3.75266 84.8629 3.64544C84.7712 3.53312 84.6464 3.47695 84.4885 3.47695C84.3713 3.47695 84.2618 3.50503 84.1599 3.5612C84.0631 3.61225 83.9841 3.69905 83.923 3.82159C83.8669 3.94412 83.8389 4.11006 83.8389 4.31939V6.28762H82.1118V2.09843H83.7549V3.32378L83.4262 2.97149C83.5893 2.65494 83.8083 2.41753 84.0835 2.25925C84.3637 2.10098 84.6744 2.02184 85.0158 2.02184Z" fill="white"/>
<path d="M89.799 6.3642C89.3201 6.3642 88.8947 6.2723 88.5228 6.0885C88.1508 5.90469 87.8579 5.64941 87.6439 5.32265C87.4351 4.99078 87.3306 4.61296 87.3306 4.18919C87.3306 3.76542 87.4351 3.39016 87.6439 3.0634C87.8579 2.73663 88.1508 2.48135 88.5228 2.29755C88.8947 2.11374 89.3201 2.02184 89.799 2.02184C90.3084 2.02184 90.744 2.13161 91.1057 2.35116C91.4674 2.5707 91.7171 2.87449 91.8546 3.26252L90.5173 3.92115C90.4307 3.72713 90.3237 3.58673 90.1963 3.49993C90.0741 3.41313 89.9391 3.36974 89.7913 3.36974C89.6639 3.36974 89.5442 3.40037 89.4321 3.46164C89.3252 3.5229 89.2385 3.61481 89.1723 3.73734C89.1112 3.85477 89.0806 4.00539 89.0806 4.18919C89.0806 4.373 89.1112 4.52617 89.1723 4.6487C89.2385 4.77124 89.3252 4.86314 89.4321 4.92441C89.5442 4.98568 89.6639 5.01631 89.7913 5.01631C89.9391 5.01631 90.0741 4.97291 90.1963 4.88612C90.3237 4.79932 90.4307 4.65891 90.5173 4.4649L91.8546 5.12353C91.7171 5.51156 91.4674 5.81535 91.1057 6.03489C90.744 6.25443 90.3084 6.3642 89.799 6.3642Z" fill="white"/>
<path d="M94.5243 6.3642C94.0149 6.3642 93.5691 6.26975 93.187 6.08084C92.81 5.89193 92.5171 5.63409 92.3082 5.30733C92.0993 4.97546 91.9949 4.60275 91.9949 4.18919C91.9949 3.76542 92.0968 3.39016 92.3005 3.0634C92.5094 2.73663 92.7922 2.48135 93.1488 2.29755C93.5105 2.11374 93.9155 2.02184 94.3639 2.02184C94.7765 2.02184 95.1561 2.10353 95.5025 2.26691C95.854 2.43029 96.1342 2.67281 96.3431 2.99447C96.5571 3.31613 96.6641 3.71437 96.6641 4.18919C96.6641 4.25046 96.6615 4.31939 96.6564 4.39597C96.6513 4.46745 96.6462 4.53382 96.6412 4.59509H93.4239V3.76032H95.7241L95.0746 3.98241C95.0746 3.81903 95.044 3.68118 94.9829 3.56886C94.9268 3.45143 94.8479 3.36208 94.746 3.30081C94.6441 3.23443 94.5218 3.20125 94.3792 3.20125C94.2365 3.20125 94.1117 3.23443 94.0047 3.30081C93.9028 3.36208 93.8238 3.45143 93.7678 3.56886C93.7118 3.68118 93.6837 3.81903 93.6837 3.98241V4.2428C93.6837 4.4215 93.7194 4.57467 93.7907 4.70231C93.862 4.82995 93.9639 4.92696 94.0964 4.99333C94.2289 5.0546 94.3893 5.08524 94.5778 5.08524C94.7714 5.08524 94.9294 5.05971 95.0516 5.00865C95.179 4.95759 95.3115 4.88101 95.449 4.7789L96.3508 5.69026C96.147 5.9098 95.8948 6.07829 95.5942 6.19572C95.2987 6.30804 94.9421 6.3642 94.5243 6.3642Z" fill="white"/>
<path d="M99.6912 6.28762V2.3052C99.6912 1.764 99.8517 1.33258 100.173 1.01092C100.499 0.689264 100.96 0.528436 101.556 0.528436C101.739 0.528436 101.923 0.546305 102.106 0.582045C102.295 0.612679 102.453 0.663736 102.58 0.735215L102.167 1.9376C102.111 1.91207 102.05 1.88909 101.984 1.86867C101.918 1.84825 101.849 1.83804 101.777 1.83804C101.655 1.83804 101.556 1.87633 101.479 1.95291C101.403 2.0295 101.365 2.15204 101.365 2.32052V2.51964L101.418 3.23188V6.28762H99.6912ZM99.1181 3.59183V2.32818H102.274V3.59183H99.1181Z" fill="white"/>
<path d="M104.925 6.3642C104.451 6.3642 104.031 6.2723 103.664 6.0885C103.303 5.89959 103.017 5.64175 102.808 5.31499C102.599 4.98823 102.495 4.61296 102.495 4.18919C102.495 3.76542 102.599 3.39016 102.808 3.0634C103.017 2.73663 103.303 2.48135 103.664 2.29755C104.031 2.11374 104.451 2.02184 104.925 2.02184C105.399 2.02184 105.819 2.11374 106.186 2.29755C106.553 2.48135 106.838 2.73663 107.042 3.0634C107.251 3.39016 107.355 3.76542 107.355 4.18919C107.355 4.61296 107.251 4.98823 107.042 5.31499C106.838 5.64175 106.553 5.89959 106.186 6.0885C105.819 6.2723 105.399 6.3642 104.925 6.3642ZM104.925 5.01631C105.053 5.01631 105.167 4.98568 105.269 4.92441C105.371 4.86314 105.452 4.77124 105.514 4.6487C105.575 4.52106 105.605 4.36789 105.605 4.18919C105.605 4.00539 105.575 3.85477 105.514 3.73734C105.452 3.61481 105.371 3.5229 105.269 3.46164C105.167 3.40037 105.053 3.36974 104.925 3.36974C104.798 3.36974 104.683 3.40037 104.581 3.46164C104.479 3.5229 104.398 3.61481 104.337 3.73734C104.276 3.85477 104.245 4.00539 104.245 4.18919C104.245 4.36789 104.276 4.52106 104.337 4.6487C104.398 4.77124 104.479 4.86314 104.581 4.92441C104.683 4.98568 104.798 5.01631 104.925 5.01631Z" fill="white"/>
<path d="M107.896 6.28762V2.09843H109.539V3.36208L109.271 3.00213C109.399 2.67537 109.603 2.43029 109.883 2.26691C110.163 2.10353 110.499 2.02184 110.891 2.02184V3.55354C110.815 3.54333 110.746 3.53567 110.685 3.53056C110.629 3.52546 110.571 3.5229 110.509 3.5229C110.25 3.5229 110.036 3.59183 109.867 3.72968C109.704 3.86243 109.623 4.09474 109.623 4.42661V6.28762H107.896Z" fill="white"/>
<path d="M113.726 6.28762V0.926677H116.301C116.8 0.926677 117.231 1.00837 117.592 1.17175C117.959 1.33513 118.242 1.56999 118.441 1.87633C118.639 2.17756 118.739 2.53496 118.739 2.94852C118.739 3.36208 118.639 3.71947 118.441 4.02071C118.242 4.32194 117.959 4.5568 117.592 4.72529C117.231 4.88867 116.8 4.97036 116.301 4.97036H114.727L115.529 4.19685V6.28762H113.726ZM115.529 4.39597L114.727 3.57651H116.186C116.436 3.57651 116.619 3.52035 116.736 3.40803C116.859 3.2957 116.92 3.14253 116.92 2.94852C116.92 2.7545 116.859 2.60133 116.736 2.48901C116.619 2.37668 116.436 2.32052 116.186 2.32052H114.727L115.529 1.50106V4.39597Z" fill="white"/>
<path d="M119.351 6.28762V2.09843H120.994V3.36208L120.727 3.00213C120.854 2.67537 121.058 2.43029 121.338 2.26691C121.618 2.10353 121.955 2.02184 122.347 2.02184V3.55354C122.27 3.54333 122.202 3.53567 122.141 3.53056C122.085 3.52546 122.026 3.5229 121.965 3.5229C121.705 3.5229 121.491 3.59183 121.323 3.72968C121.16 3.86243 121.078 4.09474 121.078 4.42661V6.28762H119.351Z" fill="white"/>
<path d="M125.008 6.3642C124.534 6.3642 124.114 6.2723 123.747 6.0885C123.385 5.89959 123.1 5.64175 122.891 5.31499C122.682 4.98823 122.577 4.61296 122.577 4.18919C122.577 3.76542 122.682 3.39016 122.891 3.0634C123.1 2.73663 123.385 2.48135 123.747 2.29755C124.114 2.11374 124.534 2.02184 125.008 2.02184C125.481 2.02184 125.902 2.11374 126.269 2.29755C126.635 2.48135 126.921 2.73663 127.124 3.0634C127.333 3.39016 127.438 3.76542 127.438 4.18919C127.438 4.61296 127.333 4.98823 127.124 5.31499C126.921 5.64175 126.635 5.89959 126.269 6.0885C125.902 6.2723 125.481 6.3642 125.008 6.3642ZM125.008 5.01631C125.135 5.01631 125.25 4.98568 125.351 4.92441C125.453 4.86314 125.535 4.77124 125.596 4.6487C125.657 4.52106 125.688 4.36789 125.688 4.18919C125.688 4.00539 125.657 3.85477 125.596 3.73734C125.535 3.61481 125.453 3.5229 125.351 3.46164C125.25 3.40037 125.135 3.36974 125.008 3.36974C124.88 3.36974 124.766 3.40037 124.664 3.46164C124.562 3.5229 124.48 3.61481 124.419 3.73734C124.358 3.85477 124.327 4.00539 124.327 4.18919C124.327 4.36789 124.358 4.52106 124.419 4.6487C124.48 4.77124 124.562 4.86314 124.664 4.92441C124.766 4.98568 124.88 5.01631 125.008 5.01631Z" fill="white"/>
<path d="M128.169 6.28762V2.3052C128.169 1.764 128.33 1.33258 128.651 1.01092C128.977 0.689264 129.438 0.528436 130.034 0.528436C130.217 0.528436 130.401 0.546305 130.584 0.582045C130.773 0.612679 130.931 0.663736 131.058 0.735215L130.645 1.9376C130.589 1.91207 130.528 1.88909 130.462 1.86867C130.396 1.84825 130.327 1.83804 130.256 1.83804C130.133 1.83804 130.034 1.87633 129.958 1.95291C129.881 2.0295 129.843 2.15204 129.843 2.32052V2.51964L129.896 3.23188V6.28762H128.169ZM127.596 3.59183V2.32818H130.752V3.59183H127.596Z" fill="white"/>
<path d="M133.503 6.3642C132.993 6.3642 132.547 6.26975 132.165 6.08084C131.788 5.89193 131.495 5.63409 131.286 5.30733C131.078 4.97546 130.973 4.60275 130.973 4.18919C130.973 3.76542 131.075 3.39016 131.279 3.0634C131.488 2.73663 131.77 2.48135 132.127 2.29755C132.489 2.11374 132.894 2.02184 133.342 2.02184C133.755 2.02184 134.134 2.10353 134.481 2.26691C134.832 2.43029 135.113 2.67281 135.321 2.99447C135.535 3.31613 135.642 3.71437 135.642 4.18919C135.642 4.25046 135.64 4.31939 135.635 4.39597C135.63 4.46745 135.625 4.53382 135.619 4.59509H132.402V3.76032H134.702L134.053 3.98241C134.053 3.81903 134.022 3.68118 133.961 3.56886C133.905 3.45143 133.826 3.36208 133.724 3.30081C133.622 3.23443 133.5 3.20125 133.357 3.20125C133.215 3.20125 133.09 3.23443 132.983 3.30081C132.881 3.36208 132.802 3.45143 132.746 3.56886C132.69 3.68118 132.662 3.81903 132.662 3.98241V4.2428C132.662 4.4215 132.698 4.57467 132.769 4.70231C132.84 4.82995 132.942 4.92696 133.075 4.99333C133.207 5.0546 133.368 5.08524 133.556 5.08524C133.75 5.08524 133.908 5.05971 134.03 5.00865C134.157 4.95759 134.29 4.88101 134.427 4.7789L135.329 5.69026C135.125 5.9098 134.873 6.07829 134.572 6.19572C134.277 6.30804 133.92 6.3642 133.503 6.3642Z" fill="white"/>
<path d="M137.823 6.3642C137.466 6.3642 137.115 6.32591 136.768 6.24933C136.422 6.17274 136.142 6.07318 135.928 5.95065L136.401 4.80953C136.6 4.92696 136.829 5.01886 137.089 5.08524C137.354 5.15161 137.611 5.1848 137.861 5.1848C138.07 5.1848 138.21 5.16693 138.281 5.13119C138.358 5.09545 138.396 5.04694 138.396 4.98568C138.396 4.92441 138.353 4.88101 138.266 4.85548C138.179 4.82485 138.065 4.80187 137.922 4.78656C137.779 4.77124 137.622 4.75337 137.448 4.73295C137.28 4.70742 137.11 4.67168 136.936 4.62573C136.763 4.57978 136.605 4.51085 136.462 4.41895C136.32 4.32705 136.205 4.20451 136.119 4.05134C136.032 3.89306 135.989 3.69394 135.989 3.45398C135.989 3.18848 136.068 2.94852 136.226 2.73408C136.389 2.51964 136.628 2.3486 136.944 2.22096C137.265 2.08821 137.66 2.02184 138.128 2.02184C138.434 2.02184 138.74 2.04992 139.045 2.10608C139.351 2.16225 139.614 2.24904 139.833 2.36647L139.359 3.50759C139.145 3.39016 138.933 3.31102 138.725 3.27017C138.521 3.22422 138.33 3.20125 138.151 3.20125C137.932 3.20125 137.782 3.22167 137.7 3.26252C137.624 3.30336 137.586 3.34931 137.586 3.40037C137.586 3.46164 137.629 3.50759 137.716 3.53822C137.802 3.56886 137.917 3.59183 138.06 3.60715C138.202 3.62247 138.358 3.64289 138.526 3.66842C138.699 3.68884 138.87 3.72458 139.038 3.77564C139.211 3.82159 139.369 3.89051 139.512 3.98241C139.654 4.07432 139.769 4.1994 139.856 4.35768C139.942 4.51085 139.985 4.70742 139.985 4.94738C139.985 5.19756 139.906 5.43242 139.749 5.65196C139.591 5.8664 139.351 6.03999 139.03 6.17274C138.709 6.30038 138.307 6.3642 137.823 6.3642Z" fill="white"/>
<path d="M142.144 6.3642C141.787 6.3642 141.436 6.32591 141.089 6.24933C140.743 6.17274 140.462 6.07318 140.249 5.95065L140.722 4.80953C140.921 4.92696 141.15 5.01886 141.41 5.08524C141.675 5.15161 141.932 5.1848 142.182 5.1848C142.391 5.1848 142.531 5.16693 142.602 5.13119C142.679 5.09545 142.717 5.04694 142.717 4.98568C142.717 4.92441 142.674 4.88101 142.587 4.85548C142.5 4.82485 142.386 4.80187 142.243 4.78656C142.1 4.77124 141.942 4.75337 141.769 4.73295C141.601 4.70742 141.43 4.67168 141.257 4.62573C141.084 4.57978 140.926 4.51085 140.783 4.41895C140.641 4.32705 140.526 4.20451 140.44 4.05134C140.353 3.89306 140.31 3.69394 140.31 3.45398C140.31 3.18848 140.389 2.94852 140.547 2.73408C140.71 2.51964 140.949 2.3486 141.265 2.22096C141.586 2.08821 141.981 2.02184 142.449 2.02184C142.755 2.02184 143.061 2.04992 143.366 2.10608C143.672 2.16225 143.934 2.24904 144.154 2.36647L143.68 3.50759C143.466 3.39016 143.254 3.31102 143.045 3.27017C142.842 3.22422 142.651 3.20125 142.472 3.20125C142.253 3.20125 142.103 3.22167 142.021 3.26252C141.945 3.30336 141.907 3.34931 141.907 3.40037C141.907 3.46164 141.95 3.50759 142.037 3.53822C142.123 3.56886 142.238 3.59183 142.381 3.60715C142.523 3.62247 142.679 3.64289 142.847 3.66842C143.02 3.68884 143.191 3.72458 143.359 3.77564C143.532 3.82159 143.69 3.89051 143.833 3.98241C143.975 4.07432 144.09 4.1994 144.176 4.35768C144.263 4.51085 144.306 4.70742 144.306 4.94738C144.306 5.19756 144.227 5.43242 144.069 5.65196C143.912 5.8664 143.672 6.03999 143.351 6.17274C143.03 6.30038 142.628 6.3642 142.144 6.3642Z" fill="white"/>
<path d="M144.829 6.28762V2.09843H146.556V6.28762H144.829ZM145.693 1.76145C145.377 1.76145 145.125 1.67721 144.936 1.50872C144.748 1.34024 144.654 1.1309 144.654 0.880726C144.654 0.630549 144.748 0.421217 144.936 0.25273C145.125 0.0842433 145.377 0 145.693 0C146.009 0 146.261 0.0791378 146.449 0.237413C146.638 0.395688 146.732 0.599915 146.732 0.850092C146.732 1.11559 146.638 1.33513 146.449 1.50872C146.261 1.67721 146.009 1.76145 145.693 1.76145Z" fill="white"/>
<path d="M149.53 6.3642C149.057 6.3642 148.636 6.2723 148.269 6.0885C147.908 5.89959 147.622 5.64175 147.414 5.31499C147.205 4.98823 147.1 4.61296 147.1 4.18919C147.1 3.76542 147.205 3.39016 147.414 3.0634C147.622 2.73663 147.908 2.48135 148.269 2.29755C148.636 2.11374 149.057 2.02184 149.53 2.02184C150.004 2.02184 150.425 2.11374 150.791 2.29755C151.158 2.48135 151.443 2.73663 151.647 3.0634C151.856 3.39016 151.961 3.76542 151.961 4.18919C151.961 4.61296 151.856 4.98823 151.647 5.31499C151.443 5.64175 151.158 5.89959 150.791 6.0885C150.425 6.2723 150.004 6.3642 149.53 6.3642ZM149.53 5.01631C149.658 5.01631 149.772 4.98568 149.874 4.92441C149.976 4.86314 150.058 4.77124 150.119 4.6487C150.18 4.52106 150.211 4.36789 150.211 4.18919C150.211 4.00539 150.18 3.85477 150.119 3.73734C150.058 3.61481 149.976 3.5229 149.874 3.46164C149.772 3.40037 149.658 3.36974 149.53 3.36974C149.403 3.36974 149.288 3.40037 149.187 3.46164C149.085 3.5229 149.003 3.61481 148.942 3.73734C148.881 3.85477 148.85 4.00539 148.85 4.18919C148.85 4.36789 148.881 4.52106 148.942 4.6487C149.003 4.77124 149.085 4.86314 149.187 4.92441C149.288 4.98568 149.403 5.01631 149.53 5.01631Z" fill="white"/>
<path d="M155.405 2.02184C155.726 2.02184 156.016 2.08821 156.276 2.22096C156.536 2.3486 156.74 2.55028 156.888 2.82598C157.04 3.10169 157.117 3.45908 157.117 3.89817V6.28762H155.39V4.19685C155.39 3.93646 155.344 3.75266 155.252 3.64544C155.16 3.53312 155.036 3.47695 154.878 3.47695C154.761 3.47695 154.651 3.50503 154.549 3.5612C154.452 3.61225 154.373 3.69905 154.312 3.82159C154.256 3.94412 154.228 4.11006 154.228 4.31939V6.28762H152.501V2.09843H154.144V3.32378L153.815 2.97149C153.979 2.65494 154.198 2.41753 154.473 2.25925C154.753 2.10098 155.064 2.02184 155.405 2.02184Z" fill="white"/>
<path d="M160.396 6.28762V5.54475L160.274 5.34562V3.93646C160.274 3.73224 160.21 3.57651 160.083 3.4693C159.961 3.36208 159.76 3.30847 159.479 3.30847C159.291 3.30847 159.1 3.3391 158.906 3.40037C158.713 3.45653 158.547 3.53567 158.409 3.63778L157.859 2.49667C158.104 2.3435 158.397 2.22607 158.738 2.14438C159.079 2.06269 159.413 2.02184 159.739 2.02184C160.457 2.02184 161.013 2.18267 161.405 2.50433C161.802 2.82598 162.001 3.33655 162.001 4.03602V6.28762H160.396ZM159.212 6.3642C158.87 6.3642 158.585 6.30549 158.356 6.18806C158.127 6.07063 157.953 5.91491 157.836 5.72089C157.719 5.52177 157.661 5.30223 157.661 5.06226C157.661 4.79166 157.729 4.56191 157.867 4.373C158.004 4.18409 158.213 4.04113 158.493 3.94412C158.779 3.84711 159.138 3.79861 159.571 3.79861H160.442V4.63339H159.846C159.663 4.63339 159.528 4.66402 159.441 4.72529C159.36 4.78145 159.319 4.86825 159.319 4.98568C159.319 5.08268 159.354 5.16437 159.426 5.23075C159.502 5.29202 159.604 5.32265 159.731 5.32265C159.849 5.32265 159.956 5.29202 160.052 5.23075C160.154 5.16437 160.228 5.06226 160.274 4.92441L160.496 5.43753C160.429 5.74897 160.289 5.98128 160.075 6.13445C159.861 6.28762 159.574 6.3642 159.212 6.3642Z" fill="white"/>
<path d="M162.748 6.28762V0.605021H164.475V6.28762H162.748Z" fill="white"/>
</svg>
