<svg width="351" height="234" viewBox="0 0 351 234" fill="none" xmlns="http://www.w3.org/2000/svg">
<path d="M15.6998 4.88612V6.28762H11.4127V5.17714L13.3461 3.38505C13.5142 3.22678 13.6263 3.09148 13.6823 2.97915C13.7384 2.86683 13.7664 2.75706 13.7664 2.64984C13.7664 2.51709 13.7205 2.41498 13.6288 2.3435C13.5422 2.26691 13.4148 2.22862 13.2467 2.22862C13.0837 2.22862 12.9309 2.27202 12.7882 2.35881C12.6456 2.44561 12.536 2.56815 12.4596 2.72642L11.0993 2.04482C11.3031 1.66189 11.6012 1.36066 11.9934 1.14111C12.3857 0.916466 12.8595 0.804141 13.4148 0.804141C13.8377 0.804141 14.2122 0.873068 14.5382 1.01092C14.8643 1.14877 15.119 1.34534 15.3024 1.60062C15.4858 1.85591 15.5775 2.14948 15.5775 2.48135C15.5775 2.77748 15.5138 3.05574 15.3865 3.31613C15.2642 3.57141 15.0222 3.86243 14.6605 4.18919L13.8963 4.88612H15.6998Z" fill="white"/>
<path d="M19.134 2.02184C19.6486 2.02184 20.0613 2.17756 20.372 2.48901C20.6879 2.80045 20.8458 3.27017 20.8458 3.89817V6.28762H19.1188V4.19685C19.1188 3.71692 18.9481 3.47695 18.6068 3.47695C18.4132 3.47695 18.2552 3.54588 18.133 3.68373C18.0158 3.81648 17.9572 4.02837 17.9572 4.31939V6.28762H16.2301V2.09843H17.8731V2.51198C18.0362 2.3486 18.2247 2.22607 18.4386 2.14438C18.6526 2.06269 18.8844 2.02184 19.134 2.02184Z" fill="white"/>
<path d="M26.2939 0.605021V6.28762H24.6509V5.94299C24.4012 6.2238 24.0191 6.3642 23.5046 6.3642C23.1378 6.3642 22.799 6.27741 22.4882 6.10382C22.1825 5.92512 21.938 5.66983 21.7546 5.33797C21.5763 5.0061 21.4871 4.62317 21.4871 4.18919C21.4871 3.75521 21.5763 3.37484 21.7546 3.04808C21.938 2.71621 22.1825 2.46348 22.4882 2.28989C22.799 2.11119 23.1378 2.02184 23.5046 2.02184C23.9682 2.02184 24.3223 2.14182 24.5668 2.38179V0.605021H26.2939ZM23.9172 5.01631C24.1159 5.01631 24.279 4.94483 24.4063 4.80187C24.5337 4.65381 24.5974 4.44958 24.5974 4.18919C24.5974 3.9288 24.5337 3.72713 24.4063 3.58417C24.279 3.44121 24.1159 3.36974 23.9172 3.36974C23.7185 3.36974 23.5555 3.44121 23.4282 3.58417C23.3008 3.72713 23.2371 3.9288 23.2371 4.18919C23.2371 4.44958 23.3008 4.65381 23.4282 4.80187C23.5555 4.94483 23.7185 5.01631 23.9172 5.01631Z" fill="white"/>
<path d="M31.9786 0.926677C32.4727 0.926677 32.9032 1.00837 33.2701 1.17175C33.6369 1.33513 33.9196 1.56999 34.1183 1.87633C34.317 2.18267 34.4163 2.54007 34.4163 2.94852C34.4163 3.35697 34.317 3.71437 34.1183 4.02071C33.9196 4.32705 33.6369 4.56191 33.2701 4.72529C32.9032 4.88867 32.4727 4.97036 31.9786 4.97036H31.2067V6.28762H29.4032V0.926677H31.9786ZM31.8639 3.57651C32.1085 3.57651 32.2919 3.5229 32.4142 3.41569C32.5364 3.30336 32.5976 3.14764 32.5976 2.94852C32.5976 2.7494 32.5364 2.59623 32.4142 2.48901C32.2919 2.37668 32.1085 2.32052 31.8639 2.32052H31.2067V3.57651H31.8639Z" fill="white"/>
<path d="M35.0289 0.605021H36.756V6.28762H35.0289V0.605021Z" fill="white"/>
<path d="M39.3938 2.02184C40.1274 2.02184 40.6878 2.18777 41.075 2.51964C41.4622 2.8464 41.6558 3.35187 41.6558 4.03602V6.28762H40.051V5.73621C39.8523 6.15487 39.4575 6.3642 38.8665 6.3642C38.5354 6.3642 38.2526 6.30804 38.0182 6.19572C37.789 6.07829 37.6132 5.92256 37.491 5.72855C37.3738 5.52943 37.3152 5.30733 37.3152 5.06226C37.3152 4.6487 37.4731 4.3347 37.789 4.12027C38.1049 3.90583 38.5838 3.79861 39.2257 3.79861H39.9211C39.865 3.47185 39.6027 3.30847 39.134 3.30847C38.9455 3.30847 38.7544 3.3391 38.5608 3.40037C38.3672 3.45653 38.2017 3.53567 38.0641 3.63778L37.5139 2.49667C37.7533 2.3486 38.0412 2.23373 38.3774 2.15204C38.7188 2.06524 39.0576 2.02184 39.3938 2.02184ZM39.3862 5.32265C39.5084 5.32265 39.618 5.28946 39.7148 5.22309C39.8116 5.15672 39.8829 5.05716 39.9287 4.92441V4.63339H39.5008C39.1493 4.63339 38.9735 4.75082 38.9735 4.98568C38.9735 5.08268 39.0092 5.16437 39.0805 5.23075C39.1569 5.29202 39.2588 5.32265 39.3862 5.32265Z" fill="white"/>
<path d="M44.7236 6.3642C44.2498 6.3642 43.8244 6.2723 43.4474 6.0885C43.0755 5.90469 42.7825 5.64686 42.5685 5.31499C42.3597 4.98312 42.2552 4.60786 42.2552 4.18919C42.2552 3.77053 42.3597 3.39782 42.5685 3.07105C42.7825 2.73919 43.0755 2.48135 43.4474 2.29755C43.8244 2.11374 44.2498 2.02184 44.7236 2.02184C45.233 2.02184 45.6686 2.13161 46.0303 2.35116C46.392 2.5707 46.6417 2.87449 46.7792 3.26252L45.4419 3.92115C45.2789 3.55354 45.0369 3.36974 44.7159 3.36974C44.5121 3.36974 44.3415 3.44121 44.2039 3.58417C44.0714 3.72713 44.0052 3.9288 44.0052 4.18919C44.0052 4.45469 44.0714 4.65891 44.2039 4.80187C44.3415 4.94483 44.5121 5.01631 44.7159 5.01631C45.0369 5.01631 45.2789 4.83251 45.4419 4.4649L46.7792 5.12353C46.6417 5.51156 46.392 5.81535 46.0303 6.03489C45.6686 6.25443 45.233 6.3642 44.7236 6.3642Z" fill="white"/>
<path d="M51.5887 4.18919C51.5887 4.21472 51.581 4.35002 51.5658 4.59509H48.6618C48.723 4.75337 48.8249 4.8759 48.9675 4.9627C49.1102 5.04439 49.2885 5.08524 49.5024 5.08524C49.6859 5.08524 49.8387 5.06226 49.961 5.01631C50.0883 4.97036 50.2259 4.89122 50.3736 4.7789L51.2754 5.69026C50.8678 6.13955 50.259 6.3642 49.449 6.3642C48.9446 6.3642 48.5014 6.2723 48.1193 6.0885C47.7372 5.89959 47.4417 5.6392 47.2328 5.30733C47.0239 4.97546 46.9195 4.60275 46.9195 4.18919C46.9195 3.77053 47.0214 3.39782 47.2252 3.07105C47.434 2.73919 47.7168 2.48135 48.0734 2.29755C48.4351 2.11374 48.8401 2.02184 49.2885 2.02184C49.7113 2.02184 50.096 2.10608 50.4424 2.27457C50.7939 2.44306 51.0716 2.69068 51.2754 3.01744C51.4842 3.34421 51.5887 3.73479 51.5887 4.18919ZM49.3038 3.20125C49.1254 3.20125 48.9777 3.24975 48.8605 3.34676C48.7433 3.44377 48.6669 3.58162 48.6313 3.76032H49.9762C49.9406 3.58673 49.8642 3.45143 49.747 3.35442C49.6298 3.2523 49.4821 3.20125 49.3038 3.20125Z" fill="white"/>
<path d="M56.6333 6.3642C56.1697 6.3642 55.7519 6.2723 55.38 6.0885C55.0132 5.89959 54.7254 5.64175 54.5165 5.31499C54.3076 4.98312 54.2032 4.60786 54.2032 4.18919C54.2032 3.77053 54.3076 3.39782 54.5165 3.07105C54.7254 2.73919 55.0132 2.48135 55.38 2.29755C55.7519 2.11374 56.1697 2.02184 56.6333 2.02184C57.102 2.02184 57.5198 2.11374 57.8866 2.29755C58.2585 2.48135 58.5463 2.73919 58.7501 3.07105C58.959 3.39782 59.0634 3.77053 59.0634 4.18919C59.0634 4.60786 58.959 4.98312 58.7501 5.31499C58.5463 5.64175 58.2585 5.89959 57.8866 6.0885C57.5198 6.2723 57.102 6.3642 56.6333 6.3642ZM56.6333 5.01631C56.832 5.01631 56.995 4.94483 57.1224 4.80187C57.2498 4.65381 57.3134 4.44958 57.3134 4.18919C57.3134 3.9288 57.2498 3.72713 57.1224 3.58417C56.995 3.44121 56.832 3.36974 56.6333 3.36974C56.4346 3.36974 56.2716 3.44121 56.1442 3.58417C56.0169 3.72713 55.9532 3.9288 55.9532 4.18919C55.9532 4.44958 56.0169 4.65381 56.1442 4.80187C56.2716 4.94483 56.4346 5.01631 56.6333 5.01631Z" fill="white"/>
<path d="M62.5079 2.02184C63.0225 2.02184 63.4351 2.17756 63.7459 2.48901C64.0618 2.80045 64.2197 3.27017 64.2197 3.89817V6.28762H62.4926V4.19685C62.4926 3.71692 62.322 3.47695 61.9806 3.47695C61.787 3.47695 61.6291 3.54588 61.5068 3.68373C61.3897 3.81648 61.3311 4.02837 61.3311 4.31939V6.28762H59.604V2.09843H61.247V2.51198C61.41 2.3486 61.5985 2.22607 61.8125 2.14438C62.0265 2.06269 62.2583 2.02184 62.5079 2.02184Z" fill="white"/>
<path d="M68.4759 2.32818H66.9093V0.926677H71.846V2.32818H70.2794V6.28762H68.4759V2.32818Z" fill="white"/>
<path d="M75.1648 2.02184C75.6794 2.02184 76.0921 2.17756 76.4028 2.48901C76.7187 2.80045 76.8766 3.27017 76.8766 3.89817V6.28762H75.1496V4.19685C75.1496 3.71692 74.9789 3.47695 74.6376 3.47695C74.444 3.47695 74.286 3.54588 74.1638 3.68373C74.0466 3.81648 73.988 4.02837 73.988 4.31939V6.28762H72.2609V0.605021H73.988V2.4354C74.309 2.15969 74.7012 2.02184 75.1648 2.02184Z" fill="white"/>
<path d="M82.1489 4.18919C82.1489 4.21472 82.1413 4.35002 82.126 4.59509H79.2221C79.2832 4.75337 79.3851 4.8759 79.5277 4.9627C79.6704 5.04439 79.8487 5.08524 80.0627 5.08524C80.2461 5.08524 80.3989 5.06226 80.5212 5.01631C80.6486 4.97036 80.7861 4.89122 80.9338 4.7789L81.8356 5.69026C81.428 6.13955 80.8192 6.3642 80.0092 6.3642C79.5048 6.3642 79.0616 6.2723 78.6795 6.0885C78.2974 5.89959 78.0019 5.6392 77.793 5.30733C77.5841 4.97546 77.4797 4.60275 77.4797 4.18919C77.4797 3.77053 77.5816 3.39782 77.7854 3.07105C77.9942 2.73919 78.277 2.48135 78.6336 2.29755C78.9953 2.11374 79.4004 2.02184 79.8487 2.02184C80.2715 2.02184 80.6562 2.10608 81.0026 2.27457C81.3541 2.44306 81.6318 2.69068 81.8356 3.01744C82.0445 3.34421 82.1489 3.73479 82.1489 4.18919ZM79.864 3.20125C79.6857 3.20125 79.5379 3.24975 79.4207 3.34676C79.3036 3.44377 79.2271 3.58162 79.1915 3.76032H80.5365C80.5008 3.58673 80.4244 3.45143 80.3072 3.35442C80.19 3.2523 80.0423 3.20125 79.864 3.20125Z" fill="white"/>
<path d="M87.3617 0.926677V6.28762H85.5582V2.28989H84.6411V0.926677H87.3617Z" fill="white"/>
<path d="M93.2075 5.3686H92.4968V6.28762H90.7468V5.3686H87.9728V4.21983L90.2424 0.926677H92.0918L90.0743 3.9671H90.8003V3.14764H92.4968V3.9671H93.2075V5.3686Z" fill="white"/>
<path d="M96.7365 6.14211C96.4767 6.29017 96.1226 6.3642 95.6743 6.3642C95.0884 6.3642 94.6375 6.2238 94.3217 5.94299C94.0058 5.65707 93.8479 5.23075 93.8479 4.66402V3.59183H93.2747V2.32818H93.8479V1.15643H95.5749V2.32818H96.4308V3.59183H95.5749V4.6487C95.5749 4.77634 95.608 4.8759 95.6743 4.94738C95.7405 5.01886 95.8271 5.0546 95.9341 5.0546C96.0818 5.0546 96.2118 5.01631 96.3238 4.93972L96.7365 6.14211Z" fill="white"/>
<path d="M100.076 2.02184C100.59 2.02184 101.003 2.17756 101.314 2.48901C101.63 2.80045 101.788 3.27017 101.788 3.89817V6.28762H100.06V4.19685C100.06 3.71692 99.8898 3.47695 99.5484 3.47695C99.3548 3.47695 99.1969 3.54588 99.0746 3.68373C98.9575 3.81648 98.8989 4.02837 98.8989 4.31939V6.28762H97.1718V0.605021H98.8989V2.4354C99.2198 2.15969 99.6121 2.02184 100.076 2.02184Z" fill="white"/>
<path d="M108.42 3.46164H109.987V5.72855C109.671 5.94809 109.304 6.11658 108.886 6.23401C108.469 6.35144 108.059 6.41015 107.656 6.41015C107.086 6.41015 106.574 6.29272 106.12 6.05786C105.667 5.8179 105.31 5.48603 105.05 5.06226C104.796 4.63339 104.668 4.14835 104.668 3.60715C104.668 3.06595 104.796 2.58346 105.05 2.15969C105.31 1.73082 105.669 1.39895 106.128 1.16409C106.591 0.924124 107.114 0.804141 107.694 0.804141C108.219 0.804141 108.688 0.89349 109.1 1.07219C109.518 1.24578 109.865 1.50106 110.14 1.83804L108.986 2.85662C108.65 2.46348 108.25 2.26691 107.786 2.26691C107.389 2.26691 107.073 2.3869 106.838 2.62686C106.604 2.86683 106.487 3.19359 106.487 3.60715C106.487 4.0105 106.602 4.3347 106.831 4.57978C107.065 4.82485 107.376 4.94738 107.763 4.94738C107.992 4.94738 108.211 4.90399 108.42 4.81719V3.46164Z" fill="white"/>
<path d="M112.345 2.55028C112.651 2.19799 113.101 2.02184 113.698 2.02184V3.55354C113.56 3.53312 113.433 3.5229 113.315 3.5229C112.724 3.5229 112.429 3.82414 112.429 4.42661V6.28762H110.702V2.09843H112.345V2.55028Z" fill="white"/>
<path d="M118.597 4.18919C118.597 4.21472 118.59 4.35002 118.574 4.59509H115.67C115.732 4.75337 115.833 4.8759 115.976 4.9627C116.119 5.04439 116.297 5.08524 116.511 5.08524C116.694 5.08524 116.847 5.06226 116.97 5.01631C117.097 4.97036 117.234 4.89122 117.382 4.7789L118.284 5.69026C117.876 6.13955 117.268 6.3642 116.458 6.3642C115.953 6.3642 115.51 6.2723 115.128 6.0885C114.746 5.89959 114.45 5.6392 114.241 5.30733C114.033 4.97546 113.928 4.60275 113.928 4.18919C113.928 3.77053 114.03 3.39782 114.234 3.07105C114.443 2.73919 114.725 2.48135 115.082 2.29755C115.444 2.11374 115.849 2.02184 116.297 2.02184C116.72 2.02184 117.105 2.10608 117.451 2.27457C117.803 2.44306 118.08 2.69068 118.284 3.01744C118.493 3.34421 118.597 3.73479 118.597 4.18919ZM116.312 3.20125C116.134 3.20125 115.986 3.24975 115.869 3.34676C115.752 3.44377 115.676 3.58162 115.64 3.76032H116.985C116.949 3.58673 116.873 3.45143 116.756 3.35442C116.638 3.2523 116.491 3.20125 116.312 3.20125Z" fill="white"/>
<path d="M123.59 4.18919C123.59 4.21472 123.582 4.35002 123.567 4.59509H120.663C120.724 4.75337 120.826 4.8759 120.969 4.9627C121.111 5.04439 121.29 5.08524 121.504 5.08524C121.687 5.08524 121.84 5.06226 121.962 5.01631C122.09 4.97036 122.227 4.89122 122.375 4.7789L123.277 5.69026C122.869 6.13955 122.26 6.3642 121.45 6.3642C120.946 6.3642 120.503 6.2723 120.12 6.0885C119.738 5.89959 119.443 5.6392 119.234 5.30733C119.025 4.97546 118.921 4.60275 118.921 4.18919C118.921 3.77053 119.023 3.39782 119.226 3.07105C119.435 2.73919 119.718 2.48135 120.075 2.29755C120.436 2.11374 120.841 2.02184 121.29 2.02184C121.713 2.02184 122.097 2.10608 122.444 2.27457C122.795 2.44306 123.073 2.69068 123.277 3.01744C123.485 3.34421 123.59 3.73479 123.59 4.18919ZM121.305 3.20125C121.127 3.20125 120.979 3.24975 120.862 3.34676C120.745 3.44377 120.668 3.58162 120.632 3.76032H121.977C121.942 3.58673 121.865 3.45143 121.748 3.35442C121.631 3.2523 121.483 3.20125 121.305 3.20125Z" fill="white"/>
<path d="M127.039 2.02184C127.553 2.02184 127.966 2.17756 128.277 2.48901C128.593 2.80045 128.751 3.27017 128.751 3.89817V6.28762H127.024V4.19685C127.024 3.71692 126.853 3.47695 126.512 3.47695C126.318 3.47695 126.16 3.54588 126.038 3.68373C125.921 3.81648 125.862 4.02837 125.862 4.31939V6.28762H124.135V2.09843H125.778V2.51198C125.941 2.3486 126.129 2.22607 126.343 2.14438C126.557 2.06269 126.789 2.02184 127.039 2.02184Z" fill="white"/>
<path d="M132.29 2.02184C132.657 2.02184 132.993 2.11119 133.299 2.28989C133.609 2.46348 133.854 2.71621 134.032 3.04808C134.216 3.37484 134.307 3.75521 134.307 4.18919C134.307 4.62317 134.216 5.0061 134.032 5.33797C133.854 5.66983 133.609 5.92512 133.299 6.10382C132.993 6.27741 132.657 6.3642 132.29 6.3642C131.775 6.3642 131.393 6.2238 131.144 5.94299V6.28762H129.501V0.605021H131.228V2.38179C131.472 2.14182 131.826 2.02184 132.29 2.02184ZM131.877 5.01631C132.076 5.01631 132.239 4.94483 132.366 4.80187C132.494 4.65381 132.557 4.44958 132.557 4.18919C132.557 3.9288 132.494 3.72713 132.366 3.58417C132.239 3.44121 132.076 3.36974 131.877 3.36974C131.679 3.36974 131.516 3.44121 131.388 3.58417C131.261 3.72713 131.197 3.9288 131.197 4.18919C131.197 4.44958 131.261 4.65381 131.388 4.80187C131.516 4.94483 131.679 5.01631 131.877 5.01631Z" fill="white"/>
<path d="M136.619 2.02184C137.353 2.02184 137.913 2.18777 138.301 2.51964C138.688 2.8464 138.881 3.35187 138.881 4.03602V6.28762H137.277V5.73621C137.078 6.15487 136.683 6.3642 136.092 6.3642C135.761 6.3642 135.478 6.30804 135.244 6.19572C135.015 6.07829 134.839 5.92256 134.716 5.72855C134.599 5.52943 134.541 5.30733 134.541 5.06226C134.541 4.6487 134.699 4.3347 135.015 4.12027C135.33 3.90583 135.809 3.79861 136.451 3.79861H137.147C137.091 3.47185 136.828 3.30847 136.36 3.30847C136.171 3.30847 135.98 3.3391 135.786 3.40037C135.593 3.45653 135.427 3.53567 135.29 3.63778L134.739 2.49667C134.979 2.3486 135.267 2.23373 135.603 2.15204C135.944 2.06524 136.283 2.02184 136.619 2.02184ZM136.612 5.32265C136.734 5.32265 136.843 5.28946 136.94 5.22309C137.037 5.15672 137.108 5.05716 137.154 4.92441V4.63339H136.726C136.375 4.63339 136.199 4.75082 136.199 4.98568C136.199 5.08268 136.235 5.16437 136.306 5.23075C136.382 5.29202 136.484 5.32265 136.612 5.32265Z" fill="white"/>
<path d="M141.263 6.3642C140.906 6.3642 140.555 6.32591 140.209 6.24933C139.862 6.17274 139.582 6.07318 139.368 5.95065L139.842 4.80953C140.035 4.92696 140.265 5.01886 140.529 5.08524C140.794 5.15161 141.052 5.1848 141.301 5.1848C141.5 5.1848 141.638 5.16948 141.714 5.13885C141.796 5.10311 141.836 5.05205 141.836 4.98568C141.836 4.9193 141.785 4.87335 141.683 4.84782C141.587 4.8223 141.426 4.79677 141.202 4.77124C140.861 4.73039 140.57 4.67934 140.331 4.61807C140.091 4.55169 139.88 4.42661 139.697 4.2428C139.518 4.059 139.429 3.79606 139.429 3.45398C139.429 3.18338 139.511 2.94086 139.674 2.72642C139.837 2.51198 140.079 2.34094 140.4 2.2133C140.726 2.08566 141.115 2.02184 141.569 2.02184C141.885 2.02184 142.193 2.05247 142.493 2.11374C142.799 2.1699 143.059 2.25415 143.273 2.36647L142.799 3.50759C142.432 3.30336 142.03 3.20125 141.592 3.20125C141.215 3.20125 141.026 3.26762 141.026 3.40037C141.026 3.46674 141.077 3.51525 141.179 3.54588C141.281 3.57141 141.441 3.59694 141.66 3.62247C142.002 3.66331 142.29 3.71692 142.524 3.78329C142.763 3.84967 142.972 3.97476 143.151 4.15856C143.334 4.34236 143.426 4.6053 143.426 4.94738C143.426 5.20777 143.344 5.44519 143.181 5.65962C143.018 5.87406 142.774 6.0451 142.448 6.17274C142.122 6.30038 141.727 6.3642 141.263 6.3642Z" fill="white"/>
<path d="M148.396 4.18919C148.396 4.21472 148.389 4.35002 148.373 4.59509H145.469C145.531 4.75337 145.632 4.8759 145.775 4.9627C145.918 5.04439 146.096 5.08524 146.31 5.08524C146.493 5.08524 146.646 5.06226 146.769 5.01631C146.896 4.97036 147.033 4.89122 147.181 4.7789L148.083 5.69026C147.675 6.13955 147.067 6.3642 146.257 6.3642C145.752 6.3642 145.309 6.2723 144.927 6.0885C144.545 5.89959 144.249 5.6392 144.04 5.30733C143.832 4.97546 143.727 4.60275 143.727 4.18919C143.727 3.77053 143.829 3.39782 144.033 3.07105C144.242 2.73919 144.524 2.48135 144.881 2.29755C145.243 2.11374 145.648 2.02184 146.096 2.02184C146.519 2.02184 146.904 2.10608 147.25 2.27457C147.602 2.44306 147.879 2.69068 148.083 3.01744C148.292 3.34421 148.396 3.73479 148.396 4.18919ZM146.111 3.20125C145.933 3.20125 145.785 3.24975 145.668 3.34676C145.551 3.44377 145.475 3.58162 145.439 3.76032H146.784C146.748 3.58673 146.672 3.45143 146.555 3.35442C146.437 3.2523 146.29 3.20125 146.111 3.20125Z" fill="white"/>
<path d="M148.729 0.926677H150.181L150.066 3.22422H148.844L148.729 0.926677Z" fill="white"/>
<path d="M152.442 6.3642C152.086 6.3642 151.734 6.32591 151.388 6.24933C151.041 6.17274 150.761 6.07318 150.547 5.95065L151.021 4.80953C151.215 4.92696 151.444 5.01886 151.709 5.08524C151.974 5.15161 152.231 5.1848 152.481 5.1848C152.679 5.1848 152.817 5.16948 152.893 5.13885C152.975 5.10311 153.016 5.05205 153.016 4.98568C153.016 4.9193 152.965 4.87335 152.863 4.84782C152.766 4.8223 152.605 4.79677 152.381 4.77124C152.04 4.73039 151.75 4.67934 151.51 4.61807C151.271 4.55169 151.059 4.42661 150.876 4.2428C150.698 4.059 150.608 3.79606 150.608 3.45398C150.608 3.18338 150.69 2.94086 150.853 2.72642C151.016 2.51198 151.258 2.34094 151.579 2.2133C151.905 2.08566 152.295 2.02184 152.748 2.02184C153.064 2.02184 153.372 2.05247 153.673 2.11374C153.978 2.1699 154.238 2.25415 154.452 2.36647L153.978 3.50759C153.612 3.30336 153.209 3.20125 152.771 3.20125C152.394 3.20125 152.206 3.26762 152.206 3.40037C152.206 3.46674 152.256 3.51525 152.358 3.54588C152.46 3.57141 152.621 3.59694 152.84 3.62247C153.181 3.66331 153.469 3.71692 153.703 3.78329C153.943 3.84967 154.152 3.97476 154.33 4.15856C154.513 4.34236 154.605 4.6053 154.605 4.94738C154.605 5.20777 154.524 5.44519 154.361 5.65962C154.198 5.87406 153.953 6.0451 153.627 6.17274C153.301 6.30038 152.906 6.3642 152.442 6.3642Z" fill="white"/>
<path d="M160.239 6.41015C159.673 6.41015 159.164 6.29272 158.711 6.05786C158.257 5.8179 157.901 5.48603 157.641 5.06226C157.386 4.63339 157.259 4.14835 157.259 3.60715C157.259 3.06595 157.386 2.58346 157.641 2.15969C157.901 1.73082 158.257 1.39895 158.711 1.16409C159.164 0.924124 159.673 0.804141 160.239 0.804141C160.759 0.804141 161.222 0.896043 161.63 1.07985C162.037 1.26365 162.374 1.52914 162.639 1.87633L161.5 2.89491C161.169 2.47624 160.779 2.26691 160.331 2.26691C159.954 2.26691 159.651 2.38945 159.421 2.63452C159.192 2.87449 159.077 3.1987 159.077 3.60715C159.077 4.0156 159.192 4.34236 159.421 4.58743C159.651 4.8274 159.954 4.94738 160.331 4.94738C160.779 4.94738 161.169 4.73805 161.5 4.31939L162.639 5.33797C162.374 5.68515 162.037 5.95065 161.63 6.13445C161.222 6.31825 160.759 6.41015 160.239 6.41015Z" fill="white"/>
<path d="M164.749 2.55028C165.054 2.19799 165.505 2.02184 166.101 2.02184V3.55354C165.964 3.53312 165.836 3.5229 165.719 3.5229C165.128 3.5229 164.833 3.82414 164.833 4.42661V6.28762H163.106V2.09843H164.749V2.55028Z" fill="white"/>
<path d="M171.001 4.18919C171.001 4.21472 170.994 4.35002 170.978 4.59509H168.074C168.135 4.75337 168.237 4.8759 168.38 4.9627C168.523 5.04439 168.701 5.08524 168.915 5.08524C169.098 5.08524 169.251 5.06226 169.373 5.01631C169.501 4.97036 169.638 4.89122 169.786 4.7789L170.688 5.69026C170.28 6.13955 169.671 6.3642 168.861 6.3642C168.357 6.3642 167.914 6.2723 167.532 6.0885C167.15 5.89959 166.854 5.6392 166.645 5.30733C166.436 4.97546 166.332 4.60275 166.332 4.18919C166.332 3.77053 166.434 3.39782 166.638 3.07105C166.847 2.73919 167.129 2.48135 167.486 2.29755C167.848 2.11374 168.253 2.02184 168.701 2.02184C169.124 2.02184 169.508 2.10608 169.855 2.27457C170.206 2.44306 170.484 2.69068 170.688 3.01744C170.897 3.34421 171.001 3.73479 171.001 4.18919ZM168.716 3.20125C168.538 3.20125 168.39 3.24975 168.273 3.34676C168.156 3.44377 168.079 3.58162 168.044 3.76032H169.389C169.353 3.58673 169.277 3.45143 169.159 3.35442C169.042 3.2523 168.895 3.20125 168.716 3.20125Z" fill="white"/>
<path d="M173.307 2.02184C174.04 2.02184 174.601 2.18777 174.988 2.51964C175.375 2.8464 175.569 3.35187 175.569 4.03602V6.28762H173.964V5.73621C173.765 6.15487 173.37 6.3642 172.779 6.3642C172.448 6.3642 172.165 6.30804 171.931 6.19572C171.702 6.07829 171.526 5.92256 171.404 5.72855C171.287 5.52943 171.228 5.30733 171.228 5.06226C171.228 4.6487 171.386 4.3347 171.702 4.12027C172.018 3.90583 172.496 3.79861 173.138 3.79861H173.834C173.778 3.47185 173.515 3.30847 173.047 3.30847C172.858 3.30847 172.667 3.3391 172.474 3.40037C172.28 3.45653 172.114 3.53567 171.977 3.63778L171.427 2.49667C171.666 2.3486 171.954 2.23373 172.29 2.15204C172.631 2.06524 172.97 2.02184 173.307 2.02184ZM173.299 5.32265C173.421 5.32265 173.531 5.28946 173.627 5.22309C173.724 5.15672 173.796 5.05716 173.841 4.92441V4.63339H173.414C173.062 4.63339 172.886 4.75082 172.886 4.98568C172.886 5.08268 172.922 5.16437 172.993 5.23075C173.07 5.29202 173.172 5.32265 173.299 5.32265Z" fill="white"/>
<path d="M179.395 6.14211C179.135 6.29017 178.781 6.3642 178.332 6.3642C177.747 6.3642 177.296 6.2238 176.98 5.94299C176.664 5.65707 176.506 5.23075 176.506 4.66402V3.59183H175.933V2.32818H176.506V1.15643H178.233V2.32818H179.089V3.59183H178.233V4.6487C178.233 4.77634 178.266 4.8759 178.332 4.94738C178.399 5.01886 178.485 5.0546 178.592 5.0546C178.74 5.0546 178.87 5.01631 178.982 4.93972L179.395 6.14211Z" fill="white"/>
<path d="M179.83 2.09843H181.557V6.28762H179.83V2.09843ZM180.693 1.76145C180.383 1.76145 180.13 1.67976 179.937 1.51638C179.748 1.34789 179.654 1.13601 179.654 0.880726C179.654 0.625443 179.748 0.416111 179.937 0.25273C180.13 0.0842433 180.383 0 180.693 0C181.009 0 181.262 0.0791378 181.45 0.237413C181.639 0.395688 181.733 0.599915 181.733 0.850092C181.733 1.11559 181.639 1.33513 181.45 1.50872C181.262 1.67721 181.009 1.76145 180.693 1.76145Z" fill="white"/>
<path d="M186.976 2.09843L185.295 6.28762H183.507L181.826 2.09843H183.599L184.439 4.34236L185.341 2.09843H186.976Z" fill="white"/>
<path d="M191.576 4.18919C191.576 4.21472 191.568 4.35002 191.553 4.59509H188.649C188.71 4.75337 188.812 4.8759 188.955 4.9627C189.098 5.04439 189.276 5.08524 189.49 5.08524C189.673 5.08524 189.826 5.06226 189.948 5.01631C190.076 4.97036 190.213 4.89122 190.361 4.7789L191.263 5.69026C190.855 6.13955 190.246 6.3642 189.436 6.3642C188.932 6.3642 188.489 6.2723 188.107 6.0885C187.725 5.89959 187.429 5.6392 187.22 5.30733C187.011 4.97546 186.907 4.60275 186.907 4.18919C186.907 3.77053 187.009 3.39782 187.213 3.07105C187.421 2.73919 187.704 2.48135 188.061 2.29755C188.423 2.11374 188.828 2.02184 189.276 2.02184C189.699 2.02184 190.083 2.10608 190.43 2.27457C190.781 2.44306 191.059 2.69068 191.263 3.01744C191.472 3.34421 191.576 3.73479 191.576 4.18919ZM189.291 3.20125C189.113 3.20125 188.965 3.24975 188.848 3.34676C188.731 3.44377 188.654 3.58162 188.619 3.76032H189.964C189.928 3.58673 189.852 3.45143 189.734 3.35442C189.617 3.2523 189.47 3.20125 189.291 3.20125Z" fill="white"/>
<path d="M200.182 0.926677L197.92 6.28762H196.147L193.885 0.926677H195.826L197.102 4.059L198.409 0.926677H200.182Z" fill="white"/>
<path d="M200.457 2.09843H202.184V6.28762H200.457V2.09843ZM201.321 1.76145C201.01 1.76145 200.758 1.67976 200.564 1.51638C200.376 1.34789 200.281 1.13601 200.281 0.880726C200.281 0.625443 200.376 0.416111 200.564 0.25273C200.758 0.0842433 201.01 0 201.321 0C201.637 0 201.889 0.0791378 202.077 0.237413C202.266 0.395688 202.36 0.599915 202.36 0.850092C202.36 1.11559 202.266 1.33513 202.077 1.50872C201.889 1.67721 201.637 1.76145 201.321 1.76145Z" fill="white"/>
<path d="M207.573 0.605021V6.28762H205.93V5.94299C205.68 6.2238 205.298 6.3642 204.784 6.3642C204.417 6.3642 204.078 6.27741 203.767 6.10382C203.462 5.92512 203.217 5.66983 203.034 5.33797C202.855 5.0061 202.766 4.62317 202.766 4.18919C202.766 3.75521 202.855 3.37484 203.034 3.04808C203.217 2.71621 203.462 2.46348 203.767 2.28989C204.078 2.11119 204.417 2.02184 204.784 2.02184C205.247 2.02184 205.601 2.14182 205.846 2.38179V0.605021H207.573ZM205.196 5.01631C205.395 5.01631 205.558 4.94483 205.686 4.80187C205.813 4.65381 205.877 4.44958 205.877 4.18919C205.877 3.9288 205.813 3.72713 205.686 3.58417C205.558 3.44121 205.395 3.36974 205.196 3.36974C204.998 3.36974 204.835 3.44121 204.707 3.58417C204.58 3.72713 204.516 3.9288 204.516 4.18919C204.516 4.44958 204.58 4.65381 204.707 4.80187C204.835 4.94483 204.998 5.01631 205.196 5.01631Z" fill="white"/>
<path d="M212.785 4.18919C212.785 4.21472 212.778 4.35002 212.763 4.59509H209.859C209.92 4.75337 210.022 4.8759 210.164 4.9627C210.307 5.04439 210.485 5.08524 210.699 5.08524C210.883 5.08524 211.035 5.06226 211.158 5.01631C211.285 4.97036 211.423 4.89122 211.57 4.7789L212.472 5.69026C212.065 6.13955 211.456 6.3642 210.646 6.3642C210.141 6.3642 209.698 6.2723 209.316 6.0885C208.934 5.89959 208.638 5.6392 208.43 5.30733C208.221 4.97546 208.116 4.60275 208.116 4.18919C208.116 3.77053 208.218 3.39782 208.422 3.07105C208.631 2.73919 208.914 2.48135 209.27 2.29755C209.632 2.11374 210.037 2.02184 210.485 2.02184C210.908 2.02184 211.293 2.10608 211.639 2.27457C211.991 2.44306 212.268 2.69068 212.472 3.01744C212.681 3.34421 212.785 3.73479 212.785 4.18919ZM210.501 3.20125C210.322 3.20125 210.174 3.24975 210.057 3.34676C209.94 3.44377 209.864 3.58162 209.828 3.76032H211.173C211.137 3.58673 211.061 3.45143 210.944 3.35442C210.827 3.2523 210.679 3.20125 210.501 3.20125Z" fill="white"/>
<path d="M215.539 6.3642C215.075 6.3642 214.658 6.2723 214.286 6.0885C213.919 5.89959 213.631 5.64175 213.422 5.31499C213.213 4.98312 213.109 4.60786 213.109 4.18919C213.109 3.77053 213.213 3.39782 213.422 3.07105C213.631 2.73919 213.919 2.48135 214.286 2.29755C214.658 2.11374 215.075 2.02184 215.539 2.02184C216.008 2.02184 216.425 2.11374 216.792 2.29755C217.164 2.48135 217.452 2.73919 217.656 3.07105C217.865 3.39782 217.969 3.77053 217.969 4.18919C217.969 4.60786 217.865 4.98312 217.656 5.31499C217.452 5.64175 217.164 5.89959 216.792 6.0885C216.425 6.2723 216.008 6.3642 215.539 6.3642ZM215.539 5.01631C215.738 5.01631 215.901 4.94483 216.028 4.80187C216.155 4.65381 216.219 4.44958 216.219 4.18919C216.219 3.9288 216.155 3.72713 216.028 3.58417C215.901 3.44121 215.738 3.36974 215.539 3.36974C215.34 3.36974 215.177 3.44121 215.05 3.58417C214.923 3.72713 214.859 3.9288 214.859 4.18919C214.859 4.44958 214.923 4.65381 215.05 4.80187C215.177 4.94483 215.34 5.01631 215.539 5.01631Z" fill="white"/>
<path d="M223.621 6.41015C223.055 6.41015 222.546 6.29272 222.092 6.05786C221.639 5.8179 221.282 5.48603 221.022 5.06226C220.768 4.63339 220.64 4.14835 220.64 3.60715C220.64 3.06595 220.768 2.58346 221.022 2.15969C221.282 1.73082 221.639 1.39895 222.092 1.16409C222.546 0.924124 223.055 0.804141 223.621 0.804141C224.14 0.804141 224.604 0.896043 225.011 1.07985C225.419 1.26365 225.755 1.52914 226.02 1.87633L224.882 2.89491C224.55 2.47624 224.161 2.26691 223.712 2.26691C223.335 2.26691 223.032 2.38945 222.803 2.63452C222.574 2.87449 222.459 3.1987 222.459 3.60715C222.459 4.0156 222.574 4.34236 222.803 4.58743C223.032 4.8274 223.335 4.94738 223.712 4.94738C224.161 4.94738 224.55 4.73805 224.882 4.31939L226.02 5.33797C225.755 5.68515 225.419 5.95065 225.011 6.13445C224.604 6.31825 224.14 6.41015 223.621 6.41015Z" fill="white"/>
<path d="M228.584 6.3642C228.12 6.3642 227.703 6.2723 227.331 6.0885C226.964 5.89959 226.676 5.64175 226.467 5.31499C226.258 4.98312 226.154 4.60786 226.154 4.18919C226.154 3.77053 226.258 3.39782 226.467 3.07105C226.676 2.73919 226.964 2.48135 227.331 2.29755C227.703 2.11374 228.12 2.02184 228.584 2.02184C229.053 2.02184 229.47 2.11374 229.837 2.29755C230.209 2.48135 230.497 2.73919 230.701 3.07105C230.91 3.39782 231.014 3.77053 231.014 4.18919C231.014 4.60786 230.91 4.98312 230.701 5.31499C230.497 5.64175 230.209 5.89959 229.837 6.0885C229.47 6.2723 229.053 6.3642 228.584 6.3642ZM228.584 5.01631C228.783 5.01631 228.946 4.94483 229.073 4.80187C229.2 4.65381 229.264 4.44958 229.264 4.18919C229.264 3.9288 229.2 3.72713 229.073 3.58417C228.946 3.44121 228.783 3.36974 228.584 3.36974C228.385 3.36974 228.222 3.44121 228.095 3.58417C227.968 3.72713 227.904 3.9288 227.904 4.18919C227.904 4.44958 227.968 4.65381 228.095 4.80187C228.222 4.94483 228.385 5.01631 228.584 5.01631Z" fill="white"/>
<path d="M234.459 2.02184C234.973 2.02184 235.386 2.17756 235.697 2.48901C236.012 2.80045 236.17 3.27017 236.17 3.89817V6.28762H234.443V4.19685C234.443 3.71692 234.273 3.47695 233.931 3.47695C233.738 3.47695 233.58 3.54588 233.458 3.68373C233.34 3.81648 233.282 4.02837 233.282 4.31939V6.28762H231.555V2.09843H233.198V2.51198C233.361 2.3486 233.549 2.22607 233.763 2.14438C233.977 2.06269 234.209 2.02184 234.459 2.02184Z" fill="white"/>
<path d="M240 6.14211C239.74 6.29017 239.386 6.3642 238.938 6.3642C238.352 6.3642 237.901 6.2238 237.585 5.94299C237.269 5.65707 237.111 5.23075 237.111 4.66402V3.59183H236.538V2.32818H237.111V1.15643H238.839V2.32818H239.694V3.59183H238.839V4.6487C238.839 4.77634 238.872 4.8759 238.938 4.94738C239.004 5.01886 239.091 5.0546 239.198 5.0546C239.345 5.0546 239.475 5.01631 239.587 4.93972L240 6.14211Z" fill="white"/>
<path d="M244.771 4.18919C244.771 4.21472 244.763 4.35002 244.748 4.59509H241.844C241.905 4.75337 242.007 4.8759 242.15 4.9627C242.293 5.04439 242.471 5.08524 242.685 5.08524C242.868 5.08524 243.021 5.06226 243.143 5.01631C243.271 4.97036 243.408 4.89122 243.556 4.7789L244.458 5.69026C244.05 6.13955 243.441 6.3642 242.631 6.3642C242.127 6.3642 241.684 6.2723 241.302 6.0885C240.92 5.89959 240.624 5.6392 240.415 5.30733C240.206 4.97546 240.102 4.60275 240.102 4.18919C240.102 3.77053 240.204 3.39782 240.408 3.07105C240.616 2.73919 240.899 2.48135 241.256 2.29755C241.618 2.11374 242.023 2.02184 242.471 2.02184C242.894 2.02184 243.278 2.10608 243.625 2.27457C243.976 2.44306 244.254 2.69068 244.458 3.01744C244.667 3.34421 244.771 3.73479 244.771 4.18919ZM242.486 3.20125C242.308 3.20125 242.16 3.24975 242.043 3.34676C241.926 3.44377 241.849 3.58162 241.814 3.76032H243.159C243.123 3.58673 243.047 3.45143 242.929 3.35442C242.812 3.2523 242.664 3.20125 242.486 3.20125Z" fill="white"/>
<path d="M246.951 6.3642C246.595 6.3642 246.243 6.32591 245.897 6.24933C245.55 6.17274 245.27 6.07318 245.056 5.95065L245.53 4.80953C245.724 4.92696 245.953 5.01886 246.218 5.08524C246.483 5.15161 246.74 5.1848 246.99 5.1848C247.188 5.1848 247.326 5.16948 247.402 5.13885C247.484 5.10311 247.525 5.05205 247.525 4.98568C247.525 4.9193 247.474 4.87335 247.372 4.84782C247.275 4.8223 247.115 4.79677 246.89 4.77124C246.549 4.73039 246.259 4.67934 246.019 4.61807C245.78 4.55169 245.568 4.42661 245.385 4.2428C245.207 4.059 245.117 3.79606 245.117 3.45398C245.117 3.18338 245.199 2.94086 245.362 2.72642C245.525 2.51198 245.767 2.34094 246.088 2.2133C246.414 2.08566 246.804 2.02184 247.257 2.02184C247.573 2.02184 247.881 2.05247 248.182 2.11374C248.488 2.1699 248.747 2.25415 248.961 2.36647L248.488 3.50759C248.121 3.30336 247.718 3.20125 247.28 3.20125C246.903 3.20125 246.715 3.26762 246.715 3.40037C246.715 3.46674 246.766 3.51525 246.867 3.54588C246.969 3.57141 247.13 3.59694 247.349 3.62247C247.69 3.66331 247.978 3.71692 248.212 3.78329C248.452 3.84967 248.661 3.97476 248.839 4.15856C249.022 4.34236 249.114 4.6053 249.114 4.94738C249.114 5.20777 249.033 5.44519 248.87 5.65962C248.707 5.87406 248.462 6.0451 248.136 6.17274C247.81 6.30038 247.415 6.3642 246.951 6.3642Z" fill="white"/>
<path d="M252.717 6.14211C252.457 6.29017 252.103 6.3642 251.655 6.3642C251.069 6.3642 250.618 6.2238 250.302 5.94299C249.986 5.65707 249.828 5.23075 249.828 4.66402V3.59183H249.255V2.32818H249.828V1.15643H251.555V2.32818H252.411V3.59183H251.555V4.6487C251.555 4.77634 251.588 4.8759 251.655 4.94738C251.721 5.01886 251.807 5.0546 251.914 5.0546C252.062 5.0546 252.192 5.01631 252.304 4.93972L252.717 6.14211Z" fill="white"/>
<path d="M8.65138 2.20309H0.5V234H350.5V2.20309H255.231V5.26649H347.443V230.937H3.55677V5.26649H8.65138V2.20309Z" fill="white"/>
</svg>
