<svg width="351" height="234" viewBox="0 0 351 234" fill="none" xmlns="http://www.w3.org/2000/svg">
<path d="M11.1248 0.926677H12.9283V6.28762H11.1248V0.926677Z" fill="white"/>
<path d="M18.076 3.48461C18.3918 3.60204 18.6364 3.77308 18.8096 3.99773C18.9828 4.22238 19.0694 4.49298 19.0694 4.80953C19.0694 5.27925 18.8758 5.64431 18.4886 5.90469C18.1015 6.15998 17.541 6.28762 16.8074 6.28762H13.7965V0.926677H16.6546C17.3678 0.926677 17.9053 1.05432 18.267 1.3096C18.6338 1.56488 18.8172 1.90441 18.8172 2.32818C18.8172 2.57836 18.7536 2.80301 18.6262 3.00213C18.5039 3.20125 18.3205 3.36208 18.076 3.48461ZM15.5694 2.19033V2.98681H16.41C16.8023 2.98681 16.9985 2.85406 16.9985 2.58857C16.9985 2.32308 16.8023 2.19033 16.41 2.19033H15.5694ZM16.6546 5.02397C17.052 5.02397 17.2507 4.88356 17.2507 4.60275C17.2507 4.32194 17.052 4.18153 16.6546 4.18153H15.5694V5.02397H16.6546Z" fill="white"/>
<path d="M24.4833 6.28762L24.468 3.84456L23.3064 5.80513H22.5116L21.3501 3.9288V6.28762H19.7071V0.926677H21.1896L22.9319 3.78329L24.6285 0.926677H26.111L26.1263 6.28762H24.4833Z" fill="white"/>
<path d="M29.2893 0.926677H31.9258C32.5218 0.926677 33.0466 1.03645 33.5 1.25599C33.9585 1.47043 34.3126 1.77932 34.5622 2.18267C34.817 2.58602 34.9443 3.06084 34.9443 3.60715C34.9443 4.15345 34.817 4.62828 34.5622 5.03163C34.3126 5.43497 33.9585 5.74642 33.5 5.96596C33.0466 6.1804 32.5218 6.28762 31.9258 6.28762H29.2893V0.926677ZM31.8493 4.87846C32.2365 4.87846 32.5448 4.76869 32.774 4.54914C33.0084 4.32449 33.1255 4.0105 33.1255 3.60715C33.1255 3.2038 33.0084 2.89236 32.774 2.67281C32.5448 2.44816 32.2365 2.33584 31.8493 2.33584H31.0928V4.87846H31.8493Z" fill="white"/>
<path d="M37.4216 2.02184C38.1553 2.02184 38.7157 2.18777 39.1028 2.51964C39.49 2.8464 39.6836 3.35187 39.6836 4.03602V6.28762H38.0788V5.73621C37.8801 6.15487 37.4853 6.3642 36.8943 6.3642C36.5632 6.3642 36.2804 6.30804 36.0461 6.19572C35.8168 6.07829 35.6411 5.92256 35.5188 5.72855C35.4016 5.52943 35.343 5.30733 35.343 5.06226C35.343 4.6487 35.501 4.3347 35.8168 4.12027C36.1327 3.90583 36.6116 3.79861 37.2535 3.79861H37.9489C37.8929 3.47185 37.6305 3.30847 37.1618 3.30847C36.9733 3.30847 36.7822 3.3391 36.5887 3.40037C36.3951 3.45653 36.2295 3.53567 36.0919 3.63778L35.5417 2.49667C35.7812 2.3486 36.069 2.23373 36.4052 2.15204C36.7466 2.06524 37.0854 2.02184 37.4216 2.02184ZM37.414 5.32265C37.5363 5.32265 37.6458 5.28946 37.7426 5.22309C37.8394 5.15672 37.9107 5.05716 37.9566 4.92441V4.63339H37.5286C37.1771 4.63339 37.0013 4.75082 37.0013 4.98568C37.0013 5.08268 37.037 5.16437 37.1083 5.23075C37.1847 5.29202 37.2866 5.32265 37.414 5.32265Z" fill="white"/>
<path d="M43.5097 6.14211C43.2499 6.29017 42.8958 6.3642 42.4475 6.3642C41.8616 6.3642 41.4107 6.2238 41.0949 5.94299C40.779 5.65707 40.6211 5.23075 40.6211 4.66402V3.59183H40.0479V2.32818H40.6211V1.15643H42.3482V2.32818H43.204V3.59183H42.3482V4.6487C42.3482 4.77634 42.3813 4.8759 42.4475 4.94738C42.5137 5.01886 42.6003 5.0546 42.7073 5.0546C42.8551 5.0546 42.985 5.01631 43.0971 4.93972L43.5097 6.14211Z" fill="white"/>
<path d="M45.8173 2.02184C46.5509 2.02184 47.1113 2.18777 47.4985 2.51964C47.8857 2.8464 48.0793 3.35187 48.0793 4.03602V6.28762H46.4745V5.73621C46.2758 6.15487 45.881 6.3642 45.29 6.3642C44.9588 6.3642 44.6761 6.30804 44.4417 6.19572C44.2125 6.07829 44.0367 5.92256 43.9145 5.72855C43.7973 5.52943 43.7387 5.30733 43.7387 5.06226C43.7387 4.6487 43.8966 4.3347 44.2125 4.12027C44.5284 3.90583 45.0072 3.79861 45.6492 3.79861H46.3446C46.2885 3.47185 46.0262 3.30847 45.5575 3.30847C45.369 3.30847 45.1779 3.3391 44.9843 3.40037C44.7907 3.45653 44.6251 3.53567 44.4876 3.63778L43.9374 2.49667C44.1768 2.3486 44.4647 2.23373 44.8009 2.15204C45.1423 2.06524 45.481 2.02184 45.8173 2.02184ZM45.8096 5.32265C45.9319 5.32265 46.0415 5.28946 46.1382 5.22309C46.235 5.15672 46.3064 5.05716 46.3522 4.92441V4.63339H45.9243C45.5727 4.63339 45.397 4.75082 45.397 4.98568C45.397 5.08268 45.4326 5.16437 45.504 5.23075C45.5804 5.29202 45.6823 5.32265 45.8096 5.32265Z" fill="white"/>
<path d="M53.1648 6.41015C52.7216 6.41015 52.2885 6.36165 51.8657 6.26464C51.4479 6.16253 51.104 6.02723 50.834 5.85874L51.4148 4.54148C51.6695 4.68955 51.9548 4.80953 52.2707 4.90143C52.5866 4.98823 52.8897 5.03163 53.1801 5.03163C53.4297 5.03163 53.608 5.00865 53.715 4.9627C53.822 4.91164 53.8755 4.83761 53.8755 4.7406C53.8755 4.62828 53.8042 4.54404 53.6615 4.48787C53.524 4.43171 53.2947 4.37044 52.9738 4.30407C52.5611 4.21727 52.2172 4.12537 51.9421 4.02837C51.667 3.92625 51.4276 3.76287 51.2238 3.53822C51.02 3.30847 50.9181 2.99957 50.9181 2.61154C50.9181 2.27457 51.0123 1.96823 51.2008 1.69253C51.3893 1.41682 51.6695 1.19983 52.0415 1.04155C52.4185 0.883279 52.8744 0.804141 53.4094 0.804141C53.7762 0.804141 54.1353 0.844987 54.4869 0.926677C54.8435 1.00326 55.1568 1.11814 55.4268 1.27131L54.8843 2.58091C54.3595 2.31542 53.8628 2.18267 53.3941 2.18267C52.9305 2.18267 52.6987 2.29499 52.6987 2.51964C52.6987 2.62686 52.7674 2.70855 52.905 2.76471C53.0425 2.81577 53.2693 2.87193 53.5851 2.9332C53.9927 3.00979 54.3366 3.09913 54.6168 3.20125C54.897 3.29826 55.139 3.45908 55.3428 3.68373C55.5516 3.90838 55.6561 4.21472 55.6561 4.60275C55.6561 4.93972 55.5618 5.24606 55.3733 5.52177C55.1848 5.79237 54.9021 6.00936 54.5251 6.17274C54.1532 6.33102 53.6997 6.41015 53.1648 6.41015Z" fill="white"/>
<path d="M58.386 6.3642C57.9122 6.3642 57.4868 6.2723 57.1098 6.0885C56.7379 5.90469 56.4449 5.64686 56.231 5.31499C56.0221 4.98312 55.9176 4.60786 55.9176 4.18919C55.9176 3.77053 56.0221 3.39782 56.231 3.07105C56.4449 2.73919 56.7379 2.48135 57.1098 2.29755C57.4868 2.11374 57.9122 2.02184 58.386 2.02184C58.8954 2.02184 59.331 2.13161 59.6927 2.35116C60.0545 2.5707 60.3041 2.87449 60.4417 3.26252L59.1043 3.92115C58.9413 3.55354 58.6993 3.36974 58.3783 3.36974C58.1746 3.36974 58.0039 3.44121 57.8663 3.58417C57.7339 3.72713 57.6676 3.9288 57.6676 4.18919C57.6676 4.45469 57.7339 4.65891 57.8663 4.80187C58.0039 4.94483 58.1746 5.01631 58.3783 5.01631C58.6993 5.01631 58.9413 4.83251 59.1043 4.4649L60.4417 5.12353C60.3041 5.51156 60.0545 5.81535 59.6927 6.03489C59.331 6.25443 58.8954 6.3642 58.386 6.3642Z" fill="white"/>
<path d="M60.8408 2.09843H62.5679V6.28762H60.8408V2.09843ZM61.7044 1.76145C61.3936 1.76145 61.1414 1.67976 60.9478 1.51638C60.7593 1.34789 60.6651 1.13601 60.6651 0.880726C60.6651 0.625443 60.7593 0.416111 60.9478 0.25273C61.1414 0.0842433 61.3936 0 61.7044 0C62.0202 0 62.2724 0.0791378 62.4609 0.237413C62.6494 0.395688 62.7437 0.599915 62.7437 0.850092C62.7437 1.11559 62.6494 1.33513 62.4609 1.50872C62.2724 1.67721 62.0202 1.76145 61.7044 1.76145Z" fill="white"/>
<path d="M67.781 4.18919C67.781 4.21472 67.7734 4.35002 67.7581 4.59509H64.8541C64.9153 4.75337 65.0172 4.8759 65.1598 4.9627C65.3025 5.04439 65.4808 5.08524 65.6948 5.08524C65.8782 5.08524 66.031 5.06226 66.1533 5.01631C66.2806 4.97036 66.4182 4.89122 66.5659 4.7789L67.4677 5.69026C67.0601 6.13955 66.4513 6.3642 65.6413 6.3642C65.1369 6.3642 64.6937 6.2723 64.3116 6.0885C63.9295 5.89959 63.634 5.6392 63.4251 5.30733C63.2162 4.97546 63.1118 4.60275 63.1118 4.18919C63.1118 3.77053 63.2137 3.39782 63.4175 3.07105C63.6263 2.73919 63.9091 2.48135 64.2657 2.29755C64.6274 2.11374 65.0325 2.02184 65.4808 2.02184C65.9036 2.02184 66.2883 2.10608 66.6347 2.27457C66.9862 2.44306 67.2639 2.69068 67.4677 3.01744C67.6766 3.34421 67.781 3.73479 67.781 4.18919ZM65.4961 3.20125C65.3178 3.20125 65.17 3.24975 65.0528 3.34676C64.9357 3.44377 64.8592 3.58162 64.8236 3.76032H66.1686C66.1329 3.58673 66.0565 3.45143 65.9393 3.35442C65.8221 3.2523 65.6744 3.20125 65.4961 3.20125Z" fill="white"/>
<path d="M71.23 2.02184C71.7445 2.02184 72.1572 2.17756 72.468 2.48901C72.7838 2.80045 72.9417 3.27017 72.9417 3.89817V6.28762H71.2147V4.19685C71.2147 3.71692 71.044 3.47695 70.7027 3.47695C70.5091 3.47695 70.3511 3.54588 70.2289 3.68373C70.1117 3.81648 70.0531 4.02837 70.0531 4.31939V6.28762H68.326V2.09843H69.969V2.51198C70.1321 2.3486 70.3206 2.22607 70.5345 2.14438C70.7485 2.06269 70.9803 2.02184 71.23 2.02184Z" fill="white"/>
<path d="M76.0131 6.3642C75.5393 6.3642 75.1139 6.2723 74.7369 6.0885C74.365 5.90469 74.0721 5.64686 73.8581 5.31499C73.6492 4.98312 73.5448 4.60786 73.5448 4.18919C73.5448 3.77053 73.6492 3.39782 73.8581 3.07105C74.0721 2.73919 74.365 2.48135 74.7369 2.29755C75.1139 2.11374 75.5393 2.02184 76.0131 2.02184C76.5226 2.02184 76.9582 2.13161 77.3199 2.35116C77.6816 2.5707 77.9313 2.87449 78.0688 3.26252L76.7315 3.92115C76.5685 3.55354 76.3265 3.36974 76.0055 3.36974C75.8017 3.36974 75.6311 3.44121 75.4935 3.58417C75.361 3.72713 75.2948 3.9288 75.2948 4.18919C75.2948 4.45469 75.361 4.65891 75.4935 4.80187C75.6311 4.94483 75.8017 5.01631 76.0055 5.01631C76.3265 5.01631 76.5685 4.83251 76.7315 4.4649L78.0688 5.12353C77.9313 5.51156 77.6816 5.81535 77.3199 6.03489C76.9582 6.25443 76.5226 6.3642 76.0131 6.3642Z" fill="white"/>
<path d="M82.8783 4.18919C82.8783 4.21472 82.8706 4.35002 82.8553 4.59509H79.9514C80.0126 4.75337 80.1144 4.8759 80.2571 4.9627C80.3997 5.04439 80.5781 5.08524 80.792 5.08524C80.9754 5.08524 81.1283 5.06226 81.2505 5.01631C81.3779 4.97036 81.5155 4.89122 81.6632 4.7789L82.565 5.69026C82.1574 6.13955 81.5486 6.3642 80.7385 6.3642C80.2342 6.3642 79.7909 6.2723 79.4088 6.0885C79.0267 5.89959 78.7313 5.6392 78.5224 5.30733C78.3135 4.97546 78.2091 4.60275 78.2091 4.18919C78.2091 3.77053 78.311 3.39782 78.5147 3.07105C78.7236 2.73919 79.0064 2.48135 79.363 2.29755C79.7247 2.11374 80.1297 2.02184 80.5781 2.02184C81.0009 2.02184 81.3856 2.10608 81.732 2.27457C82.0835 2.44306 82.3612 2.69068 82.565 3.01744C82.7738 3.34421 82.8783 3.73479 82.8783 4.18919ZM80.5933 3.20125C80.415 3.20125 80.2673 3.24975 80.1501 3.34676C80.0329 3.44377 79.9565 3.58162 79.9209 3.76032H81.2658C81.2302 3.58673 81.1538 3.45143 81.0366 3.35442C80.9194 3.2523 80.7717 3.20125 80.5933 3.20125Z" fill="white"/>
<path d="M87.579 2.32818H88.4884V3.59183H87.6325V6.28762H85.9054V3.59183H85.3323V2.32818H85.9054V2.3052C85.9054 1.7589 86.0685 1.32747 86.3945 1.01092C86.7206 0.689264 87.1791 0.528436 87.7701 0.528436C87.9637 0.528436 88.1522 0.546305 88.3356 0.582045C88.519 0.617785 88.6718 0.668841 88.7941 0.735215L88.3814 1.9376C88.2388 1.87122 88.1089 1.83804 87.9917 1.83804C87.8643 1.83804 87.7624 1.87888 87.686 1.96057C87.6147 2.03716 87.579 2.15714 87.579 2.32052V2.32818Z" fill="white"/>
<path d="M91.1394 6.3642C90.6758 6.3642 90.258 6.2723 89.8861 6.0885C89.5193 5.89959 89.2314 5.64175 89.0226 5.31499C88.8137 4.98312 88.7092 4.60786 88.7092 4.18919C88.7092 3.77053 88.8137 3.39782 89.0226 3.07105C89.2314 2.73919 89.5193 2.48135 89.8861 2.29755C90.258 2.11374 90.6758 2.02184 91.1394 2.02184C91.6081 2.02184 92.0258 2.11374 92.3926 2.29755C92.7646 2.48135 93.0524 2.73919 93.2562 3.07105C93.4651 3.39782 93.5695 3.77053 93.5695 4.18919C93.5695 4.60786 93.4651 4.98312 93.2562 5.31499C93.0524 5.64175 92.7646 5.89959 92.3926 6.0885C92.0258 6.2723 91.6081 6.3642 91.1394 6.3642ZM91.1394 5.01631C91.3381 5.01631 91.5011 4.94483 91.6285 4.80187C91.7558 4.65381 91.8195 4.44958 91.8195 4.18919C91.8195 3.9288 91.7558 3.72713 91.6285 3.58417C91.5011 3.44121 91.3381 3.36974 91.1394 3.36974C90.9407 3.36974 90.7777 3.44121 90.6503 3.58417C90.5229 3.72713 90.4592 3.9288 90.4592 4.18919C90.4592 4.44958 90.5229 4.65381 90.6503 4.80187C90.7777 4.94483 90.9407 5.01631 91.1394 5.01631Z" fill="white"/>
<path d="M95.7531 2.55028C96.0587 2.19799 96.5096 2.02184 97.1057 2.02184V3.55354C96.9681 3.53312 96.8408 3.5229 96.7236 3.5229C96.1326 3.5229 95.8371 3.82414 95.8371 4.42661V6.28762H94.11V2.09843H95.7531V2.55028Z" fill="white"/>
<path d="M102.515 0.926677C103.009 0.926677 103.44 1.00837 103.807 1.17175C104.173 1.33513 104.456 1.56999 104.655 1.87633C104.854 2.18267 104.953 2.54007 104.953 2.94852C104.953 3.35697 104.854 3.71437 104.655 4.02071C104.456 4.32705 104.173 4.56191 103.807 4.72529C103.44 4.88867 103.009 4.97036 102.515 4.97036H101.743V6.28762H99.9398V0.926677H102.515ZM102.4 3.57651C102.645 3.57651 102.828 3.5229 102.951 3.41569C103.073 3.30336 103.134 3.14764 103.134 2.94852C103.134 2.7494 103.073 2.59623 102.951 2.48901C102.828 2.37668 102.645 2.32052 102.4 2.32052H101.743V3.57651H102.4Z" fill="white"/>
<path d="M107.208 2.55028C107.514 2.19799 107.965 2.02184 108.561 2.02184V3.55354C108.424 3.53312 108.296 3.5229 108.179 3.5229C107.588 3.5229 107.293 3.82414 107.293 4.42661V6.28762H105.565V2.09843H107.208V2.55028Z" fill="white"/>
<path d="M111.222 6.3642C110.758 6.3642 110.34 6.2723 109.969 6.0885C109.602 5.89959 109.314 5.64175 109.105 5.31499C108.896 4.98312 108.792 4.60786 108.792 4.18919C108.792 3.77053 108.896 3.39782 109.105 3.07105C109.314 2.73919 109.602 2.48135 109.969 2.29755C110.34 2.11374 110.758 2.02184 111.222 2.02184C111.691 2.02184 112.108 2.11374 112.475 2.29755C112.847 2.48135 113.135 2.73919 113.339 3.07105C113.548 3.39782 113.652 3.77053 113.652 4.18919C113.652 4.60786 113.548 4.98312 113.339 5.31499C113.135 5.64175 112.847 5.89959 112.475 6.0885C112.108 6.2723 111.691 6.3642 111.222 6.3642ZM111.222 5.01631C111.42 5.01631 111.584 4.94483 111.711 4.80187C111.838 4.65381 111.902 4.44958 111.902 4.18919C111.902 3.9288 111.838 3.72713 111.711 3.58417C111.584 3.44121 111.42 3.36974 111.222 3.36974C111.023 3.36974 110.86 3.44121 110.733 3.58417C110.605 3.72713 110.542 3.9288 110.542 4.18919C110.542 4.44958 110.605 4.65381 110.733 4.80187C110.86 4.94483 111.023 5.01631 111.222 5.01631Z" fill="white"/>
<path d="M116.057 2.32818H116.966V3.59183H116.111V6.28762H114.384V3.59183H113.81V2.32818H114.384V2.3052C114.384 1.7589 114.547 1.32747 114.873 1.01092C115.199 0.689264 115.657 0.528436 116.248 0.528436C116.442 0.528436 116.63 0.546305 116.814 0.582045C116.997 0.617785 117.15 0.668841 117.272 0.735215L116.86 1.9376C116.717 1.87122 116.587 1.83804 116.47 1.83804C116.342 1.83804 116.241 1.87888 116.164 1.96057C116.093 2.03716 116.057 2.15714 116.057 2.32052V2.32818Z" fill="white"/>
<path d="M121.857 4.18919C121.857 4.21472 121.849 4.35002 121.834 4.59509H118.93C118.991 4.75337 119.093 4.8759 119.235 4.9627C119.378 5.04439 119.556 5.08524 119.77 5.08524C119.954 5.08524 120.107 5.06226 120.229 5.01631C120.356 4.97036 120.494 4.89122 120.641 4.7789L121.543 5.69026C121.136 6.13955 120.527 6.3642 119.717 6.3642C119.212 6.3642 118.769 6.2723 118.387 6.0885C118.005 5.89959 117.71 5.6392 117.501 5.30733C117.292 4.97546 117.187 4.60275 117.187 4.18919C117.187 3.77053 117.289 3.39782 117.493 3.07105C117.702 2.73919 117.985 2.48135 118.341 2.29755C118.703 2.11374 119.108 2.02184 119.556 2.02184C119.979 2.02184 120.364 2.10608 120.71 2.27457C121.062 2.44306 121.339 2.69068 121.543 3.01744C121.752 3.34421 121.857 3.73479 121.857 4.18919ZM119.572 3.20125C119.393 3.20125 119.246 3.24975 119.128 3.34676C119.011 3.44377 118.935 3.58162 118.899 3.76032H120.244C120.208 3.58673 120.132 3.45143 120.015 3.35442C119.898 3.2523 119.75 3.20125 119.572 3.20125Z" fill="white"/>
<path d="M124.037 6.3642C123.68 6.3642 123.329 6.32591 122.982 6.24933C122.636 6.17274 122.356 6.07318 122.142 5.95065L122.616 4.80953C122.809 4.92696 123.038 5.01886 123.303 5.08524C123.568 5.15161 123.826 5.1848 124.075 5.1848C124.274 5.1848 124.411 5.16948 124.488 5.13885C124.569 5.10311 124.61 5.05205 124.61 4.98568C124.61 4.9193 124.559 4.87335 124.457 4.84782C124.36 4.8223 124.2 4.79677 123.976 4.77124C123.634 4.73039 123.344 4.67934 123.105 4.61807C122.865 4.55169 122.654 4.42661 122.47 4.2428C122.292 4.059 122.203 3.79606 122.203 3.45398C122.203 3.18338 122.284 2.94086 122.447 2.72642C122.61 2.51198 122.852 2.34094 123.173 2.2133C123.499 2.08566 123.889 2.02184 124.343 2.02184C124.658 2.02184 124.967 2.05247 125.267 2.11374C125.573 2.1699 125.833 2.25415 126.047 2.36647L125.573 3.50759C125.206 3.30336 124.804 3.20125 124.366 3.20125C123.989 3.20125 123.8 3.26762 123.8 3.40037C123.8 3.46674 123.851 3.51525 123.953 3.54588C124.055 3.57141 124.215 3.59694 124.434 3.62247C124.776 3.66331 125.064 3.71692 125.298 3.78329C125.537 3.84967 125.746 3.97476 125.924 4.15856C126.108 4.34236 126.2 4.6053 126.2 4.94738C126.2 5.20777 126.118 5.44519 125.955 5.65962C125.792 5.87406 125.548 6.0451 125.221 6.17274C124.895 6.30038 124.501 6.3642 124.037 6.3642Z" fill="white"/>
<path d="M128.358 6.3642C128.001 6.3642 127.65 6.32591 127.303 6.24933C126.957 6.17274 126.677 6.07318 126.463 5.95065L126.937 4.80953C127.13 4.92696 127.359 5.01886 127.624 5.08524C127.889 5.15161 128.146 5.1848 128.396 5.1848C128.595 5.1848 128.732 5.16948 128.809 5.13885C128.89 5.10311 128.931 5.05205 128.931 4.98568C128.931 4.9193 128.88 4.87335 128.778 4.84782C128.681 4.8223 128.521 4.79677 128.297 4.77124C127.955 4.73039 127.665 4.67934 127.426 4.61807C127.186 4.55169 126.975 4.42661 126.791 4.2428C126.613 4.059 126.524 3.79606 126.524 3.45398C126.524 3.18338 126.605 2.94086 126.768 2.72642C126.931 2.51198 127.173 2.34094 127.494 2.2133C127.82 2.08566 128.21 2.02184 128.664 2.02184C128.979 2.02184 129.288 2.05247 129.588 2.11374C129.894 2.1699 130.154 2.25415 130.368 2.36647L129.894 3.50759C129.527 3.30336 129.125 3.20125 128.687 3.20125C128.31 3.20125 128.121 3.26762 128.121 3.40037C128.121 3.46674 128.172 3.51525 128.274 3.54588C128.376 3.57141 128.536 3.59694 128.755 3.62247C129.097 3.66331 129.384 3.71692 129.619 3.78329C129.858 3.84967 130.067 3.97476 130.245 4.15856C130.429 4.34236 130.521 4.6053 130.521 4.94738C130.521 5.20777 130.439 5.44519 130.276 5.65962C130.113 5.87406 129.868 6.0451 129.542 6.17274C129.216 6.30038 128.822 6.3642 128.358 6.3642Z" fill="white"/>
<path d="M131.044 2.09843H132.771V6.28762H131.044V2.09843ZM131.907 1.76145C131.596 1.76145 131.344 1.67976 131.15 1.51638C130.962 1.34789 130.868 1.13601 130.868 0.880726C130.868 0.625443 130.962 0.416111 131.15 0.25273C131.344 0.0842433 131.596 0 131.907 0C132.223 0 132.475 0.0791378 132.664 0.237413C132.852 0.395688 132.946 0.599915 132.946 0.850092C132.946 1.11559 132.852 1.33513 132.664 1.50872C132.475 1.67721 132.223 1.76145 131.907 1.76145Z" fill="white"/>
<path d="M135.745 6.3642C135.281 6.3642 134.863 6.2723 134.491 6.0885C134.125 5.89959 133.837 5.64175 133.628 5.31499C133.419 4.98312 133.314 4.60786 133.314 4.18919C133.314 3.77053 133.419 3.39782 133.628 3.07105C133.837 2.73919 134.125 2.48135 134.491 2.29755C134.863 2.11374 135.281 2.02184 135.745 2.02184C136.213 2.02184 136.631 2.11374 136.998 2.29755C137.37 2.48135 137.658 2.73919 137.861 3.07105C138.07 3.39782 138.175 3.77053 138.175 4.18919C138.175 4.60786 138.07 4.98312 137.861 5.31499C137.658 5.64175 137.37 5.89959 136.998 6.0885C136.631 6.2723 136.213 6.3642 135.745 6.3642ZM135.745 5.01631C135.943 5.01631 136.106 4.94483 136.234 4.80187C136.361 4.65381 136.425 4.44958 136.425 4.18919C136.425 3.9288 136.361 3.72713 136.234 3.58417C136.106 3.44121 135.943 3.36974 135.745 3.36974C135.546 3.36974 135.383 3.44121 135.256 3.58417C135.128 3.72713 135.064 3.9288 135.064 4.18919C135.064 4.44958 135.128 4.65381 135.256 4.80187C135.383 4.94483 135.546 5.01631 135.745 5.01631Z" fill="white"/>
<path d="M141.619 2.02184C142.134 2.02184 142.546 2.17756 142.857 2.48901C143.173 2.80045 143.331 3.27017 143.331 3.89817V6.28762H141.604V4.19685C141.604 3.71692 141.433 3.47695 141.092 3.47695C140.898 3.47695 140.74 3.54588 140.618 3.68373C140.501 3.81648 140.442 4.02837 140.442 4.31939V6.28762H138.715V2.09843H140.358V2.51198C140.521 2.3486 140.71 2.22607 140.924 2.14438C141.138 2.06269 141.37 2.02184 141.619 2.02184Z" fill="white"/>
<path d="M145.953 2.02184C146.687 2.02184 147.247 2.18777 147.635 2.51964C148.022 2.8464 148.215 3.35187 148.215 4.03602V6.28762H146.611V5.73621C146.412 6.15487 146.017 6.3642 145.426 6.3642C145.095 6.3642 144.812 6.30804 144.578 6.19572C144.349 6.07829 144.173 5.92256 144.05 5.72855C143.933 5.52943 143.875 5.30733 143.875 5.06226C143.875 4.6487 144.033 4.3347 144.349 4.12027C144.664 3.90583 145.143 3.79861 145.785 3.79861H146.481C146.425 3.47185 146.162 3.30847 145.693 3.30847C145.505 3.30847 145.314 3.3391 145.12 3.40037C144.927 3.45653 144.761 3.53567 144.624 3.63778L144.073 2.49667C144.313 2.3486 144.601 2.23373 144.937 2.15204C145.278 2.06524 145.617 2.02184 145.953 2.02184ZM145.946 5.32265C146.068 5.32265 146.177 5.28946 146.274 5.22309C146.371 5.15672 146.442 5.05716 146.488 4.92441V4.63339H146.06C145.709 4.63339 145.533 4.75082 145.533 4.98568C145.533 5.08268 145.569 5.16437 145.64 5.23075C145.716 5.29202 145.818 5.32265 145.946 5.32265Z" fill="white"/>
<path d="M148.962 0.605021H150.689V6.28762H148.962V0.605021Z" fill="white"/>
<path d="M8.65138 2.20309H0.5V234H350.5V2.20309H153.338V5.26649H347.443V230.937H3.55677V5.26649H8.65138V2.20309Z" fill="white"/>
</svg>
