<svg width="46" height="45" viewBox="0 0 46 45" fill="none" xmlns="http://www.w3.org/2000/svg">
<path d="M23.2003 0C17.0897 0 16.3228 0.0267192 13.9228 0.135938C11.5274 0.245625 9.8924 0.624844 8.46176 1.18125C6.9819 1.75594 5.72658 2.52469 4.47594 3.77578C3.22436 5.02641 2.4556 6.28172 1.87904 7.76109C1.32122 9.19219 0.941526 10.8277 0.833712 13.222C0.726367 15.622 0.698242 16.3894 0.698242 22.5C0.698242 28.6106 0.72543 29.3752 0.834182 31.7752C0.944339 34.1705 1.32356 35.8055 1.8795 37.2361C2.45467 38.7159 3.22342 39.9713 4.47453 41.2219C5.7247 42.4734 6.98003 43.2441 8.45895 43.8188C9.89052 44.3752 11.526 44.7544 13.9209 44.8641C16.3209 44.9733 17.0873 45 23.1975 45C29.3087 45 30.0732 44.9733 32.4733 44.8641C34.8686 44.7544 36.5055 44.3752 37.9371 43.8188C39.4165 43.2441 40.6699 42.4734 41.9201 41.2219C43.1717 39.9713 43.9404 38.7159 44.517 37.2366C45.0701 35.8055 45.4498 34.17 45.5623 31.7756C45.6701 29.3756 45.6982 28.6106 45.6982 22.5C45.6982 16.3894 45.6701 15.6225 45.5623 13.2225C45.4498 10.8272 45.0701 9.19219 44.517 7.76156C43.9404 6.28172 43.1717 5.02641 41.9201 3.77578C40.6685 2.52422 39.4169 1.75547 37.9357 1.18125C36.5013 0.624844 34.8653 0.245625 32.47 0.135938C30.07 0.0267192 29.3059 0 23.1933 0H23.2003ZM21.1819 4.05469C21.781 4.05375 22.4494 4.05469 23.2003 4.05469C29.2079 4.05469 29.92 4.07625 32.2923 4.18406C34.4861 4.28438 35.6767 4.65094 36.4699 4.95891C37.5199 5.36672 38.2685 5.85422 39.0555 6.64172C39.843 7.42922 40.3305 8.17922 40.7393 9.22922C41.0473 10.0214 41.4143 11.212 41.5141 13.4058C41.6219 15.7777 41.6454 16.4902 41.6454 22.4948C41.6454 28.4995 41.6219 29.212 41.5141 31.5839C41.4138 33.7777 41.0473 34.9683 40.7393 35.7605C40.3315 36.8105 39.843 37.5581 39.0555 38.3452C38.268 39.1327 37.5203 39.6202 36.4699 40.028C35.6777 40.3373 34.4861 40.703 32.2923 40.8033C29.9204 40.9111 29.2079 40.9345 23.2003 40.9345C17.1923 40.9345 16.4803 40.9111 14.1084 40.8033C11.9146 40.702 10.724 40.3355 9.93037 40.0275C8.88036 39.6197 8.13035 39.1322 7.34284 38.3447C6.55533 37.5572 6.06783 36.8091 5.65907 35.7586C5.3511 34.9664 4.98407 33.7758 4.88422 31.582C4.77641 29.2102 4.75485 28.4977 4.75485 22.4892C4.75485 16.4808 4.77641 15.772 4.88422 13.4002C4.98454 11.2064 5.3511 10.0158 5.65907 9.22266C6.06689 8.17266 6.55533 7.42266 7.34284 6.63516C8.13035 5.84766 8.88036 5.36016 9.93037 4.95141C10.7235 4.64203 11.9146 4.27641 14.1084 4.17563C16.184 4.08188 16.9884 4.05375 21.1819 4.04906V4.05469ZM35.2108 7.79063C33.7201 7.79063 32.5108 8.99859 32.5108 10.4897C32.5108 11.9803 33.7201 13.1897 35.2108 13.1897C36.7014 13.1897 37.9108 11.9803 37.9108 10.4897C37.9108 8.99906 36.7014 7.79063 35.2108 7.79063ZM23.2003 10.9453C16.8192 10.9453 11.6455 16.1189 11.6455 22.5C11.6455 28.8811 16.8192 34.0523 23.2003 34.0523C29.5815 34.0523 34.7533 28.8811 34.7533 22.5C34.7533 16.1189 29.5815 10.9453 23.2003 10.9453ZM23.2003 15C27.3423 15 30.7004 18.3577 30.7004 22.5C30.7004 26.6419 27.3423 30 23.2003 30C19.058 30 15.7003 26.6419 15.7003 22.5C15.7003 18.3577 19.058 15 23.2003 15Z" fill="white"/>
</svg>
