<svg width="31" height="31" viewBox="0 0 31 31" fill="none" xmlns="http://www.w3.org/2000/svg">
<path d="M15.7681 0.5C11.6943 0.5 11.183 0.517813 9.583 0.590625C7.98611 0.66375 6.8961 0.916563 5.94234 1.2875C4.95577 1.67063 4.11888 2.18313 3.28513 3.01719C2.45074 3.85094 1.93824 4.68781 1.55386 5.67406C1.18198 6.62812 0.928852 7.71844 0.856976 9.31469C0.785413 10.9147 0.766663 11.4262 0.766663 15.5C0.766663 19.5738 0.784788 20.0834 0.857289 21.6834C0.930727 23.2803 1.18354 24.3703 1.55417 25.3241C1.93761 26.3106 2.45012 27.1475 3.28419 27.9813C4.11763 28.8156 4.95452 29.3294 5.94047 29.7125C6.89485 30.0834 7.98518 30.3363 9.58175 30.4094C11.1818 30.4822 11.6927 30.5 15.7662 30.5C19.8403 30.5 20.35 30.4822 21.95 30.4094C23.5469 30.3363 24.6382 30.0834 25.5925 29.7125C26.5788 29.3294 27.4144 28.8156 28.2479 27.9813C29.0823 27.1475 29.5948 26.3106 29.9792 25.3244C30.3479 24.3703 30.601 23.28 30.676 21.6838C30.7479 20.0838 30.7667 19.5738 30.7667 15.5C30.7667 11.4262 30.7479 10.915 30.676 9.315C30.601 7.71813 30.3479 6.62812 29.9792 5.67437C29.5948 4.68781 29.0823 3.85094 28.2479 3.01719C27.4135 2.18281 26.5791 1.67031 25.5916 1.2875C24.6353 0.916563 23.5447 0.66375 21.9478 0.590625C20.3478 0.517813 19.8384 0.5 15.7634 0.5H15.7681ZM14.4224 3.20312C14.8218 3.2025 15.2674 3.20312 15.7681 3.20312C19.7731 3.20312 20.2478 3.2175 21.8294 3.28938C23.2919 3.35625 24.0857 3.60063 24.6144 3.80594C25.3144 4.07781 25.8135 4.40281 26.3382 4.92781C26.8632 5.45281 27.1882 5.95281 27.4607 6.65281C27.666 7.18094 27.9107 7.97469 27.9773 9.43719C28.0491 11.0184 28.0648 11.4934 28.0648 15.4966C28.0648 19.4997 28.0491 19.9747 27.9773 21.5559C27.9104 23.0184 27.666 23.8122 27.4607 24.3403C27.1888 25.0403 26.8632 25.5388 26.3382 26.0634C25.8132 26.5884 25.3147 26.9134 24.6144 27.1853C24.0863 27.3916 23.2919 27.6353 21.8294 27.7022C20.2481 27.7741 19.7731 27.7897 15.7681 27.7897C11.7627 27.7897 11.288 27.7741 9.70676 27.7022C8.24424 27.6347 7.45048 27.3903 6.92141 27.185C6.22141 26.9131 5.7214 26.5881 5.1964 26.0631C4.67139 25.5381 4.34639 25.0394 4.07388 24.3391C3.86857 23.8109 3.62388 23.0172 3.55732 21.5547C3.48544 19.9734 3.47107 19.4984 3.47107 15.4928C3.47107 11.4872 3.48544 11.0147 3.55732 9.43344C3.62419 7.97094 3.86857 7.17719 4.07388 6.64844C4.34576 5.94844 4.67139 5.44844 5.1964 4.92344C5.7214 4.39844 6.22141 4.07344 6.92141 3.80094C7.45017 3.59469 8.24424 3.35094 9.70676 3.28375C11.0905 3.22125 11.6268 3.2025 14.4224 3.19938V3.20312ZM23.775 5.69375C22.7813 5.69375 21.975 6.49906 21.975 7.49312C21.975 8.48687 22.7813 9.29313 23.775 9.29313C24.7688 9.29313 25.575 8.48687 25.575 7.49312C25.575 6.49937 24.7688 5.69375 23.775 5.69375ZM15.7681 7.79688C11.514 7.79688 8.06486 11.2459 8.06486 15.5C8.06486 19.7541 11.514 23.2016 15.7681 23.2016C20.0222 23.2016 23.47 19.7541 23.47 15.5C23.47 11.2459 20.0222 7.79688 15.7681 7.79688ZM15.7681 10.5C18.5293 10.5 20.7681 12.7384 20.7681 15.5C20.7681 18.2613 18.5293 20.5 15.7681 20.5C13.0065 20.5 10.768 18.2613 10.768 15.5C10.768 12.7384 13.0065 10.5 15.7681 10.5Z" fill="white"/>
</svg>
