<svg width="46" height="46" viewBox="0 0 46 46" fill="none" xmlns="http://www.w3.org/2000/svg">
<path d="M23.2005 0.166016C17.0898 0.166016 16.323 0.192735 13.9229 0.301954C11.5276 0.411641 9.89258 0.79086 8.46194 1.34727C6.98208 1.92195 5.72676 2.6907 4.47612 3.9418C3.22455 5.19242 2.45579 6.44773 1.87922 7.92711C1.3214 9.3582 0.941709 10.9937 0.833895 13.388C0.72655 15.788 0.698425 16.5554 0.698425 22.666C0.698425 28.7766 0.725613 29.5412 0.834365 31.9412C0.944522 34.3365 1.32374 35.9715 1.87969 37.4021C2.45485 38.882 3.22361 40.1373 4.47471 41.3879C5.72488 42.6395 6.98021 43.4101 8.45913 43.9848C9.89071 44.5412 11.5262 44.9204 13.9211 45.0301C16.3211 45.1393 17.0875 45.166 23.1977 45.166C29.3089 45.166 30.0734 45.1393 32.4734 45.0301C34.8688 44.9204 36.5057 44.5412 37.9372 43.9848C39.4166 43.4101 40.6701 42.6395 41.9203 41.3879C43.1718 40.1373 43.9406 38.882 44.5172 37.4026C45.0703 35.9715 45.45 34.336 45.5625 31.9416C45.6703 29.5416 45.6984 28.7766 45.6984 22.666C45.6984 16.5554 45.6703 15.7885 45.5625 13.3885C45.45 10.9932 45.0703 9.3582 44.5172 7.92758C43.9406 6.44773 43.1718 5.19242 41.9203 3.9418C40.6687 2.69023 39.4171 1.92148 37.9358 1.34727C36.5015 0.79086 34.8655 0.411641 32.4702 0.301954C30.0701 0.192735 29.3061 0.166016 23.1935 0.166016H23.2005ZM21.1821 4.2207C21.7811 4.21977 22.4496 4.2207 23.2005 4.2207C29.2081 4.2207 29.9201 4.24227 32.2925 4.35008C34.4863 4.45039 35.6769 4.81695 36.47 5.12492C37.5201 5.53273 38.2687 6.02023 39.0557 6.80773C39.8432 7.59523 40.3307 8.34523 40.7395 9.39523C41.0474 10.1874 41.4145 11.378 41.5143 13.5718C41.6221 15.9437 41.6456 16.6562 41.6456 22.6609C41.6456 28.6655 41.6221 29.378 41.5143 31.7499C41.414 33.9437 41.0474 35.1343 40.7395 35.9265C40.3316 36.9765 39.8432 37.7241 39.0557 38.5112C38.2682 39.2987 37.5205 39.7862 36.47 40.194C35.6779 40.5034 34.4863 40.869 32.2925 40.9693C29.9206 41.0771 29.2081 41.1006 23.2005 41.1006C17.1925 41.1006 16.4805 41.0771 14.1086 40.9693C11.9148 40.868 10.7242 40.5015 9.93055 40.1935C8.88054 39.7857 8.13053 39.2982 7.34303 38.5107C6.55552 37.7232 6.06801 36.9751 5.65926 35.9246C5.35129 35.1324 4.98425 33.9418 4.88441 31.748C4.77659 29.3762 4.75503 28.6637 4.75503 22.6552C4.75503 16.6468 4.77659 15.938 4.88441 13.5662C4.98472 11.3724 5.35129 10.1818 5.65926 9.38867C6.06707 8.33867 6.55552 7.58867 7.34303 6.80117C8.13053 6.01367 8.88054 5.52617 9.93055 5.11742C10.7237 4.80805 11.9148 4.44242 14.1086 4.34164C16.1842 4.24789 16.9886 4.21977 21.1821 4.21508V4.2207ZM35.211 7.95664C33.7203 7.95664 32.5109 9.16461 32.5109 10.6557C32.5109 12.1463 33.7203 13.3557 35.211 13.3557C36.7016 13.3557 37.911 12.1463 37.911 10.6557C37.911 9.16508 36.7016 7.95664 35.211 7.95664ZM23.2005 11.1113C16.8194 11.1113 11.6457 16.2849 11.6457 22.666C11.6457 29.0471 16.8194 34.2184 23.2005 34.2184C29.5817 34.2184 34.7535 29.0471 34.7535 22.666C34.7535 16.2849 29.5817 11.1113 23.2005 11.1113ZM23.2005 15.166C27.3425 15.166 30.7006 18.5237 30.7006 22.666C30.7006 26.8079 27.3425 30.166 23.2005 30.166C19.0581 30.166 15.7005 26.8079 15.7005 22.666C15.7005 18.5237 19.0581 15.166 23.2005 15.166Z" fill="white"/>
</svg>
