<svg width="30" height="31" viewBox="0 0 30 31" fill="none" xmlns="http://www.w3.org/2000/svg">
<path d="M15.0014 0.5C10.9276 0.5 10.4164 0.517813 8.81634 0.590625C7.21945 0.66375 6.12944 0.916563 5.17568 1.2875C4.18911 1.67063 3.35222 2.18313 2.51846 3.01719C1.68408 3.85094 1.17157 4.68781 0.787195 5.67406C0.415317 6.62813 0.162189 7.71844 0.0903133 9.31469C0.0187501 10.9147 0 11.4262 0 15.5C0 19.5737 0.0181255 20.0834 0.0906262 21.6834C0.164064 23.2803 0.41688 24.3703 0.787508 25.3241C1.17095 26.3106 1.68345 27.1475 2.51753 27.9813C3.35097 28.8156 4.18786 29.3294 5.1738 29.7125C6.12819 30.0834 7.21851 30.3363 8.81509 30.4094C10.4151 30.4822 10.9261 30.5 14.9995 30.5C19.0736 30.5 19.5833 30.4822 21.1833 30.4094C22.7802 30.3363 23.8715 30.0834 24.8259 29.7125C25.8121 29.3294 26.6478 28.8156 27.4812 27.9813C28.3156 27.1475 28.8281 26.3106 29.2125 25.3244C29.5812 24.3703 29.8344 23.28 29.9094 21.6838C29.9812 20.0838 30 19.5737 30 15.5C30 11.4262 29.9812 10.915 29.9094 9.315C29.8344 7.71812 29.5812 6.62813 29.2125 5.67438C28.8281 4.68781 28.3156 3.85094 27.4812 3.01719C26.6468 2.18281 25.8125 1.67031 24.8249 1.2875C23.8687 0.916563 22.778 0.66375 21.1812 0.590625C19.5811 0.517813 19.0718 0.5 14.9967 0.5H15.0014ZM13.6558 3.20312C14.0551 3.2025 14.5008 3.20312 15.0014 3.20312C19.0064 3.20312 19.4811 3.2175 21.0627 3.28938C22.5252 3.35625 23.319 3.60063 23.8477 3.80594C24.5478 4.07781 25.0468 4.40281 25.5715 4.92781C26.0965 5.45281 26.4215 5.95281 26.694 6.65281C26.8993 7.18094 27.144 7.97469 27.2106 9.43719C27.2825 11.0184 27.2981 11.4934 27.2981 15.4966C27.2981 19.4997 27.2825 19.9747 27.2106 21.5559C27.1437 23.0184 26.8993 23.8122 26.694 24.3403C26.4222 25.0403 26.0965 25.5388 25.5715 26.0634C25.0465 26.5884 24.5481 26.9134 23.8477 27.1853C23.3196 27.3916 22.5252 27.6353 21.0627 27.7022C19.4815 27.7741 19.0064 27.7897 15.0014 27.7897C10.9961 27.7897 10.5214 27.7741 8.94009 27.7022C7.47758 27.6347 6.68382 27.3903 6.15475 27.185C5.45474 26.9131 4.95474 26.5881 4.42973 26.0631C3.90473 25.5381 3.57972 25.0394 3.30722 24.3391C3.10191 23.8109 2.85722 23.0172 2.79065 21.5547C2.71878 19.9734 2.7044 19.4984 2.7044 15.4928C2.7044 11.4872 2.71878 11.0147 2.79065 9.43344C2.85753 7.97094 3.10191 7.17719 3.30722 6.64844C3.5791 5.94844 3.90473 5.44844 4.42973 4.92344C4.95474 4.39844 5.45474 4.07344 6.15475 3.80094C6.68351 3.59469 7.47758 3.35094 8.94009 3.28375C10.3239 3.22125 10.8601 3.2025 13.6558 3.19938V3.20312ZM23.0084 5.69375C22.0146 5.69375 21.2083 6.49906 21.2083 7.49312C21.2083 8.48688 22.0146 9.29313 23.0084 9.29313C24.0021 9.29313 24.8084 8.48688 24.8084 7.49312C24.8084 6.49937 24.0021 5.69375 23.0084 5.69375ZM15.0014 7.79688C10.7473 7.79688 7.2982 11.2459 7.2982 15.5C7.2982 19.7541 10.7473 23.2016 15.0014 23.2016C19.2555 23.2016 22.7034 19.7541 22.7034 15.5C22.7034 11.2459 19.2555 7.79688 15.0014 7.79688ZM15.0014 10.5C17.7627 10.5 20.0015 12.7384 20.0015 15.5C20.0015 18.2612 17.7627 20.5 15.0014 20.5C12.2398 20.5 10.0014 18.2612 10.0014 15.5C10.0014 12.7384 12.2398 10.5 15.0014 10.5Z" fill="white"/>
</svg>
