<svg width="290" height="154" viewBox="0 0 290 154" fill="none" xmlns="http://www.w3.org/2000/svg">
<path fill-rule="evenodd" clip-rule="evenodd" d="M289.865 153.188C289.767 93.0592 273.349 54.8492 246.942 31.6978C220.494 8.51082 184.314 0.6875 145.375 0.6875C106.653 0.6875 70.4696 8.22577 43.9629 31.1339C17.4135 54.0789 0.865234 92.183 0.865234 152.649C0.865234 152.829 0.86538 153.008 0.86567 153.188H3.86567C3.86538 153.008 3.86523 152.829 3.86523 152.649C3.86523 92.7163 20.2534 55.5897 45.9246 33.4037C71.6385 11.1807 106.96 3.6875 145.375 3.6875C183.99 3.6875 219.305 11.4587 244.964 33.9536C270.508 56.3477 286.767 93.5911 286.865 153.188H289.865Z" fill="white"/>
</svg>
