<svg width="351" height="234" viewBox="0 0 351 234" fill="none" xmlns="http://www.w3.org/2000/svg">
<path d="M16.3977 0.926677V6.28762H14.5942V4.31173H12.9283V6.28762H11.1248V0.926677H12.9283V2.82598H14.5942V0.926677H16.3977Z" fill="white"/>
<path d="M21.6608 4.18919C21.6608 4.21472 21.6532 4.35002 21.6379 4.59509H18.734C18.7951 4.75337 18.897 4.8759 19.0396 4.9627C19.1823 5.04439 19.3606 5.08524 19.5746 5.08524C19.758 5.08524 19.9108 5.06226 20.0331 5.01631C20.1605 4.97036 20.298 4.89122 20.4458 4.7789L21.3475 5.69026C20.9399 6.13955 20.3311 6.3642 19.5211 6.3642C19.0167 6.3642 18.5735 6.2723 18.1914 6.0885C17.8093 5.89959 17.5138 5.6392 17.3049 5.30733C17.096 4.97546 16.9916 4.60275 16.9916 4.18919C16.9916 3.77053 17.0935 3.39782 17.2973 3.07105C17.5062 2.73919 17.7889 2.48135 18.1455 2.29755C18.5073 2.11374 18.9123 2.02184 19.3606 2.02184C19.7835 2.02184 20.1681 2.10608 20.5145 2.27457C20.8661 2.44306 21.1437 2.69068 21.3475 3.01744C21.5564 3.34421 21.6608 3.73479 21.6608 4.18919ZM19.3759 3.20125C19.1976 3.20125 19.0498 3.24975 18.9327 3.34676C18.8155 3.44377 18.7391 3.58162 18.7034 3.76032H20.0484C20.0127 3.58673 19.9363 3.45143 19.8191 3.35442C19.7019 3.2523 19.5542 3.20125 19.3759 3.20125Z" fill="white"/>
<path d="M23.9662 2.02184C24.6998 2.02184 25.2602 2.18777 25.6474 2.51964C26.0346 2.8464 26.2282 3.35187 26.2282 4.03602V6.28762H24.6234V5.73621C24.4247 6.15487 24.0299 6.3642 23.4389 6.3642C23.1077 6.3642 22.825 6.30804 22.5906 6.19572C22.3614 6.07829 22.1856 5.92256 22.0633 5.72855C21.9462 5.52943 21.8876 5.30733 21.8876 5.06226C21.8876 4.6487 22.0455 4.3347 22.3614 4.12027C22.6772 3.90583 23.1561 3.79861 23.798 3.79861H24.4935C24.4374 3.47185 24.1751 3.30847 23.7063 3.30847C23.5178 3.30847 23.3268 3.3391 23.1332 3.40037C22.9396 3.45653 22.774 3.53567 22.6365 3.63778L22.0863 2.49667C22.3257 2.3486 22.6136 2.23373 22.9498 2.15204C23.2911 2.06524 23.6299 2.02184 23.9662 2.02184ZM23.9585 5.32265C24.0808 5.32265 24.1903 5.28946 24.2871 5.22309C24.3839 5.15672 24.4553 5.05716 24.5011 4.92441V4.63339H24.0732C23.7216 4.63339 23.5459 4.75082 23.5459 4.98568C23.5459 5.08268 23.5815 5.16437 23.6529 5.23075C23.7293 5.29202 23.8312 5.32265 23.9585 5.32265Z" fill="white"/>
<path d="M31.6726 0.605021V6.28762H30.0296V5.94299C29.7799 6.2238 29.3978 6.3642 28.8833 6.3642C28.5165 6.3642 28.1777 6.27741 27.8669 6.10382C27.5612 5.92512 27.3167 5.66983 27.1333 5.33797C26.955 5.0061 26.8658 4.62317 26.8658 4.18919C26.8658 3.75521 26.955 3.37484 27.1333 3.04808C27.3167 2.71621 27.5612 2.46348 27.8669 2.28989C28.1777 2.11119 28.5165 2.02184 28.8833 2.02184C29.3469 2.02184 29.701 2.14182 29.9455 2.38179V0.605021H31.6726ZM29.2959 5.01631C29.4946 5.01631 29.6576 4.94483 29.785 4.80187C29.9124 4.65381 29.9761 4.44958 29.9761 4.18919C29.9761 3.9288 29.9124 3.72713 29.785 3.58417C29.6576 3.44121 29.4946 3.36974 29.2959 3.36974C29.0972 3.36974 28.9342 3.44121 28.8069 3.58417C28.6795 3.72713 28.6158 3.9288 28.6158 4.18919C28.6158 4.44958 28.6795 4.65381 28.8069 4.80187C28.9342 4.94483 29.0972 5.01631 29.2959 5.01631Z" fill="white"/>
<path d="M37.5865 6.41015C37.0108 6.41015 36.4937 6.29017 36.0352 6.05021C35.5767 5.81024 35.2175 5.47837 34.9577 5.0546C34.6979 4.62573 34.568 4.14324 34.568 3.60715C34.568 3.07105 34.6979 2.59112 34.9577 2.16735C35.2175 1.73848 35.5767 1.40406 36.0352 1.16409C36.4937 0.924124 37.0108 0.804141 37.5865 0.804141C38.1622 0.804141 38.6793 0.924124 39.1378 1.16409C39.5963 1.40406 39.9555 1.73848 40.2153 2.16735C40.4752 2.59112 40.6051 3.07105 40.6051 3.60715C40.6051 4.14324 40.4752 4.62573 40.2153 5.0546C39.9555 5.47837 39.5963 5.81024 39.1378 6.05021C38.6793 6.29017 38.1622 6.41015 37.5865 6.41015ZM37.5865 4.94738C37.8107 4.94738 38.0119 4.89377 38.1902 4.78656C38.3736 4.67423 38.5188 4.51851 38.6258 4.31939C38.7328 4.11516 38.7863 3.87775 38.7863 3.60715C38.7863 3.33655 38.7328 3.10169 38.6258 2.90257C38.5188 2.69834 38.3736 2.54262 38.1902 2.4354C38.0119 2.32307 37.8107 2.26691 37.5865 2.26691C37.3624 2.26691 37.1586 2.32307 36.9752 2.4354C36.7969 2.54262 36.6542 2.69834 36.5472 2.90257C36.4402 3.10169 36.3867 3.33655 36.3867 3.60715C36.3867 3.87775 36.4402 4.11516 36.5472 4.31939C36.6542 4.51851 36.7969 4.67423 36.9752 4.78656C37.1586 4.89377 37.3624 4.94738 37.5865 4.94738Z" fill="white"/>
<path d="M43.0708 2.32818H43.9802V3.59183H43.1243V6.28762H41.3972V3.59183H40.8241V2.32818H41.3972V2.3052C41.3972 1.7589 41.5602 1.32747 41.8863 1.01092C42.2124 0.689264 42.6709 0.528436 43.2618 0.528436C43.4554 0.528436 43.6439 0.546305 43.8273 0.582045C44.0107 0.617785 44.1636 0.668841 44.2859 0.735215L43.8732 1.9376C43.7305 1.87122 43.6006 1.83804 43.4835 1.83804C43.3561 1.83804 43.2542 1.87888 43.1778 1.96057C43.1065 2.03716 43.0708 2.15714 43.0708 2.32052V2.32818Z" fill="white"/>
<path d="M51.5807 6.28762L51.5654 3.84456L50.4039 5.80513H49.6091L48.4475 3.9288V6.28762H46.8045V0.926677H48.2871L50.0294 3.78329L51.7259 0.926677H53.2085L53.2237 6.28762H51.5807Z" fill="white"/>
<path d="M55.9145 2.02184C56.6481 2.02184 57.2085 2.18777 57.5957 2.51964C57.9829 2.8464 58.1765 3.35187 58.1765 4.03602V6.28762H56.5717V5.73621C56.373 6.15487 55.9782 6.3642 55.3872 6.3642C55.056 6.3642 54.7733 6.30804 54.5389 6.19572C54.3097 6.07829 54.1339 5.92256 54.0116 5.72855C53.8945 5.52943 53.8359 5.30733 53.8359 5.06226C53.8359 4.6487 53.9938 4.3347 54.3097 4.12027C54.6255 3.90583 55.1044 3.79861 55.7464 3.79861H56.4418C56.3857 3.47185 56.1234 3.30847 55.6547 3.30847C55.4661 3.30847 55.2751 3.3391 55.0815 3.40037C54.8879 3.45653 54.7223 3.53567 54.5848 3.63778L54.0346 2.49667C54.274 2.3486 54.5619 2.23373 54.8981 2.15204C55.2394 2.06524 55.5782 2.02184 55.9145 2.02184ZM55.9068 5.32265C56.0291 5.32265 56.1386 5.28946 56.2354 5.22309C56.3322 5.15672 56.4036 5.05716 56.4494 4.92441V4.63339H56.0215C55.6699 4.63339 55.4942 4.75082 55.4942 4.98568C55.4942 5.08268 55.5298 5.16437 55.6012 5.23075C55.6776 5.29202 55.7795 5.32265 55.9068 5.32265Z" fill="white"/>
<path d="M62.0026 6.14211C61.7428 6.29017 61.3887 6.3642 60.9403 6.3642C60.3545 6.3642 59.9036 6.2238 59.5877 5.94299C59.2719 5.65707 59.1139 5.23075 59.1139 4.66402V3.59183H58.5408V2.32818H59.1139V1.15643H60.841V2.32818H61.6969V3.59183H60.841V4.6487C60.841 4.77634 60.8741 4.8759 60.9403 4.94738C61.0066 5.01886 61.0932 5.0546 61.2002 5.0546C61.3479 5.0546 61.4778 5.01631 61.5899 4.93972L62.0026 6.14211Z" fill="white"/>
<path d="M65.3418 2.02184C65.8564 2.02184 66.269 2.17756 66.5798 2.48901C66.8957 2.80045 67.0536 3.27017 67.0536 3.89817V6.28762H65.3265V4.19685C65.3265 3.71692 65.1558 3.47695 64.8145 3.47695C64.6209 3.47695 64.463 3.54588 64.3407 3.68373C64.2235 3.81648 64.1649 4.02837 64.1649 4.31939V6.28762H62.4379V0.605021H64.1649V2.4354C64.4859 2.15969 64.8782 2.02184 65.3418 2.02184Z" fill="white"/>
<path d="M72.3259 4.18919C72.3259 4.21472 72.3182 4.35002 72.3029 4.59509H69.399C69.4601 4.75337 69.562 4.8759 69.7047 4.9627C69.8473 5.04439 70.0256 5.08524 70.2396 5.08524C70.423 5.08524 70.5759 5.06226 70.6981 5.01631C70.8255 4.97036 70.9631 4.89122 71.1108 4.7789L72.0125 5.69026C71.605 6.13955 70.9962 6.3642 70.1861 6.3642C69.6818 6.3642 69.2385 6.2723 68.8564 6.0885C68.4743 5.89959 68.1788 5.6392 67.97 5.30733C67.7611 4.97546 67.6566 4.60275 67.6566 4.18919C67.6566 3.77053 67.7585 3.39782 67.9623 3.07105C68.1712 2.73919 68.454 2.48135 68.8106 2.29755C69.1723 2.11374 69.5773 2.02184 70.0256 2.02184C70.4485 2.02184 70.8331 2.10608 71.1796 2.27457C71.5311 2.44306 71.8088 2.69068 72.0125 3.01744C72.2214 3.34421 72.3259 3.73479 72.3259 4.18919ZM70.0409 3.20125C69.8626 3.20125 69.7149 3.24975 69.5977 3.34676C69.4805 3.44377 69.4041 3.58162 69.3684 3.76032H70.7134C70.6777 3.58673 70.6013 3.45143 70.4842 3.35442C70.367 3.2523 70.2192 3.20125 70.0409 3.20125Z" fill="white"/>
<path d="M78.4036 2.02184C78.908 2.02184 79.3105 2.17756 79.6111 2.48901C79.9167 2.80045 80.0696 3.27017 80.0696 3.89817V6.28762H78.3425V4.19685C78.3425 3.71692 78.1871 3.47695 77.8763 3.47695C77.7133 3.47695 77.5808 3.53822 77.479 3.66076C77.3822 3.78329 77.3338 3.97731 77.3338 4.2428V6.28762H75.6067V4.19685C75.6067 3.71692 75.4513 3.47695 75.1405 3.47695C74.9775 3.47695 74.845 3.53822 74.7432 3.66076C74.6464 3.78329 74.598 3.97731 74.598 4.2428V6.28762H72.8709V2.09843H74.5139V2.48901C74.8247 2.17756 75.2195 2.02184 75.6984 2.02184C75.9786 2.02184 76.2308 2.07545 76.4549 2.18267C76.6791 2.28478 76.8625 2.44306 77.0052 2.6575C77.1733 2.45327 77.3771 2.29755 77.6165 2.19033C77.856 2.078 78.1183 2.02184 78.4036 2.02184Z" fill="white"/>
<path d="M82.691 2.02184C83.4247 2.02184 83.9851 2.18777 84.3723 2.51964C84.7595 2.8464 84.9531 3.35187 84.9531 4.03602V6.28762H83.3483V5.73621C83.1496 6.15487 82.7547 6.3642 82.1638 6.3642C81.8326 6.3642 81.5499 6.30804 81.3155 6.19572C81.0863 6.07829 80.9105 5.92256 80.7882 5.72855C80.671 5.52943 80.6124 5.30733 80.6124 5.06226C80.6124 4.6487 80.7704 4.3347 81.0862 4.12027C81.4021 3.90583 81.881 3.79861 82.5229 3.79861H83.2183C83.1623 3.47185 82.8999 3.30847 82.4312 3.30847C82.2427 3.30847 82.0517 3.3391 81.8581 3.40037C81.6645 3.45653 81.4989 3.53567 81.3614 3.63778L80.8111 2.49667C81.0506 2.3486 81.3384 2.23373 81.6747 2.15204C82.016 2.06524 82.3548 2.02184 82.691 2.02184ZM82.6834 5.32265C82.8057 5.32265 82.9152 5.28946 83.012 5.22309C83.1088 5.15672 83.1801 5.05716 83.226 4.92441V4.63339H82.798C82.4465 4.63339 82.2707 4.75082 82.2707 4.98568C82.2707 5.08268 82.3064 5.16437 82.3777 5.23075C82.4541 5.29202 82.556 5.32265 82.6834 5.32265Z" fill="white"/>
<path d="M88.7792 6.14211C88.5193 6.29017 88.1653 6.3642 87.7169 6.3642C87.1311 6.3642 86.6802 6.2238 86.3643 5.94299C86.0484 5.65707 85.8905 5.23075 85.8905 4.66402V3.59183H85.3174V2.32818H85.8905V1.15643H87.6176V2.32818H88.4735V3.59183H87.6176V4.6487C87.6176 4.77634 87.6507 4.8759 87.7169 4.94738C87.7832 5.01886 87.8698 5.0546 87.9768 5.0546C88.1245 5.0546 88.2544 5.01631 88.3665 4.93972L88.7792 6.14211Z" fill="white"/>
<path d="M89.2144 2.09843H90.9415V6.28762H89.2144V2.09843ZM90.078 1.76145C89.7672 1.76145 89.515 1.67976 89.3214 1.51638C89.1329 1.34789 89.0387 1.13601 89.0387 0.880726C89.0387 0.625443 89.1329 0.416111 89.3214 0.25273C89.515 0.0842433 89.7672 0 90.078 0C90.3939 0 90.646 0.0791378 90.8345 0.237413C91.023 0.395688 91.1173 0.599915 91.1173 0.850092C91.1173 1.11559 91.023 1.33513 90.8345 1.50872C90.646 1.67721 90.3939 1.76145 90.078 1.76145Z" fill="white"/>
<path d="M93.9538 6.3642C93.4799 6.3642 93.0546 6.2723 92.6776 6.0885C92.3056 5.90469 92.0127 5.64686 91.7987 5.31499C91.5898 4.98312 91.4854 4.60786 91.4854 4.18919C91.4854 3.77053 91.5898 3.39782 91.7987 3.07105C92.0127 2.73919 92.3056 2.48135 92.6776 2.29755C93.0546 2.11374 93.4799 2.02184 93.9538 2.02184C94.4632 2.02184 94.8988 2.13161 95.2605 2.35116C95.6222 2.5707 95.8719 2.87449 96.0094 3.26252L94.6721 3.92115C94.5091 3.55354 94.2671 3.36974 93.9461 3.36974C93.7423 3.36974 93.5717 3.44121 93.4341 3.58417C93.3016 3.72713 93.2354 3.9288 93.2354 4.18919C93.2354 4.45469 93.3016 4.65891 93.4341 4.80187C93.5717 4.94483 93.7423 5.01631 93.9461 5.01631C94.2671 5.01631 94.5091 4.83251 94.6721 4.4649L96.0094 5.12353C95.8719 5.51156 95.6222 5.81535 95.2605 6.03489C94.8988 6.25443 94.4632 6.3642 93.9538 6.3642Z" fill="white"/>
<path d="M98.044 6.3642C97.6873 6.3642 97.3358 6.32591 96.9894 6.24933C96.643 6.17274 96.3627 6.07318 96.1488 5.95065L96.6226 4.80953C96.8162 4.92696 97.0454 5.01886 97.3103 5.08524C97.5753 5.15161 97.8325 5.1848 98.0822 5.1848C98.2809 5.1848 98.4184 5.16948 98.4948 5.13885C98.5764 5.10311 98.6171 5.05205 98.6171 4.98568C98.6171 4.9193 98.5662 4.87335 98.4643 4.84782C98.3675 4.8223 98.207 4.79677 97.9828 4.77124C97.6415 4.73039 97.3511 4.67934 97.1117 4.61807C96.8722 4.55169 96.6608 4.42661 96.4774 4.2428C96.2991 4.059 96.2099 3.79606 96.2099 3.45398C96.2099 3.18338 96.2914 2.94086 96.4544 2.72642C96.6175 2.51198 96.8595 2.34094 97.1804 2.2133C97.5065 2.08566 97.8962 2.02184 98.3496 2.02184C98.6655 2.02184 98.9737 2.05247 99.2743 2.11374C99.58 2.1699 99.8398 2.25415 100.054 2.36647L99.58 3.50759C99.2132 3.30336 98.8107 3.20125 98.3726 3.20125C97.9956 3.20125 97.8071 3.26762 97.8071 3.40037C97.8071 3.46674 97.858 3.51525 97.9599 3.54588C98.0618 3.57141 98.2223 3.59694 98.4414 3.62247C98.7827 3.66331 99.0705 3.71692 99.3049 3.78329C99.5443 3.84967 99.7532 3.97476 99.9315 4.15856C100.115 4.34236 100.207 4.6053 100.207 4.94738C100.207 5.20777 100.125 5.44519 99.9621 5.65962C99.7991 5.87406 99.5545 6.0451 99.2285 6.17274C98.9024 6.30038 98.5076 6.3642 98.044 6.3642Z" fill="white"/>
<path d="M105.841 6.41015C105.275 6.41015 104.766 6.29272 104.312 6.05786C103.859 5.8179 103.502 5.48603 103.242 5.06226C102.988 4.63339 102.86 4.14835 102.86 3.60715C102.86 3.06595 102.988 2.58346 103.242 2.15969C103.502 1.73082 103.859 1.39895 104.312 1.16409C104.766 0.924124 105.275 0.804141 105.841 0.804141C106.36 0.804141 106.824 0.896043 107.231 1.07985C107.639 1.26365 107.975 1.52914 108.24 1.87633L107.101 2.89491C106.77 2.47624 106.381 2.26691 105.932 2.26691C105.555 2.26691 105.252 2.38945 105.023 2.63452C104.794 2.87449 104.679 3.1987 104.679 3.60715C104.679 4.0156 104.794 4.34236 105.023 4.58743C105.252 4.8274 105.555 4.94738 105.932 4.94738C106.381 4.94738 106.77 4.73805 107.101 4.31939L108.24 5.33797C107.975 5.68515 107.639 5.95065 107.231 6.13445C106.824 6.31825 106.36 6.41015 105.841 6.41015Z" fill="white"/>
<path d="M110.804 6.3642C110.34 6.3642 109.923 6.2723 109.551 6.0885C109.184 5.89959 108.896 5.64175 108.687 5.31499C108.478 4.98312 108.374 4.60786 108.374 4.18919C108.374 3.77053 108.478 3.39782 108.687 3.07105C108.896 2.73919 109.184 2.48135 109.551 2.29755C109.923 2.11374 110.34 2.02184 110.804 2.02184C111.273 2.02184 111.69 2.11374 112.057 2.29755C112.429 2.48135 112.717 2.73919 112.921 3.07105C113.13 3.39782 113.234 3.77053 113.234 4.18919C113.234 4.60786 113.13 4.98312 112.921 5.31499C112.717 5.64175 112.429 5.89959 112.057 6.0885C111.69 6.2723 111.273 6.3642 110.804 6.3642ZM110.804 5.01631C111.003 5.01631 111.166 4.94483 111.293 4.80187C111.42 4.65381 111.484 4.44958 111.484 4.18919C111.484 3.9288 111.42 3.72713 111.293 3.58417C111.166 3.44121 111.003 3.36974 110.804 3.36974C110.605 3.36974 110.442 3.44121 110.315 3.58417C110.187 3.72713 110.124 3.9288 110.124 4.18919C110.124 4.44958 110.187 4.65381 110.315 4.80187C110.442 4.94483 110.605 5.01631 110.804 5.01631Z" fill="white"/>
<path d="M119.307 2.02184C119.812 2.02184 120.214 2.17756 120.515 2.48901C120.82 2.80045 120.973 3.27017 120.973 3.89817V6.28762H119.246V4.19685C119.246 3.71692 119.091 3.47695 118.78 3.47695C118.617 3.47695 118.485 3.53822 118.383 3.66076C118.286 3.78329 118.237 3.97731 118.237 4.2428V6.28762H116.51V4.19685C116.51 3.71692 116.355 3.47695 116.044 3.47695C115.881 3.47695 115.749 3.53822 115.647 3.66076C115.55 3.78329 115.502 3.97731 115.502 4.2428V6.28762H113.775V2.09843H115.418V2.48901C115.728 2.17756 116.123 2.02184 116.602 2.02184C116.882 2.02184 117.134 2.07545 117.359 2.18267C117.583 2.28478 117.766 2.44306 117.909 2.6575C118.077 2.45327 118.281 2.29755 118.52 2.19033C118.76 2.078 119.022 2.02184 119.307 2.02184Z" fill="white"/>
<path d="M124.512 2.02184C124.879 2.02184 125.215 2.11119 125.52 2.28989C125.831 2.46348 126.076 2.71621 126.254 3.04808C126.438 3.37995 126.529 3.76287 126.529 4.19685C126.529 4.63083 126.438 5.01376 126.254 5.34562C126.076 5.67239 125.831 5.92512 125.52 6.10382C125.215 6.27741 124.879 6.3642 124.512 6.3642C124.048 6.3642 123.694 6.24422 123.45 6.00425V7.77337H121.722V2.09843H123.365V2.44306C123.615 2.16225 123.997 2.02184 124.512 2.02184ZM124.099 5.01631C124.298 5.01631 124.461 4.94483 124.588 4.80187C124.716 4.65891 124.779 4.45724 124.779 4.19685C124.779 3.93646 124.716 3.73479 124.588 3.59183C124.461 3.44377 124.298 3.36974 124.099 3.36974C123.9 3.36974 123.737 3.44377 123.61 3.59183C123.483 3.73479 123.419 3.93646 123.419 4.19685C123.419 4.45724 123.483 4.65891 123.61 4.80187C123.737 4.94483 123.9 5.01631 124.099 5.01631Z" fill="white"/>
<path d="M131.643 2.09843V6.28762H130V5.88938C129.847 6.04765 129.669 6.16764 129.465 6.24933C129.261 6.32591 129.045 6.3642 128.816 6.3642C128.286 6.3642 127.86 6.20338 127.539 5.88172C127.218 5.55496 127.058 5.06481 127.058 4.41129V2.09843H128.785V4.11261C128.785 4.39853 128.831 4.60275 128.923 4.72529C129.014 4.84782 129.149 4.90909 129.328 4.90909C129.496 4.90909 129.636 4.84272 129.748 4.70997C129.86 4.57212 129.916 4.35768 129.916 4.06666V2.09843H131.643Z" fill="white"/>
<path d="M135.489 6.14211C135.229 6.29017 134.875 6.3642 134.427 6.3642C133.841 6.3642 133.39 6.2238 133.074 5.94299C132.758 5.65707 132.6 5.23075 132.6 4.66402V3.59183H132.027V2.32818H132.6V1.15643H134.327V2.32818H135.183V3.59183H134.327V4.6487C134.327 4.77634 134.36 4.8759 134.427 4.94738C134.493 5.01886 134.58 5.0546 134.687 5.0546C134.834 5.0546 134.964 5.01631 135.076 4.93972L135.489 6.14211Z" fill="white"/>
<path d="M137.796 2.02184C138.53 2.02184 139.09 2.18777 139.478 2.51964C139.865 2.8464 140.058 3.35187 140.058 4.03602V6.28762H138.454V5.73621C138.255 6.15487 137.86 6.3642 137.269 6.3642C136.938 6.3642 136.655 6.30804 136.421 6.19572C136.192 6.07829 136.016 5.92256 135.894 5.72855C135.776 5.52943 135.718 5.30733 135.718 5.06226C135.718 4.6487 135.876 4.3347 136.192 4.12027C136.508 3.90583 136.986 3.79861 137.628 3.79861H138.324C138.268 3.47185 138.005 3.30847 137.537 3.30847C137.348 3.30847 137.157 3.3391 136.964 3.40037C136.77 3.45653 136.604 3.53567 136.467 3.63778L135.917 2.49667C136.156 2.3486 136.444 2.23373 136.78 2.15204C137.121 2.06524 137.46 2.02184 137.796 2.02184ZM137.789 5.32265C137.911 5.32265 138.021 5.28946 138.117 5.22309C138.214 5.15672 138.286 5.05716 138.331 4.92441V4.63339H137.903C137.552 4.63339 137.376 4.75082 137.376 4.98568C137.376 5.08268 137.412 5.16437 137.483 5.23075C137.56 5.29202 137.661 5.32265 137.789 5.32265Z" fill="white"/>
<path d="M143.885 6.14211C143.625 6.29017 143.271 6.3642 142.822 6.3642C142.236 6.3642 141.786 6.2238 141.47 5.94299C141.154 5.65707 140.996 5.23075 140.996 4.66402V3.59183H140.423V2.32818H140.996V1.15643H142.723V2.32818H143.579V3.59183H142.723V4.6487C142.723 4.77634 142.756 4.8759 142.822 4.94738C142.889 5.01886 142.975 5.0546 143.082 5.0546C143.23 5.0546 143.36 5.01631 143.472 4.93972L143.885 6.14211Z" fill="white"/>
<path d="M144.32 2.09843H146.047V6.28762H144.32V2.09843ZM145.183 1.76145C144.873 1.76145 144.62 1.67976 144.427 1.51638C144.238 1.34789 144.144 1.13601 144.144 0.880726C144.144 0.625443 144.238 0.416111 144.427 0.25273C144.62 0.0842433 144.873 0 145.183 0C145.499 0 145.751 0.0791378 145.94 0.237413C146.128 0.395688 146.223 0.599915 146.223 0.850092C146.223 1.11559 146.128 1.33513 145.94 1.50872C145.751 1.67721 145.499 1.76145 145.183 1.76145Z" fill="white"/>
<path d="M149.021 6.3642C148.557 6.3642 148.14 6.2723 147.768 6.0885C147.401 5.89959 147.113 5.64175 146.904 5.31499C146.695 4.98312 146.591 4.60786 146.591 4.18919C146.591 3.77053 146.695 3.39782 146.904 3.07105C147.113 2.73919 147.401 2.48135 147.768 2.29755C148.14 2.11374 148.557 2.02184 149.021 2.02184C149.49 2.02184 149.907 2.11374 150.274 2.29755C150.646 2.48135 150.934 2.73919 151.138 3.07105C151.347 3.39782 151.451 3.77053 151.451 4.18919C151.451 4.60786 151.347 4.98312 151.138 5.31499C150.934 5.64175 150.646 5.89959 150.274 6.0885C149.907 6.2723 149.49 6.3642 149.021 6.3642ZM149.021 5.01631C149.22 5.01631 149.383 4.94483 149.51 4.80187C149.637 4.65381 149.701 4.44958 149.701 4.18919C149.701 3.9288 149.637 3.72713 149.51 3.58417C149.383 3.44121 149.22 3.36974 149.021 3.36974C148.822 3.36974 148.659 3.44121 148.532 3.58417C148.405 3.72713 148.341 3.9288 148.341 4.18919C148.341 4.44958 148.405 4.65381 148.532 4.80187C148.659 4.94483 148.822 5.01631 149.021 5.01631Z" fill="white"/>
<path d="M154.896 2.02184C155.41 2.02184 155.823 2.17756 156.134 2.48901C156.449 2.80045 156.607 3.27017 156.607 3.89817V6.28762H154.88V4.19685C154.88 3.71692 154.71 3.47695 154.368 3.47695C154.175 3.47695 154.017 3.54588 153.894 3.68373C153.777 3.81648 153.719 4.02837 153.719 4.31939V6.28762H151.992V2.09843H153.635V2.51198C153.798 2.3486 153.986 2.22607 154.2 2.14438C154.414 2.06269 154.646 2.02184 154.896 2.02184Z" fill="white"/>
<path d="M162.468 6.41015C161.903 6.41015 161.393 6.29272 160.94 6.05786C160.487 5.8179 160.13 5.48603 159.87 5.06226C159.615 4.63339 159.488 4.14835 159.488 3.60715C159.488 3.06595 159.615 2.58346 159.87 2.15969C160.13 1.73082 160.487 1.39895 160.94 1.16409C161.393 0.924124 161.903 0.804141 162.468 0.804141C162.988 0.804141 163.452 0.896043 163.859 1.07985C164.267 1.26365 164.603 1.52914 164.868 1.87633L163.729 2.89491C163.398 2.47624 163.008 2.26691 162.56 2.26691C162.183 2.26691 161.88 2.38945 161.651 2.63452C161.421 2.87449 161.307 3.1987 161.307 3.60715C161.307 4.0156 161.421 4.34236 161.651 4.58743C161.88 4.8274 162.183 4.94738 162.56 4.94738C163.008 4.94738 163.398 4.73805 163.729 4.31939L164.868 5.33797C164.603 5.68515 164.267 5.95065 163.859 6.13445C163.452 6.31825 162.988 6.41015 162.468 6.41015Z" fill="white"/>
<path d="M167.432 6.3642C166.968 6.3642 166.55 6.2723 166.178 6.0885C165.812 5.89959 165.524 5.64175 165.315 5.31499C165.106 4.98312 165.002 4.60786 165.002 4.18919C165.002 3.77053 165.106 3.39782 165.315 3.07105C165.524 2.73919 165.812 2.48135 166.178 2.29755C166.55 2.11374 166.968 2.02184 167.432 2.02184C167.9 2.02184 168.318 2.11374 168.685 2.29755C169.057 2.48135 169.345 2.73919 169.549 3.07105C169.757 3.39782 169.862 3.77053 169.862 4.18919C169.862 4.60786 169.757 4.98312 169.549 5.31499C169.345 5.64175 169.057 5.89959 168.685 6.0885C168.318 6.2723 167.9 6.3642 167.432 6.3642ZM167.432 5.01631C167.63 5.01631 167.793 4.94483 167.921 4.80187C168.048 4.65381 168.112 4.44958 168.112 4.18919C168.112 3.9288 168.048 3.72713 167.921 3.58417C167.793 3.44121 167.63 3.36974 167.432 3.36974C167.233 3.36974 167.07 3.44121 166.943 3.58417C166.815 3.72713 166.752 3.9288 166.752 4.18919C166.752 4.44958 166.815 4.65381 166.943 4.80187C167.07 4.94483 167.233 5.01631 167.432 5.01631Z" fill="white"/>
<path d="M175.935 2.02184C176.44 2.02184 176.842 2.17756 177.143 2.48901C177.448 2.80045 177.601 3.27017 177.601 3.89817V6.28762H175.874V4.19685C175.874 3.71692 175.719 3.47695 175.408 3.47695C175.245 3.47695 175.112 3.53822 175.01 3.66076C174.914 3.78329 174.865 3.97731 174.865 4.2428V6.28762H173.138V4.19685C173.138 3.71692 172.983 3.47695 172.672 3.47695C172.509 3.47695 172.377 3.53822 172.275 3.66076C172.178 3.78329 172.129 3.97731 172.129 4.2428V6.28762H170.402V2.09843H172.045V2.48901C172.356 2.17756 172.751 2.02184 173.23 2.02184C173.51 2.02184 173.762 2.07545 173.986 2.18267C174.211 2.28478 174.394 2.44306 174.537 2.6575C174.705 2.45327 174.909 2.29755 175.148 2.19033C175.387 2.078 175.65 2.02184 175.935 2.02184Z" fill="white"/>
<path d="M181.14 2.02184C181.506 2.02184 181.843 2.11119 182.148 2.28989C182.459 2.46348 182.704 2.71621 182.882 3.04808C183.065 3.37995 183.157 3.76287 183.157 4.19685C183.157 4.63083 183.065 5.01376 182.882 5.34562C182.704 5.67239 182.459 5.92512 182.148 6.10382C181.843 6.27741 181.506 6.3642 181.14 6.3642C180.676 6.3642 180.322 6.24422 180.077 6.00425V7.77337H178.35V2.09843H179.993V2.44306C180.243 2.16225 180.625 2.02184 181.14 2.02184ZM180.727 5.01631C180.926 5.01631 181.089 4.94483 181.216 4.80187C181.343 4.65891 181.407 4.45724 181.407 4.19685C181.407 3.93646 181.343 3.73479 181.216 3.59183C181.089 3.44377 180.926 3.36974 180.727 3.36974C180.528 3.36974 180.365 3.44377 180.238 3.59183C180.11 3.73479 180.047 3.93646 180.047 4.19685C180.047 4.45724 180.11 4.65891 180.238 4.80187C180.365 4.94483 180.528 5.01631 180.727 5.01631Z" fill="white"/>
<path d="M188.149 4.18919C188.149 4.21472 188.141 4.35002 188.126 4.59509H185.222C185.283 4.75337 185.385 4.8759 185.528 4.9627C185.67 5.04439 185.849 5.08524 186.062 5.08524C186.246 5.08524 186.399 5.06226 186.521 5.01631C186.648 4.97036 186.786 4.89122 186.934 4.7789L187.835 5.69026C187.428 6.13955 186.819 6.3642 186.009 6.3642C185.505 6.3642 185.061 6.2723 184.679 6.0885C184.297 5.89959 184.002 5.6392 183.793 5.30733C183.584 4.97546 183.48 4.60275 183.48 4.18919C183.48 3.77053 183.581 3.39782 183.785 3.07105C183.994 2.73919 184.277 2.48135 184.633 2.29755C184.995 2.11374 185.4 2.02184 185.849 2.02184C186.271 2.02184 186.656 2.10608 187.002 2.27457C187.354 2.44306 187.632 2.69068 187.835 3.01744C188.044 3.34421 188.149 3.73479 188.149 4.18919ZM185.864 3.20125C185.685 3.20125 185.538 3.24975 185.421 3.34676C185.303 3.44377 185.227 3.58162 185.191 3.76032H186.536C186.501 3.58673 186.424 3.45143 186.307 3.35442C186.19 3.2523 186.042 3.20125 185.864 3.20125Z" fill="white"/>
<path d="M191.773 6.14211C191.514 6.29017 191.16 6.3642 190.711 6.3642C190.125 6.3642 189.674 6.2238 189.359 5.94299C189.043 5.65707 188.885 5.23075 188.885 4.66402V3.59183H188.312V2.32818H188.885V1.15643H190.612V2.32818H191.468V3.59183H190.612V4.6487C190.612 4.77634 190.645 4.8759 190.711 4.94738C190.777 5.01886 190.864 5.0546 190.971 5.0546C191.119 5.0546 191.249 5.01631 191.361 4.93972L191.773 6.14211Z" fill="white"/>
<path d="M192.209 2.09843H193.936V6.28762H192.209V2.09843ZM193.072 1.76145C192.762 1.76145 192.509 1.67976 192.316 1.51638C192.127 1.34789 192.033 1.13601 192.033 0.880726C192.033 0.625443 192.127 0.416111 192.316 0.25273C192.509 0.0842433 192.762 0 193.072 0C193.388 0 193.64 0.0791378 193.829 0.237413C194.017 0.395688 194.112 0.599915 194.112 0.850092C194.112 1.11559 194.017 1.33513 193.829 1.50872C193.64 1.67721 193.388 1.76145 193.072 1.76145Z" fill="white"/>
<path d="M197.781 6.14211C197.521 6.29017 197.167 6.3642 196.719 6.3642C196.133 6.3642 195.682 6.2238 195.366 5.94299C195.05 5.65707 194.892 5.23075 194.892 4.66402V3.59183H194.319V2.32818H194.892V1.15643H196.619V2.32818H197.475V3.59183H196.619V4.6487C196.619 4.77634 196.653 4.8759 196.719 4.94738C196.785 5.01886 196.872 5.0546 196.979 5.0546C197.126 5.0546 197.256 5.01631 197.368 4.93972L197.781 6.14211Z" fill="white"/>
<path d="M198.216 2.09843H199.943V6.28762H198.216V2.09843ZM199.08 1.76145C198.769 1.76145 198.517 1.67976 198.323 1.51638C198.135 1.34789 198.041 1.13601 198.041 0.880726C198.041 0.625443 198.135 0.416111 198.323 0.25273C198.517 0.0842433 198.769 0 199.08 0C199.396 0 199.648 0.0791378 199.836 0.237413C200.025 0.395688 200.119 0.599915 200.119 0.850092C200.119 1.11559 200.025 1.33513 199.836 1.50872C199.648 1.67721 199.396 1.76145 199.08 1.76145Z" fill="white"/>
<path d="M202.917 6.3642C202.454 6.3642 202.036 6.2723 201.664 6.0885C201.297 5.89959 201.009 5.64175 200.801 5.31499C200.592 4.98312 200.487 4.60786 200.487 4.18919C200.487 3.77053 200.592 3.39782 200.801 3.07105C201.009 2.73919 201.297 2.48135 201.664 2.29755C202.036 2.11374 202.454 2.02184 202.917 2.02184C203.386 2.02184 203.804 2.11374 204.171 2.29755C204.543 2.48135 204.83 2.73919 205.034 3.07105C205.243 3.39782 205.348 3.77053 205.348 4.18919C205.348 4.60786 205.243 4.98312 205.034 5.31499C204.83 5.64175 204.543 5.89959 204.171 6.0885C203.804 6.2723 203.386 6.3642 202.917 6.3642ZM202.917 5.01631C203.116 5.01631 203.279 4.94483 203.406 4.80187C203.534 4.65381 203.598 4.44958 203.598 4.18919C203.598 3.9288 203.534 3.72713 203.406 3.58417C203.279 3.44121 203.116 3.36974 202.917 3.36974C202.719 3.36974 202.556 3.44121 202.428 3.58417C202.301 3.72713 202.237 3.9288 202.237 4.18919C202.237 4.44958 202.301 4.65381 202.428 4.80187C202.556 4.94483 202.719 5.01631 202.917 5.01631Z" fill="white"/>
<path d="M208.792 2.02184C209.307 2.02184 209.719 2.17756 210.03 2.48901C210.346 2.80045 210.504 3.27017 210.504 3.89817V6.28762H208.777V4.19685C208.777 3.71692 208.606 3.47695 208.265 3.47695C208.071 3.47695 207.913 3.54588 207.791 3.68373C207.674 3.81648 207.615 4.02837 207.615 4.31939V6.28762H205.888V2.09843H207.531V2.51198C207.694 2.3486 207.883 2.22607 208.097 2.14438C208.311 2.06269 208.542 2.02184 208.792 2.02184Z" fill="white"/>
<path d="M217.664 4.88612V6.28762H213.377V5.17714L215.31 3.38505C215.478 3.22678 215.59 3.09148 215.646 2.97915C215.702 2.86683 215.731 2.75706 215.731 2.64984C215.731 2.51709 215.685 2.41498 215.593 2.3435C215.506 2.26691 215.379 2.22862 215.211 2.22862C215.048 2.22862 214.895 2.27202 214.752 2.35881C214.61 2.44561 214.5 2.56815 214.424 2.72642L213.063 2.04482C213.267 1.66189 213.565 1.36066 213.958 1.14111C214.35 0.916466 214.824 0.804141 215.379 0.804141C215.802 0.804141 216.176 0.873068 216.502 1.01092C216.828 1.14877 217.083 1.34534 217.267 1.60062C217.45 1.85591 217.542 2.14948 217.542 2.48135C217.542 2.77748 217.478 3.05574 217.351 3.31613C217.228 3.57141 216.986 3.86243 216.625 4.18919L215.86 4.88612H217.664Z" fill="white"/>
<path d="M220.456 6.41015C219.982 6.41015 219.562 6.30038 219.195 6.08084C218.834 5.85619 218.548 5.53453 218.339 5.11587C218.136 4.6921 218.034 4.18919 218.034 3.60715C218.034 3.0251 218.136 2.52475 218.339 2.10608C218.548 1.68231 218.834 1.36066 219.195 1.14111C219.562 0.916466 219.982 0.804141 220.456 0.804141C220.93 0.804141 221.348 0.916466 221.71 1.14111C222.076 1.36066 222.362 1.68231 222.565 2.10608C222.774 2.52475 222.879 3.0251 222.879 3.60715C222.879 4.18919 222.774 4.6921 222.565 5.11587C222.362 5.53453 222.076 5.85619 221.71 6.08084C221.348 6.30038 220.93 6.41015 220.456 6.41015ZM220.456 4.9627C220.864 4.9627 221.068 4.51085 221.068 3.60715C221.068 2.70345 220.864 2.2516 220.456 2.2516C220.049 2.2516 219.845 2.70345 219.845 3.60715C219.845 4.51085 220.049 4.9627 220.456 4.9627Z" fill="white"/>
<path d="M227.53 4.88612V6.28762H223.243V5.17714L225.176 3.38505C225.344 3.22678 225.456 3.09148 225.512 2.97915C225.568 2.86683 225.596 2.75706 225.596 2.64984C225.596 2.51709 225.55 2.41498 225.459 2.3435C225.372 2.26691 225.245 2.22862 225.077 2.22862C224.914 2.22862 224.761 2.27202 224.618 2.35881C224.476 2.44561 224.366 2.56815 224.29 2.72642L222.929 2.04482C223.133 1.66189 223.431 1.36066 223.823 1.14111C224.216 0.916466 224.69 0.804141 225.245 0.804141C225.668 0.804141 226.042 0.873068 226.368 1.01092C226.694 1.14877 226.949 1.34534 227.132 1.60062C227.316 1.85591 227.407 2.14948 227.407 2.48135C227.407 2.77748 227.344 3.05574 227.216 3.31613C227.094 3.57141 226.852 3.86243 226.49 4.18919L225.726 4.88612H227.53Z" fill="white"/>
<path d="M230.437 0.926677V6.28762H228.633V2.28989H227.716V0.926677H230.437Z" fill="white"/>
<path d="M8.65138 2.20309H0.5V234H350.5V2.20309H232.814V5.26649H347.443V230.937H3.55677V5.26649H8.65138V2.20309Z" fill="white"/>
</svg>
