<svg width="351" height="234" viewBox="0 0 351 234" fill="none" xmlns="http://www.w3.org/2000/svg">
<path d="M8.65138 2.20309H0.5V234H350.5V2.20309H142.64V5.26649H347.443V230.937H3.55677V5.26649H8.65138V2.20309Z" fill="white"/>
<path d="M16.9072 0.926677V6.28762H15.1037V4.31173H13.4378V6.28762H11.6343V0.926677H13.4378V2.82598H15.1037V0.926677H16.9072Z" fill="white"/>
<path d="M22.1703 4.18919C22.1703 4.21472 22.1626 4.35002 22.1474 4.59509H19.2434C19.3046 4.75337 19.4065 4.8759 19.5491 4.9627C19.6917 5.04439 19.8701 5.08524 20.084 5.08524C20.2674 5.08524 20.4203 5.06226 20.5425 5.01631C20.6699 4.97036 20.8075 4.89122 20.9552 4.7789L21.857 5.69026C21.4494 6.13955 20.8406 6.3642 20.0305 6.3642C19.5262 6.3642 19.0829 6.2723 18.7008 6.0885C18.3188 5.89959 18.0233 5.6392 17.8144 5.30733C17.6055 4.97546 17.5011 4.60275 17.5011 4.18919C17.5011 3.77053 17.603 3.39782 17.8067 3.07105C18.0156 2.73919 18.2984 2.48135 18.655 2.29755C19.0167 2.11374 19.4217 2.02184 19.8701 2.02184C20.2929 2.02184 20.6776 2.10608 21.024 2.27457C21.3755 2.44306 21.6532 2.69068 21.857 3.01744C22.0658 3.34421 22.1703 3.73479 22.1703 4.18919ZM19.8853 3.20125C19.707 3.20125 19.5593 3.24975 19.4421 3.34676C19.3249 3.44377 19.2485 3.58162 19.2129 3.76032H20.5578C20.5222 3.58673 20.4458 3.45143 20.3286 3.35442C20.2114 3.2523 20.0637 3.20125 19.8853 3.20125Z" fill="white"/>
<path d="M24.4756 2.02184C25.2093 2.02184 25.7697 2.18777 26.1569 2.51964C26.544 2.8464 26.7376 3.35187 26.7376 4.03602V6.28762H25.1328V5.73621C24.9341 6.15487 24.5393 6.3642 23.9483 6.3642C23.6172 6.3642 23.3344 6.30804 23.1001 6.19572C22.8708 6.07829 22.6951 5.92256 22.5728 5.72855C22.4556 5.52943 22.397 5.30733 22.397 5.06226C22.397 4.6487 22.555 4.3347 22.8708 4.12027C23.1867 3.90583 23.6656 3.79861 24.3075 3.79861H25.0029C24.9469 3.47185 24.6845 3.30847 24.2158 3.30847C24.0273 3.30847 23.8363 3.3391 23.6427 3.40037C23.4491 3.45653 23.2835 3.53567 23.1459 3.63778L22.5957 2.49667C22.8352 2.3486 23.123 2.23373 23.4593 2.15204C23.8006 2.06524 24.1394 2.02184 24.4756 2.02184ZM24.468 5.32265C24.5903 5.32265 24.6998 5.28946 24.7966 5.22309C24.8934 5.15672 24.9647 5.05716 25.0106 4.92441V4.63339H24.5826C24.2311 4.63339 24.0553 4.75082 24.0553 4.98568C24.0553 5.08268 24.091 5.16437 24.1623 5.23075C24.2387 5.29202 24.3406 5.32265 24.468 5.32265Z" fill="white"/>
<path d="M32.182 0.605021V6.28762H30.539V5.94299C30.2894 6.2238 29.9073 6.3642 29.3927 6.3642C29.0259 6.3642 28.6871 6.27741 28.3764 6.10382C28.0707 5.92512 27.8261 5.66983 27.6427 5.33797C27.4644 5.0061 27.3753 4.62317 27.3753 4.18919C27.3753 3.75521 27.4644 3.37484 27.6427 3.04808C27.8261 2.71621 28.0707 2.46348 28.3764 2.28989C28.6871 2.11119 29.0259 2.02184 29.3927 2.02184C29.8563 2.02184 30.2104 2.14182 30.455 2.38179V0.605021H32.182ZM29.8054 5.01631C30.0041 5.01631 30.1671 4.94483 30.2945 4.80187C30.4218 4.65381 30.4855 4.44958 30.4855 4.18919C30.4855 3.9288 30.4218 3.72713 30.2945 3.58417C30.1671 3.44121 30.0041 3.36974 29.8054 3.36974C29.6067 3.36974 29.4437 3.44121 29.3163 3.58417C29.1889 3.72713 29.1253 3.9288 29.1253 4.18919C29.1253 4.44958 29.1889 4.65381 29.3163 4.80187C29.4437 4.94483 29.6067 5.01631 29.8054 5.01631Z" fill="white"/>
<path d="M37.4464 6.3642C36.9828 6.3642 36.5651 6.2723 36.1931 6.0885C35.8263 5.89959 35.5385 5.64175 35.3296 5.31499C35.1207 4.98312 35.0163 4.60786 35.0163 4.18919C35.0163 3.77053 35.1207 3.39782 35.3296 3.07105C35.5385 2.73919 35.8263 2.48135 36.1931 2.29755C36.5651 2.11374 36.9828 2.02184 37.4464 2.02184C37.9151 2.02184 38.3329 2.11374 38.6997 2.29755C39.0716 2.48135 39.3594 2.73919 39.5632 3.07105C39.7721 3.39782 39.8766 3.77053 39.8766 4.18919C39.8766 4.60786 39.7721 4.98312 39.5632 5.31499C39.3594 5.64175 39.0716 5.89959 38.6997 6.0885C38.3329 6.2723 37.9151 6.3642 37.4464 6.3642ZM37.4464 5.01631C37.6451 5.01631 37.8081 4.94483 37.9355 4.80187C38.0629 4.65381 38.1265 4.44958 38.1265 4.18919C38.1265 3.9288 38.0629 3.72713 37.9355 3.58417C37.8081 3.44121 37.6451 3.36974 37.4464 3.36974C37.2477 3.36974 37.0847 3.44121 36.9573 3.58417C36.83 3.72713 36.7663 3.9288 36.7663 4.18919C36.7663 4.44958 36.83 4.65381 36.9573 4.80187C37.0847 4.94483 37.2477 5.01631 37.4464 5.01631Z" fill="white"/>
<path d="M42.2817 2.32818H43.1911V3.59183H42.3352V6.28762H40.6081V3.59183H40.035V2.32818H40.6081V2.3052C40.6081 1.7589 40.7712 1.32747 41.0972 1.01092C41.4233 0.689264 41.8818 0.528436 42.4728 0.528436C42.6664 0.528436 42.8549 0.546305 43.0383 0.582045C43.2217 0.617785 43.3745 0.668841 43.4968 0.735215L43.0841 1.9376C42.9415 1.87122 42.8116 1.83804 42.6944 1.83804C42.567 1.83804 42.4651 1.87888 42.3887 1.96057C42.3174 2.03716 42.2817 2.15714 42.2817 2.32052V2.32818Z" fill="white"/>
<path d="M50.7917 6.28762L50.7764 3.84456L49.6148 5.80513H48.82L47.6585 3.9288V6.28762H46.0155V0.926677H47.498L49.2403 3.78329L50.9369 0.926677H52.4194L52.4347 6.28762H50.7917Z" fill="white"/>
<path d="M57.7007 4.18919C57.7007 4.21472 57.6931 4.35002 57.6778 4.59509H54.7739C54.835 4.75337 54.9369 4.8759 55.0796 4.9627C55.2222 5.04439 55.4005 5.08524 55.6145 5.08524C55.7979 5.08524 55.9507 5.06226 56.073 5.01631C56.2004 4.97036 56.3379 4.89122 56.4857 4.7789L57.3874 5.69026C56.9798 6.13955 56.371 6.3642 55.561 6.3642C55.0566 6.3642 54.6134 6.2723 54.2313 6.0885C53.8492 5.89959 53.5537 5.6392 53.3448 5.30733C53.136 4.97546 53.0315 4.60275 53.0315 4.18919C53.0315 3.77053 53.1334 3.39782 53.3372 3.07105C53.5461 2.73919 53.8288 2.48135 54.1855 2.29755C54.5472 2.11374 54.9522 2.02184 55.4005 2.02184C55.8234 2.02184 56.208 2.10608 56.5544 2.27457C56.906 2.44306 57.1836 2.69068 57.3874 3.01744C57.5963 3.34421 57.7007 3.73479 57.7007 4.18919ZM55.4158 3.20125C55.2375 3.20125 55.0897 3.24975 54.9726 3.34676C54.8554 3.44377 54.779 3.58162 54.7433 3.76032H56.0883C56.0526 3.58673 55.9762 3.45143 55.859 3.35442C55.7419 3.2523 55.5941 3.20125 55.4158 3.20125Z" fill="white"/>
<path d="M62.8691 0.605021V6.28762H61.2261V5.94299C60.9765 6.2238 60.5944 6.3642 60.0798 6.3642C59.713 6.3642 59.3742 6.27741 59.0634 6.10382C58.7578 5.92512 58.5132 5.66983 58.3298 5.33797C58.1515 5.0061 58.0624 4.62317 58.0624 4.18919C58.0624 3.75521 58.1515 3.37484 58.3298 3.04808C58.5132 2.71621 58.7578 2.46348 59.0634 2.28989C59.3742 2.11119 59.713 2.02184 60.0798 2.02184C60.5434 2.02184 60.8975 2.14182 61.142 2.38179V0.605021H62.8691ZM60.4925 5.01631C60.6912 5.01631 60.8542 4.94483 60.9816 4.80187C61.1089 4.65381 61.1726 4.44958 61.1726 4.18919C61.1726 3.9288 61.1089 3.72713 60.9816 3.58417C60.8542 3.44121 60.6912 3.36974 60.4925 3.36974C60.2938 3.36974 60.1308 3.44121 60.0034 3.58417C59.876 3.72713 59.8124 3.9288 59.8124 4.18919C59.8124 4.44958 59.876 4.65381 60.0034 4.80187C60.1308 4.94483 60.2938 5.01631 60.4925 5.01631Z" fill="white"/>
<path d="M63.6339 2.09843H65.361V6.28762H63.6339V2.09843ZM64.4974 1.76145C64.1867 1.76145 63.9345 1.67976 63.7409 1.51638C63.5524 1.34789 63.4581 1.13601 63.4581 0.880726C63.4581 0.625443 63.5524 0.416111 63.7409 0.25273C63.9345 0.0842433 64.1867 0 64.4974 0C64.8133 0 65.0655 0.0791378 65.254 0.237413C65.4425 0.395688 65.5368 0.599915 65.5368 0.850092C65.5368 1.11559 65.4425 1.33513 65.254 1.50872C65.0655 1.67721 64.8133 1.76145 64.4974 1.76145Z" fill="white"/>
<path d="M67.9988 2.02184C68.7324 2.02184 69.2928 2.18777 69.68 2.51964C70.0672 2.8464 70.2608 3.35187 70.2608 4.03602V6.28762H68.656V5.73621C68.4573 6.15487 68.0624 6.3642 67.4715 6.3642C67.1403 6.3642 66.8576 6.30804 66.6232 6.19572C66.394 6.07829 66.2182 5.92256 66.0959 5.72855C65.9787 5.52943 65.9202 5.30733 65.9202 5.06226C65.9202 4.6487 66.0781 4.3347 66.394 4.12027C66.7098 3.90583 67.1887 3.79861 67.8306 3.79861H68.5261C68.47 3.47185 68.2076 3.30847 67.7389 3.30847C67.5504 3.30847 67.3594 3.3391 67.1658 3.40037C66.9722 3.45653 66.8066 3.53567 66.6691 3.63778L66.1189 2.49667C66.3583 2.3486 66.6461 2.23373 66.9824 2.15204C67.3237 2.06524 67.6625 2.02184 67.9988 2.02184ZM67.9911 5.32265C68.1134 5.32265 68.2229 5.28946 68.3197 5.22309C68.4165 5.15672 68.4878 5.05716 68.5337 4.92441V4.63339H68.1057C67.7542 4.63339 67.5785 4.75082 67.5785 4.98568C67.5785 5.08268 67.6141 5.16437 67.6854 5.23075C67.7619 5.29202 67.8638 5.32265 67.9911 5.32265Z" fill="white"/>
<path d="M75.1705 2.02184C75.9042 2.02184 76.4646 2.18777 76.8518 2.51964C77.2389 2.8464 77.4325 3.35187 77.4325 4.03602V6.28762H75.8277V5.73621C75.629 6.15487 75.2342 6.3642 74.6432 6.3642C74.3121 6.3642 74.0293 6.30804 73.795 6.19572C73.5657 6.07829 73.39 5.92256 73.2677 5.72855C73.1505 5.52943 73.0919 5.30733 73.0919 5.06226C73.0919 4.6487 73.2499 4.3347 73.5657 4.12027C73.8816 3.90583 74.3605 3.79861 75.0024 3.79861H75.6978C75.6418 3.47185 75.3794 3.30847 74.9107 3.30847C74.7222 3.30847 74.5311 3.3391 74.3376 3.40037C74.144 3.45653 73.9784 3.53567 73.8408 3.63778L73.2906 2.49667C73.5301 2.3486 73.8179 2.23373 74.1541 2.15204C74.4955 2.06524 74.8343 2.02184 75.1705 2.02184ZM75.1629 5.32265C75.2852 5.32265 75.3947 5.28946 75.4915 5.22309C75.5883 5.15672 75.6596 5.05716 75.7055 4.92441V4.63339H75.2775C74.926 4.63339 74.7502 4.75082 74.7502 4.98568C74.7502 5.08268 74.7859 5.16437 74.8572 5.23075C74.9336 5.29202 75.0355 5.32265 75.1629 5.32265Z" fill="white"/>
<path d="M81.0829 2.02184C81.5974 2.02184 82.0101 2.17756 82.3209 2.48901C82.6367 2.80045 82.7947 3.27017 82.7947 3.89817V6.28762H81.0676V4.19685C81.0676 3.71692 80.8969 3.47695 80.5556 3.47695C80.362 3.47695 80.204 3.54588 80.0818 3.68373C79.9646 3.81648 79.906 4.02837 79.906 4.31939V6.28762H78.1789V2.09843H79.822V2.51198C79.985 2.3486 80.1735 2.22607 80.3875 2.14438C80.6014 2.06269 80.8332 2.02184 81.0829 2.02184Z" fill="white"/>
<path d="M88.2427 0.605021V6.28762H86.5997V5.94299C86.35 6.2238 85.9679 6.3642 85.4534 6.3642C85.0866 6.3642 84.7478 6.27741 84.437 6.10382C84.1313 5.92512 83.8868 5.66983 83.7034 5.33797C83.5251 5.0061 83.4359 4.62317 83.4359 4.18919C83.4359 3.75521 83.5251 3.37484 83.7034 3.04808C83.8868 2.71621 84.1313 2.46348 84.437 2.28989C84.7478 2.11119 85.0866 2.02184 85.4534 2.02184C85.917 2.02184 86.2711 2.14182 86.5156 2.38179V0.605021H88.2427ZM85.8661 5.01631C86.0647 5.01631 86.2278 4.94483 86.3551 4.80187C86.4825 4.65381 86.5462 4.44958 86.5462 4.18919C86.5462 3.9288 86.4825 3.72713 86.3551 3.58417C86.2278 3.44121 86.0647 3.36974 85.8661 3.36974C85.6674 3.36974 85.5043 3.44121 85.377 3.58417C85.2496 3.72713 85.1859 3.9288 85.1859 4.18919C85.1859 4.44958 85.2496 4.65381 85.377 4.80187C85.5043 4.94483 85.6674 5.01631 85.8661 5.01631Z" fill="white"/>
<path d="M91.3521 0.926677H93.1555V6.28762H91.3521V0.926677Z" fill="white"/>
<path d="M96.8742 2.02184C97.3887 2.02184 97.8014 2.17756 98.1122 2.48901C98.428 2.80045 98.586 3.27017 98.586 3.89817V6.28762H96.8589V4.19685C96.8589 3.71692 96.6882 3.47695 96.3469 3.47695C96.1533 3.47695 95.9954 3.54588 95.8731 3.68373C95.7559 3.81648 95.6973 4.02837 95.6973 4.31939V6.28762H93.9702V2.09843H95.6133V2.51198C95.7763 2.3486 95.9648 2.22607 96.1788 2.14438C96.3927 2.06269 96.6245 2.02184 96.8742 2.02184Z" fill="white"/>
<path d="M101.201 2.32818H102.11V3.59183H101.254V6.28762H99.5271V3.59183H98.9539V2.32818H99.5271V2.3052C99.5271 1.7589 99.6901 1.32747 100.016 1.01092C100.342 0.689264 100.801 0.528436 101.392 0.528436C101.585 0.528436 101.774 0.546305 101.957 0.582045C102.141 0.617785 102.293 0.668841 102.416 0.735215L102.003 1.9376C101.86 1.87122 101.73 1.83804 101.613 1.83804C101.486 1.83804 101.384 1.87888 101.308 1.96057C101.236 2.03716 101.201 2.15714 101.201 2.32052V2.32818Z" fill="white"/>
<path d="M104.761 6.3642C104.297 6.3642 103.88 6.2723 103.508 6.0885C103.141 5.89959 102.853 5.64175 102.644 5.31499C102.435 4.98312 102.331 4.60786 102.331 4.18919C102.331 3.77053 102.435 3.39782 102.644 3.07105C102.853 2.73919 103.141 2.48135 103.508 2.29755C103.88 2.11374 104.297 2.02184 104.761 2.02184C105.23 2.02184 105.647 2.11374 106.014 2.29755C106.386 2.48135 106.674 2.73919 106.878 3.07105C107.087 3.39782 107.191 3.77053 107.191 4.18919C107.191 4.60786 107.087 4.98312 106.878 5.31499C106.674 5.64175 106.386 5.89959 106.014 6.0885C105.647 6.2723 105.23 6.3642 104.761 6.3642ZM104.761 5.01631C104.96 5.01631 105.123 4.94483 105.25 4.80187C105.377 4.65381 105.441 4.44958 105.441 4.18919C105.441 3.9288 105.377 3.72713 105.25 3.58417C105.123 3.44121 104.96 3.36974 104.761 3.36974C104.562 3.36974 104.399 3.44121 104.272 3.58417C104.145 3.72713 104.081 3.9288 104.081 4.18919C104.081 4.44958 104.145 4.65381 104.272 4.80187C104.399 4.94483 104.562 5.01631 104.761 5.01631Z" fill="white"/>
<path d="M109.375 2.55028C109.68 2.19799 110.131 2.02184 110.727 2.02184V3.55354C110.59 3.53312 110.462 3.5229 110.345 3.5229C109.754 3.5229 109.459 3.82414 109.459 4.42661V6.28762H107.732V2.09843H109.375V2.55028Z" fill="white"/>
<path d="M116.75 2.02184C117.254 2.02184 117.656 2.17756 117.957 2.48901C118.263 2.80045 118.416 3.27017 118.416 3.89817V6.28762H116.688V4.19685C116.688 3.71692 116.533 3.47695 116.222 3.47695C116.059 3.47695 115.927 3.53822 115.825 3.66076C115.728 3.78329 115.68 3.97731 115.68 4.2428V6.28762H113.953V4.19685C113.953 3.71692 113.797 3.47695 113.486 3.47695C113.323 3.47695 113.191 3.53822 113.089 3.66076C112.992 3.78329 112.944 3.97731 112.944 4.2428V6.28762H111.217V2.09843H112.86V2.48901C113.171 2.17756 113.565 2.02184 114.044 2.02184C114.325 2.02184 114.577 2.07545 114.801 2.18267C115.025 2.28478 115.208 2.44306 115.351 2.6575C115.519 2.45327 115.723 2.29755 115.962 2.19033C116.202 2.078 116.464 2.02184 116.75 2.02184Z" fill="white"/>
<path d="M121.037 2.02184C121.771 2.02184 122.331 2.18777 122.718 2.51964C123.105 2.8464 123.299 3.35187 123.299 4.03602V6.28762H121.694V5.73621C121.495 6.15487 121.101 6.3642 120.51 6.3642C120.179 6.3642 119.896 6.30804 119.661 6.19572C119.432 6.07829 119.256 5.92256 119.134 5.72855C119.017 5.52943 118.958 5.30733 118.958 5.06226C118.958 4.6487 119.116 4.3347 119.432 4.12027C119.748 3.90583 120.227 3.79861 120.869 3.79861H121.564C121.508 3.47185 121.246 3.30847 120.777 3.30847C120.589 3.30847 120.398 3.3391 120.204 3.40037C120.01 3.45653 119.845 3.53567 119.707 3.63778L119.157 2.49667C119.397 2.3486 119.684 2.23373 120.021 2.15204C120.362 2.06524 120.701 2.02184 121.037 2.02184ZM121.029 5.32265C121.152 5.32265 121.261 5.28946 121.358 5.22309C121.455 5.15672 121.526 5.05716 121.572 4.92441V4.63339H121.144C120.792 4.63339 120.617 4.75082 120.617 4.98568C120.617 5.08268 120.652 5.16437 120.724 5.23075C120.8 5.29202 120.902 5.32265 121.029 5.32265Z" fill="white"/>
<path d="M127.125 6.14211C126.865 6.29017 126.511 6.3642 126.063 6.3642C125.477 6.3642 125.026 6.2238 124.71 5.94299C124.394 5.65707 124.236 5.23075 124.236 4.66402V3.59183H123.663V2.32818H124.236V1.15643H125.964V2.32818H126.819V3.59183H125.964V4.6487C125.964 4.77634 125.997 4.8759 126.063 4.94738C126.129 5.01886 126.216 5.0546 126.323 5.0546C126.47 5.0546 126.6 5.01631 126.712 4.93972L127.125 6.14211Z" fill="white"/>
<path d="M127.56 2.09843H129.287V6.28762H127.56V2.09843ZM128.424 1.76145C128.113 1.76145 127.861 1.67976 127.667 1.51638C127.479 1.34789 127.385 1.13601 127.385 0.880726C127.385 0.625443 127.479 0.416111 127.667 0.25273C127.861 0.0842433 128.113 0 128.424 0C128.74 0 128.992 0.0791378 129.18 0.237413C129.369 0.395688 129.463 0.599915 129.463 0.850092C129.463 1.11559 129.369 1.33513 129.18 1.50872C128.992 1.67721 128.74 1.76145 128.424 1.76145Z" fill="white"/>
<path d="M132.261 6.3642C131.798 6.3642 131.38 6.2723 131.008 6.0885C130.641 5.89959 130.354 5.64175 130.145 5.31499C129.936 4.98312 129.831 4.60786 129.831 4.18919C129.831 3.77053 129.936 3.39782 130.145 3.07105C130.354 2.73919 130.641 2.48135 131.008 2.29755C131.38 2.11374 131.798 2.02184 132.261 2.02184C132.73 2.02184 133.148 2.11374 133.515 2.29755C133.887 2.48135 134.174 2.73919 134.378 3.07105C134.587 3.39782 134.692 3.77053 134.692 4.18919C134.692 4.60786 134.587 4.98312 134.378 5.31499C134.174 5.64175 133.887 5.89959 133.515 6.0885C133.148 6.2723 132.73 6.3642 132.261 6.3642ZM132.261 5.01631C132.46 5.01631 132.623 4.94483 132.751 4.80187C132.878 4.65381 132.942 4.44958 132.942 4.18919C132.942 3.9288 132.878 3.72713 132.751 3.58417C132.623 3.44121 132.46 3.36974 132.261 3.36974C132.063 3.36974 131.9 3.44121 131.772 3.58417C131.645 3.72713 131.581 3.9288 131.581 4.18919C131.581 4.44958 131.645 4.65381 131.772 4.80187C131.9 4.94483 132.063 5.01631 132.261 5.01631Z" fill="white"/>
<path d="M138.136 2.02184C138.651 2.02184 139.063 2.17756 139.374 2.48901C139.69 2.80045 139.848 3.27017 139.848 3.89817V6.28762H138.121V4.19685C138.121 3.71692 137.95 3.47695 137.609 3.47695C137.415 3.47695 137.257 3.54588 137.135 3.68373C137.018 3.81648 136.959 4.02837 136.959 4.31939V6.28762H135.232V2.09843H136.875V2.51198C137.038 2.3486 137.227 2.22607 137.441 2.14438C137.655 2.06269 137.886 2.02184 138.136 2.02184Z" fill="white"/>
</svg>
