<svg width="351" height="234" viewBox="0 0 351 234" fill="none" xmlns="http://www.w3.org/2000/svg">
<path d="M8.65138 2.20309H0.5V234H350.5V2.20309H232.305V5.26649H347.443V230.937H3.55677V5.26649H8.65138V2.20309Z" fill="white"/>
<path d="M15.901 6.28762L15.8857 3.84456L14.7242 5.80513H13.9294L12.7678 3.9288V6.28762H11.1248V0.926677H12.6073L14.3497 3.78329L16.0462 0.926677H17.5287L17.544 6.28762H15.901Z" fill="white"/>
<path d="M18.3625 2.09843H20.0896V6.28762H18.3625V2.09843ZM19.226 1.76145C18.9153 1.76145 18.6631 1.67976 18.4695 1.51638C18.281 1.34789 18.1867 1.13601 18.1867 0.880726C18.1867 0.625443 18.281 0.416111 18.4695 0.25273C18.6631 0.0842434 18.9153 0 19.226 0C19.5419 0 19.7941 0.0791378 19.9826 0.237413C20.1711 0.395688 20.2653 0.599915 20.2653 0.850092C20.2653 1.11559 20.1711 1.33513 19.9826 1.50872C19.7941 1.67721 19.5419 1.76145 19.226 1.76145Z" fill="white"/>
<path d="M23.1018 6.3642C22.628 6.3642 22.2026 6.2723 21.8256 6.0885C21.4537 5.90469 21.1607 5.64686 20.9468 5.31499C20.7379 4.98312 20.6335 4.60786 20.6335 4.18919C20.6335 3.77053 20.7379 3.39782 20.9468 3.07105C21.1607 2.73919 21.4537 2.48135 21.8256 2.29755C22.2026 2.11374 22.628 2.02184 23.1018 2.02184C23.6113 2.02184 24.0468 2.13161 24.4086 2.35116C24.7703 2.5707 25.0199 2.87449 25.1575 3.26252L23.8201 3.92115C23.6571 3.55354 23.4151 3.36973 23.0942 3.36973C22.8904 3.36973 22.7197 3.44121 22.5821 3.58417C22.4497 3.72713 22.3835 3.9288 22.3835 4.18919C22.3835 4.45469 22.4497 4.65891 22.5821 4.80187C22.7197 4.94483 22.8904 5.01631 23.0942 5.01631C23.4151 5.01631 23.6571 4.83251 23.8201 4.4649L25.1575 5.12353C25.0199 5.51156 24.7703 5.81535 24.4086 6.03489C24.0468 6.25443 23.6113 6.3642 23.1018 6.3642Z" fill="white"/>
<path d="M27.1997 2.55028C27.5053 2.19799 27.9562 2.02184 28.5523 2.02184V3.55354C28.4147 3.53312 28.2874 3.5229 28.1702 3.5229C27.5792 3.5229 27.2837 3.82414 27.2837 4.42661V6.28762H25.5566V2.09843H27.1997V2.55028Z" fill="white"/>
<path d="M31.213 6.3642C30.7494 6.3642 30.3316 6.2723 29.9597 6.0885C29.5929 5.89959 29.305 5.64175 29.0962 5.31499C28.8873 4.98312 28.7828 4.60786 28.7828 4.18919C28.7828 3.77053 28.8873 3.39782 29.0962 3.07105C29.305 2.73919 29.5929 2.48135 29.9597 2.29755C30.3316 2.11374 30.7494 2.02184 31.213 2.02184C31.6817 2.02184 32.0994 2.11374 32.4663 2.29755C32.8382 2.48135 33.126 2.73919 33.3298 3.07105C33.5387 3.39782 33.6431 3.77053 33.6431 4.18919C33.6431 4.60786 33.5387 4.98312 33.3298 5.31499C33.126 5.64175 32.8382 5.89959 32.4663 6.0885C32.0994 6.2723 31.6817 6.3642 31.213 6.3642ZM31.213 5.01631C31.4117 5.01631 31.5747 4.94483 31.7021 4.80187C31.8294 4.65381 31.8931 4.44958 31.8931 4.18919C31.8931 3.9288 31.8294 3.72713 31.7021 3.58417C31.5747 3.44121 31.4117 3.36973 31.213 3.36973C31.0143 3.36973 30.8513 3.44121 30.7239 3.58417C30.5965 3.72713 30.5328 3.9288 30.5328 4.18919C30.5328 4.44958 30.5965 4.65381 30.7239 4.80187C30.8513 4.94483 31.0143 5.01631 31.213 5.01631Z" fill="white"/>
<path d="M35.819 6.3642C35.4624 6.3642 35.1109 6.32591 34.7644 6.24933C34.418 6.17274 34.1378 6.07318 33.9238 5.95065L34.3976 4.80953C34.5912 4.92696 34.8205 5.01886 35.0854 5.08524C35.3503 5.15161 35.6076 5.1848 35.8572 5.1848C36.0559 5.1848 36.1935 5.16948 36.2699 5.13885C36.3514 5.10311 36.3922 5.05205 36.3922 4.98568C36.3922 4.9193 36.3412 4.87335 36.2393 4.84782C36.1425 4.8223 35.9821 4.79677 35.7579 4.77124C35.4166 4.73039 35.1262 4.67934 34.8867 4.61807C34.6473 4.55169 34.4358 4.42661 34.2524 4.2428C34.0741 4.059 33.985 3.79606 33.985 3.45398C33.985 3.18338 34.0665 2.94086 34.2295 2.72642C34.3925 2.51198 34.6345 2.34094 34.9555 2.2133C35.2815 2.08566 35.6713 2.02184 36.1247 2.02184C36.4406 2.02184 36.7488 2.05247 37.0494 2.11374C37.3551 2.16991 37.6149 2.25415 37.8289 2.36647L37.3551 3.50759C36.9882 3.30336 36.5858 3.20125 36.1476 3.20125C35.7706 3.20125 35.5821 3.26762 35.5821 3.40037C35.5821 3.46674 35.6331 3.51525 35.735 3.54588C35.8369 3.57141 35.9973 3.59694 36.2164 3.62247C36.5577 3.66331 36.8456 3.71692 37.0799 3.78329C37.3194 3.84967 37.5283 3.97476 37.7066 4.15856C37.89 4.34236 37.9817 4.6053 37.9817 4.94738C37.9817 5.20777 37.9002 5.44519 37.7372 5.65962C37.5741 5.87406 37.3296 6.0451 37.0035 6.17274C36.6775 6.30038 36.2826 6.3642 35.819 6.3642Z" fill="white"/>
<path d="M40.7131 6.3642C40.2495 6.3642 39.8318 6.2723 39.4599 6.0885C39.0931 5.89959 38.8052 5.64175 38.5963 5.31499C38.3875 4.98312 38.283 4.60786 38.283 4.18919C38.283 3.77053 38.3875 3.39782 38.5963 3.07105C38.8052 2.73919 39.0931 2.48135 39.4599 2.29755C39.8318 2.11374 40.2495 2.02184 40.7131 2.02184C41.1818 2.02184 41.5996 2.11374 41.9664 2.29755C42.3383 2.48135 42.6262 2.73919 42.83 3.07105C43.0388 3.39782 43.1433 3.77053 43.1433 4.18919C43.1433 4.60786 43.0388 4.98312 42.83 5.31499C42.6262 5.64175 42.3383 5.89959 41.9664 6.0885C41.5996 6.2723 41.1818 6.3642 40.7131 6.3642ZM40.7131 5.01631C40.9118 5.01631 41.0749 4.94483 41.2022 4.80187C41.3296 4.65381 41.3933 4.44958 41.3933 4.18919C41.3933 3.9288 41.3296 3.72713 41.2022 3.58417C41.0749 3.44121 40.9118 3.36973 40.7131 3.36973C40.5145 3.36973 40.3514 3.44121 40.2241 3.58417C40.0967 3.72713 40.033 3.9288 40.033 4.18919C40.033 4.44958 40.0967 4.65381 40.2241 4.80187C40.3514 4.94483 40.5145 5.01631 40.7131 5.01631Z" fill="white"/>
<path d="M45.5484 2.32818H46.4578V3.59183H45.6019V6.28762H43.8749V3.59183H43.3017V2.32818H43.8749V2.3052C43.8749 1.7589 44.0379 1.32747 44.3639 1.01092C44.69 0.689264 45.1485 0.528436 45.7395 0.528436C45.9331 0.528436 46.1216 0.546305 46.305 0.582045C46.4884 0.617785 46.6412 0.668841 46.7635 0.735215L46.3508 1.9376C46.2082 1.87122 46.0783 1.83804 45.9611 1.83804C45.8337 1.83804 45.7319 1.87888 45.6554 1.96057C45.5841 2.03716 45.5484 2.15714 45.5484 2.32052V2.32818Z" fill="white"/>
<path d="M50.0173 6.14211C49.7575 6.29017 49.4034 6.3642 48.9551 6.3642C48.3692 6.3642 47.9183 6.2238 47.6025 5.94299C47.2866 5.65707 47.1287 5.23075 47.1287 4.66402V3.59183H46.5555V2.32818H47.1287V1.15643H48.8557V2.32818H49.7116V3.59183H48.8557V4.6487C48.8557 4.77634 48.8888 4.8759 48.9551 4.94738C49.0213 5.01886 49.1079 5.0546 49.2149 5.0546C49.3626 5.0546 49.4926 5.01631 49.6046 4.93972L50.0173 6.14211Z" fill="white"/>
<path d="M55.5635 6.41015C54.998 6.41015 54.4886 6.29272 54.0352 6.05786C53.5817 5.8179 53.2251 5.48603 52.9653 5.06226C52.7106 4.63339 52.5832 4.14835 52.5832 3.60715C52.5832 3.06595 52.7106 2.58346 52.9653 2.15969C53.2251 1.73082 53.5817 1.39895 54.0352 1.16409C54.4886 0.924124 54.998 0.804141 55.5635 0.804141C56.0832 0.804141 56.5468 0.896043 56.9544 1.07985C57.3619 1.26365 57.6982 1.52914 57.9631 1.87633L56.8245 2.89491C56.4933 2.47624 56.1036 2.26691 55.6552 2.26691C55.2782 2.26691 54.9751 2.38945 54.7459 2.63452C54.5166 2.87449 54.402 3.1987 54.402 3.60715C54.402 4.0156 54.5166 4.34236 54.7459 4.58743C54.9751 4.8274 55.2782 4.94738 55.6552 4.94738C56.1036 4.94738 56.4933 4.73805 56.8245 4.31939L57.9631 5.33797C57.6982 5.68515 57.3619 5.95065 56.9544 6.13445C56.5468 6.31825 56.0832 6.41015 55.5635 6.41015Z" fill="white"/>
<path d="M62.766 4.18919C62.766 4.21472 62.7584 4.35002 62.7431 4.59509H59.8391C59.9003 4.75337 60.0022 4.8759 60.1448 4.9627C60.2875 5.04439 60.4658 5.08524 60.6798 5.08524C60.8632 5.08524 61.016 5.06226 61.1383 5.01631C61.2656 4.97036 61.4032 4.89122 61.5509 4.7789L62.4527 5.69026C62.0451 6.13955 61.4363 6.3642 60.6263 6.3642C60.1219 6.3642 59.6787 6.2723 59.2966 6.0885C58.9145 5.89959 58.619 5.6392 58.4101 5.30733C58.2012 4.97546 58.0968 4.60275 58.0968 4.18919C58.0968 3.77053 58.1987 3.39782 58.4025 3.07105C58.6113 2.73919 58.8941 2.48135 59.2507 2.29755C59.6124 2.11374 60.0175 2.02184 60.4658 2.02184C60.8886 2.02184 61.2733 2.10608 61.6197 2.27457C61.9712 2.44306 62.2489 2.69068 62.4527 3.01744C62.6616 3.34421 62.766 3.73479 62.766 4.18919ZM60.4811 3.20125C60.3028 3.20125 60.155 3.24975 60.0378 3.34676C59.9207 3.44377 59.8442 3.58162 59.8086 3.76032H61.1536C61.1179 3.58673 61.0415 3.45143 60.9243 3.35442C60.8071 3.2523 60.6594 3.20125 60.4811 3.20125Z" fill="white"/>
<path d="M64.954 2.55028C65.2597 2.19799 65.7106 2.02184 66.3067 2.02184V3.55354C66.1691 3.53312 66.0417 3.5229 65.9246 3.5229C65.3336 3.5229 65.0381 3.82414 65.0381 4.42661V6.28762H63.311V2.09843H64.954V2.55028Z" fill="white"/>
<path d="M69.9878 6.14211C69.728 6.29017 69.3739 6.3642 68.9256 6.3642C68.3397 6.3642 67.8888 6.2238 67.5729 5.94299C67.2571 5.65707 67.0991 5.23075 67.0991 4.66402V3.59183H66.526V2.32818H67.0991V1.15643H68.8262V2.32818H69.6821V3.59183H68.8262V4.6487C68.8262 4.77634 68.8593 4.8759 68.9256 4.94738C68.9918 5.01886 69.0784 5.0546 69.1854 5.0546C69.3331 5.0546 69.463 5.01631 69.5751 4.93972L69.9878 6.14211Z" fill="white"/>
<path d="M70.4231 2.09843H72.1502V6.28762H70.4231V2.09843ZM71.2866 1.76145C70.9758 1.76145 70.7237 1.67976 70.5301 1.51638C70.3416 1.34789 70.2473 1.13601 70.2473 0.880726C70.2473 0.625443 70.3416 0.416111 70.5301 0.25273C70.7237 0.0842434 70.9758 0 71.2866 0C71.6025 0 71.8547 0.0791378 72.0432 0.237413C72.2317 0.395688 72.3259 0.599915 72.3259 0.850092C72.3259 1.11559 72.2317 1.33513 72.0432 1.50872C71.8547 1.67721 71.6025 1.76145 71.2866 1.76145Z" fill="white"/>
<path d="M74.7803 2.32818H75.6897V3.59183H74.8338V6.28762H73.1067V3.59183H72.5336V2.32818H73.1067V2.3052C73.1067 1.7589 73.2697 1.32747 73.5958 1.01092C73.9218 0.689264 74.3804 0.528436 74.9713 0.528436C75.1649 0.528436 75.3534 0.546305 75.5368 0.582045C75.7202 0.617785 75.8731 0.668841 75.9954 0.735215L75.5827 1.9376C75.44 1.87122 75.3101 1.83804 75.193 1.83804C75.0656 1.83804 74.9637 1.87888 74.8873 1.96057C74.8159 2.03716 74.7803 2.15714 74.7803 2.32052V2.32818ZM76.7825 2.09843H78.5095V6.28762H76.7825V2.09843ZM77.646 1.76145C77.3352 1.76145 77.0831 1.67976 76.8895 1.51638C76.701 1.34789 76.6067 1.13601 76.6067 0.880726C76.6067 0.625443 76.701 0.416111 76.8895 0.25273C77.0831 0.0842434 77.3352 0 77.646 0C77.9619 0 78.2141 0.0791378 78.4026 0.237413C78.5911 0.395688 78.6853 0.599915 78.6853 0.850092C78.6853 1.11559 78.5911 1.33513 78.4026 1.50872C78.2141 1.67721 77.9619 1.76145 77.646 1.76145Z" fill="white"/>
<path d="M83.7216 4.18919C83.7216 4.21472 83.7139 4.35002 83.6986 4.59509H80.7947C80.8559 4.75337 80.9578 4.8759 81.1004 4.9627C81.243 5.04439 81.4214 5.08524 81.6353 5.08524C81.8187 5.08524 81.9716 5.06226 82.0938 5.01631C82.2212 4.97036 82.3588 4.89122 82.5065 4.7789L83.4083 5.69026C83.0007 6.13955 82.3919 6.3642 81.5818 6.3642C81.0775 6.3642 80.6342 6.2723 80.2521 6.0885C79.87 5.89959 79.5746 5.6392 79.3657 5.30733C79.1568 4.97546 79.0524 4.60275 79.0524 4.18919C79.0524 3.77053 79.1542 3.39782 79.358 3.07105C79.5669 2.73919 79.8497 2.48135 80.2063 2.29755C80.568 2.11374 80.973 2.02184 81.4214 2.02184C81.8442 2.02184 82.2289 2.10608 82.5753 2.27457C82.9268 2.44306 83.2045 2.69068 83.4083 3.01744C83.6171 3.34421 83.7216 3.73479 83.7216 4.18919ZM81.4366 3.20125C81.2583 3.20125 81.1106 3.24975 80.9934 3.34676C80.8762 3.44377 80.7998 3.58162 80.7642 3.76032H82.1091C82.0735 3.58673 81.9971 3.45143 81.8799 3.35442C81.7627 3.2523 81.6149 3.20125 81.4366 3.20125Z" fill="white"/>
<path d="M88.89 0.605021V6.28762H87.247V5.94299C86.9973 6.2238 86.6152 6.3642 86.1007 6.3642C85.7339 6.3642 85.3951 6.27741 85.0843 6.10382C84.7786 5.92512 84.5341 5.66983 84.3507 5.33797C84.1723 5.0061 84.0832 4.62317 84.0832 4.18919C84.0832 3.75521 84.1723 3.37484 84.3507 3.04808C84.5341 2.71621 84.7786 2.46348 85.0843 2.28989C85.3951 2.11119 85.7339 2.02184 86.1007 2.02184C86.5643 2.02184 86.9183 2.14182 87.1629 2.38179V0.605021H88.89ZM86.5133 5.01631C86.712 5.01631 86.875 4.94483 87.0024 4.80187C87.1298 4.65381 87.1935 4.44958 87.1935 4.18919C87.1935 3.9288 87.1298 3.72713 87.0024 3.58417C86.875 3.44121 86.712 3.36973 86.5133 3.36973C86.3146 3.36973 86.1516 3.44121 86.0242 3.58417C85.8969 3.72713 85.8332 3.9288 85.8332 4.18919C85.8332 4.44958 85.8969 4.65381 86.0242 4.80187C86.1516 4.94483 86.3146 5.01631 86.5133 5.01631Z" fill="white"/>
<path d="M90.4342 3.99773C90.1438 3.99773 89.9018 3.90583 89.7082 3.72203C89.5197 3.53312 89.4255 3.29315 89.4255 3.00213C89.4255 2.7111 89.5197 2.47624 89.7082 2.29755C89.9018 2.11374 90.1438 2.02184 90.4342 2.02184C90.7246 2.02184 90.9641 2.11374 91.1526 2.29755C91.3462 2.47624 91.443 2.7111 91.443 3.00213C91.443 3.29315 91.3462 3.53312 91.1526 3.72203C90.9641 3.90583 90.7246 3.99773 90.4342 3.99773ZM90.4342 6.3642C90.1438 6.3642 89.9018 6.2723 89.7082 6.0885C89.5197 5.89959 89.4255 5.65962 89.4255 5.3686C89.4255 5.07758 89.5197 4.84272 89.7082 4.66402C89.9018 4.48022 90.1438 4.38831 90.4342 4.38831C90.7246 4.38831 90.9641 4.48022 91.1526 4.66402C91.3462 4.84272 91.443 5.07758 91.443 5.3686C91.443 5.65962 91.3462 5.89959 91.1526 6.0885C90.9641 6.2723 90.7246 6.3642 90.4342 6.3642Z" fill="white"/>
<path d="M96.8956 0.926677C97.3898 0.926677 97.8203 1.00837 98.1871 1.17175C98.5539 1.33513 98.8366 1.56999 99.0353 1.87633C99.234 2.18267 99.3334 2.54007 99.3334 2.94852C99.3334 3.35697 99.234 3.71437 99.0353 4.02071C98.8366 4.32705 98.5539 4.56191 98.1871 4.72529C97.8203 4.88867 97.3898 4.97036 96.8956 4.97036H96.1238V6.28762H94.3203V0.926677H96.8956ZM96.781 3.57651C97.0255 3.57651 97.2089 3.5229 97.3312 3.41569C97.4534 3.30336 97.5146 3.14764 97.5146 2.94852C97.5146 2.7494 97.4534 2.59623 97.3312 2.48901C97.2089 2.37668 97.0255 2.32052 96.781 2.32052H96.1238V3.57651H96.781Z" fill="white"/>
<path d="M102.08 6.3642C101.616 6.3642 101.198 6.2723 100.827 6.0885C100.46 5.89959 100.172 5.64175 99.963 5.31499C99.7542 4.98312 99.6497 4.60786 99.6497 4.18919C99.6497 3.77053 99.7542 3.39782 99.963 3.07105C100.172 2.73919 100.46 2.48135 100.827 2.29755C101.198 2.11374 101.616 2.02184 102.08 2.02184C102.549 2.02184 102.966 2.11374 103.333 2.29755C103.705 2.48135 103.993 2.73919 104.197 3.07105C104.406 3.39782 104.51 3.77053 104.51 4.18919C104.51 4.60786 104.406 4.98312 104.197 5.31499C103.993 5.64175 103.705 5.89959 103.333 6.0885C102.966 6.2723 102.549 6.3642 102.08 6.3642ZM102.08 5.01631C102.279 5.01631 102.442 4.94483 102.569 4.80187C102.696 4.65381 102.76 4.44958 102.76 4.18919C102.76 3.9288 102.696 3.72713 102.569 3.58417C102.442 3.44121 102.279 3.36973 102.08 3.36973C101.881 3.36973 101.718 3.44121 101.591 3.58417C101.463 3.72713 101.4 3.9288 101.4 4.18919C101.4 4.44958 101.463 4.65381 101.591 4.80187C101.718 4.94483 101.881 5.01631 102.08 5.01631Z" fill="white"/>
<path d="M112.069 2.09843L110.617 6.28762H108.935L108.301 4.35002L107.644 6.28762H105.963L104.511 2.09843H106.146L106.864 4.31173L107.613 2.09843H109.081L109.807 4.3347L110.555 2.09843H112.069Z" fill="white"/>
<path d="M116.737 4.18919C116.737 4.21472 116.729 4.35002 116.714 4.59509H113.81C113.871 4.75337 113.973 4.8759 114.116 4.9627C114.259 5.04439 114.437 5.08524 114.651 5.08524C114.834 5.08524 114.987 5.06226 115.109 5.01631C115.237 4.97036 115.374 4.89122 115.522 4.7789L116.424 5.69026C116.016 6.13955 115.407 6.3642 114.597 6.3642C114.093 6.3642 113.65 6.2723 113.268 6.0885C112.886 5.89959 112.59 5.6392 112.381 5.30733C112.172 4.97546 112.068 4.60275 112.068 4.18919C112.068 3.77053 112.17 3.39782 112.374 3.07105C112.582 2.73919 112.865 2.48135 113.222 2.29755C113.583 2.11374 113.989 2.02184 114.437 2.02184C114.86 2.02184 115.244 2.10608 115.591 2.27457C115.942 2.44306 116.22 2.69068 116.424 3.01744C116.633 3.34421 116.737 3.73479 116.737 4.18919ZM114.452 3.20125C114.274 3.20125 114.126 3.24975 114.009 3.34676C113.892 3.44377 113.815 3.58162 113.78 3.76032H115.125C115.089 3.58673 115.013 3.45143 114.895 3.35442C114.778 3.2523 114.63 3.20125 114.452 3.20125Z" fill="white"/>
<path d="M118.925 2.55028C119.231 2.19799 119.682 2.02184 120.278 2.02184V3.55354C120.14 3.53312 120.013 3.5229 119.896 3.5229C119.305 3.5229 119.009 3.82414 119.009 4.42661V6.28762H117.282V2.09843H118.925V2.55028Z" fill="white"/>
<path d="M127.391 3.48461C127.707 3.60204 127.952 3.77308 128.125 3.99773C128.298 4.22238 128.385 4.49298 128.385 4.80953C128.385 5.27925 128.191 5.64431 127.804 5.90469C127.417 6.15998 126.856 6.28762 126.123 6.28762H123.112V0.926677H125.97C126.683 0.926677 127.221 1.05432 127.582 1.3096C127.949 1.56488 128.133 1.90441 128.133 2.32818C128.133 2.57836 128.069 2.80301 127.941 3.00213C127.819 3.20125 127.636 3.36208 127.391 3.48461ZM124.885 2.19033V2.98681H125.725C126.118 2.98681 126.314 2.85406 126.314 2.58857C126.314 2.32307 126.118 2.19033 125.725 2.19033H124.885ZM125.97 5.02397C126.367 5.02397 126.566 4.88356 126.566 4.60275C126.566 4.32194 126.367 4.18153 125.97 4.18153H124.885V5.02397H125.97Z" fill="white"/>
<path d="M129.022 0.926677H130.826V6.28762H129.022V0.926677Z" fill="white"/>
<path d="M133.985 0.926677H136.622C137.218 0.926677 137.742 1.03645 138.196 1.25599C138.654 1.47043 139.008 1.77932 139.258 2.18267C139.513 2.58602 139.64 3.06084 139.64 3.60715C139.64 4.15345 139.513 4.62828 139.258 5.03163C139.008 5.43497 138.654 5.74642 138.196 5.96596C137.742 6.1804 137.218 6.28762 136.622 6.28762H133.985V0.926677ZM136.545 4.87846C136.932 4.87846 137.241 4.76869 137.47 4.54914C137.704 4.32449 137.821 4.01049 137.821 3.60715C137.821 3.2038 137.704 2.89236 137.47 2.67281C137.241 2.44816 136.932 2.33584 136.545 2.33584H135.789V4.87846H136.545Z" fill="white"/>
<path d="M142.117 2.02184C142.851 2.02184 143.411 2.18777 143.799 2.51964C144.186 2.8464 144.379 3.35187 144.379 4.03602V6.28762H142.775V5.73621C142.576 6.15487 142.181 6.3642 141.59 6.3642C141.259 6.3642 140.976 6.30804 140.742 6.19572C140.513 6.07829 140.337 5.92256 140.215 5.72855C140.097 5.52943 140.039 5.30733 140.039 5.06226C140.039 4.6487 140.197 4.3347 140.513 4.12027C140.828 3.90583 141.307 3.79861 141.949 3.79861H142.645C142.589 3.47185 142.326 3.30847 141.858 3.30847C141.669 3.30847 141.478 3.3391 141.284 3.40037C141.091 3.45653 140.925 3.53567 140.788 3.63778L140.238 2.49667C140.477 2.3486 140.765 2.23373 141.101 2.15204C141.442 2.06524 141.781 2.02184 142.117 2.02184ZM142.11 5.32265C142.232 5.32265 142.342 5.28946 142.438 5.22309C142.535 5.15672 142.607 5.05716 142.652 4.92441V4.63339H142.224C141.873 4.63339 141.697 4.75082 141.697 4.98568C141.697 5.08268 141.733 5.16437 141.804 5.23075C141.881 5.29202 141.982 5.32265 142.11 5.32265Z" fill="white"/>
<path d="M148.206 6.14211C147.946 6.29017 147.592 6.3642 147.143 6.3642C146.557 6.3642 146.107 6.2238 145.791 5.94299C145.475 5.65707 145.317 5.23075 145.317 4.66402V3.59183H144.744V2.32818H145.317V1.15643H147.044V2.32818H147.9V3.59183H147.044V4.6487C147.044 4.77634 147.077 4.8759 147.143 4.94738C147.21 5.01886 147.296 5.0546 147.403 5.0546C147.551 5.0546 147.681 5.01631 147.793 4.93972L148.206 6.14211Z" fill="white"/>
<path d="M150.513 2.02184C151.247 2.02184 151.807 2.18777 152.194 2.51964C152.582 2.8464 152.775 3.35187 152.775 4.03602V6.28762H151.17V5.73621C150.972 6.15487 150.577 6.3642 149.986 6.3642C149.655 6.3642 149.372 6.30804 149.138 6.19572C148.908 6.07829 148.733 5.92256 148.61 5.72855C148.493 5.52943 148.434 5.30733 148.434 5.06226C148.434 4.6487 148.592 4.3347 148.908 4.12027C149.224 3.90583 149.703 3.79861 150.345 3.79861H151.04C150.984 3.47185 150.722 3.30847 150.253 3.30847C150.065 3.30847 149.874 3.3391 149.68 3.40037C149.487 3.45653 149.321 3.53567 149.183 3.63778L148.633 2.49667C148.873 2.3486 149.16 2.23373 149.497 2.15204C149.838 2.06524 150.177 2.02184 150.513 2.02184ZM150.505 5.32265C150.628 5.32265 150.737 5.28946 150.834 5.22309C150.931 5.15672 151.002 5.05716 151.048 4.92441V4.63339H150.62C150.269 4.63339 150.093 4.75082 150.093 4.98568C150.093 5.08268 150.128 5.16437 150.2 5.23075C150.276 5.29202 150.378 5.32265 150.505 5.32265Z" fill="white"/>
<path d="M159.511 5.35328H157.479L157.119 6.28762H155.285L157.624 0.926677H159.397L161.735 6.28762H159.87L159.511 5.35328ZM159.015 4.05134L158.495 2.70345L157.975 4.05134H159.015Z" fill="white"/>
<path d="M164.873 2.02184C165.388 2.02184 165.801 2.17756 166.111 2.48901C166.427 2.80045 166.585 3.27017 166.585 3.89817V6.28762H164.858V4.19685C164.858 3.71692 164.687 3.47695 164.346 3.47695C164.152 3.47695 163.995 3.54588 163.872 3.68373C163.755 3.81648 163.696 4.02837 163.696 4.31939V6.28762H161.969V2.09843H163.612V2.51198C163.775 2.3486 163.964 2.22607 164.178 2.14438C164.392 2.06269 164.624 2.02184 164.873 2.02184Z" fill="white"/>
<path d="M169.207 2.02184C169.941 2.02184 170.501 2.18777 170.889 2.51964C171.276 2.8464 171.469 3.35187 171.469 4.03602V6.28762H169.865V5.73621C169.666 6.15487 169.271 6.3642 168.68 6.3642C168.349 6.3642 168.066 6.30804 167.832 6.19572C167.603 6.07829 167.427 5.92256 167.305 5.72855C167.187 5.52943 167.129 5.30733 167.129 5.06226C167.129 4.6487 167.287 4.3347 167.603 4.12027C167.919 3.90583 168.397 3.79861 169.039 3.79861H169.735C169.679 3.47185 169.416 3.30847 168.948 3.30847C168.759 3.30847 168.568 3.3391 168.374 3.40037C168.181 3.45653 168.015 3.53567 167.878 3.63778L167.328 2.49667C167.567 2.3486 167.855 2.23373 168.191 2.15204C168.532 2.06524 168.871 2.02184 169.207 2.02184ZM169.2 5.32265C169.322 5.32265 169.432 5.28946 169.528 5.22309C169.625 5.15672 169.697 5.05716 169.742 4.92441V4.63339H169.314C168.963 4.63339 168.787 4.75082 168.787 4.98568C168.787 5.08268 168.823 5.16437 168.894 5.23075C168.971 5.29202 169.072 5.32265 169.2 5.32265Z" fill="white"/>
<path d="M172.216 0.605021H173.943V6.28762H172.216V0.605021Z" fill="white"/>
<path d="M179.362 2.09843L177.643 6.37186C177.424 6.91817 177.151 7.30109 176.825 7.52064C176.499 7.74018 176.099 7.84995 175.625 7.84995C175.391 7.84995 175.154 7.81421 174.915 7.74273C174.68 7.67636 174.494 7.58701 174.357 7.47468L174.93 6.28762C175.017 6.35399 175.113 6.4076 175.22 6.44845C175.333 6.48929 175.44 6.50972 175.541 6.50972C175.73 6.50972 175.873 6.45355 175.969 6.34123L174.212 2.09843H175.985L176.848 4.34236L177.727 2.09843H179.362Z" fill="white"/>
<path d="M181.187 6.3642C180.831 6.3642 180.479 6.32591 180.133 6.24933C179.786 6.17274 179.506 6.07318 179.292 5.95065L179.766 4.80953C179.959 4.92696 180.189 5.01886 180.454 5.08524C180.718 5.15161 180.976 5.1848 181.225 5.1848C181.424 5.1848 181.562 5.16948 181.638 5.13885C181.72 5.10311 181.76 5.05205 181.76 4.98568C181.76 4.9193 181.709 4.87335 181.607 4.84782C181.511 4.8223 181.35 4.79677 181.126 4.77124C180.785 4.73039 180.494 4.67934 180.255 4.61807C180.015 4.55169 179.804 4.42661 179.621 4.2428C179.442 4.059 179.353 3.79606 179.353 3.45398C179.353 3.18338 179.435 2.94086 179.598 2.72642C179.761 2.51198 180.003 2.34094 180.324 2.2133C180.65 2.08566 181.039 2.02184 181.493 2.02184C181.809 2.02184 182.117 2.05247 182.418 2.11374C182.723 2.16991 182.983 2.25415 183.197 2.36647L182.723 3.50759C182.356 3.30336 181.954 3.20125 181.516 3.20125C181.139 3.20125 180.95 3.26762 180.95 3.40037C180.95 3.46674 181.001 3.51525 181.103 3.54588C181.205 3.57141 181.365 3.59694 181.585 3.62247C181.926 3.66331 182.214 3.71692 182.448 3.78329C182.688 3.84967 182.896 3.97476 183.075 4.15856C183.258 4.34236 183.35 4.6053 183.35 4.94738C183.35 5.20777 183.268 5.44519 183.105 5.65962C182.942 5.87406 182.698 6.0451 182.372 6.17274C182.046 6.30038 181.651 6.3642 181.187 6.3642Z" fill="white"/>
<path d="M186.952 6.14211C186.693 6.29017 186.339 6.3642 185.89 6.3642C185.304 6.3642 184.853 6.2238 184.538 5.94299C184.222 5.65707 184.064 5.23075 184.064 4.66402V3.59183H183.491V2.32818H184.064V1.15643H185.791V2.32818H186.647V3.59183H185.791V4.6487C185.791 4.77634 185.824 4.8759 185.89 4.94738C185.956 5.01886 186.043 5.0546 186.15 5.0546C186.298 5.0546 186.428 5.01631 186.54 4.93972L186.952 6.14211Z" fill="white"/>
<path d="M193.378 5.35328H191.345L190.986 6.28762H189.152L191.49 0.926677H193.263L195.601 6.28762H193.737L193.378 5.35328ZM192.881 4.05134L192.361 2.70345L191.842 4.05134H192.881Z" fill="white"/>
<path d="M197.434 6.3642C197.077 6.3642 196.726 6.32591 196.379 6.24933C196.033 6.17274 195.752 6.07318 195.539 5.95065L196.012 4.80953C196.206 4.92696 196.435 5.01886 196.7 5.08524C196.965 5.15161 197.222 5.1848 197.472 5.1848C197.671 5.1848 197.808 5.16948 197.885 5.13885C197.966 5.10311 198.007 5.05205 198.007 4.98568C198.007 4.9193 197.956 4.87335 197.854 4.84782C197.757 4.8223 197.597 4.79677 197.373 4.77124C197.031 4.73039 196.741 4.67934 196.501 4.61807C196.262 4.55169 196.051 4.42661 195.867 4.2428C195.689 4.059 195.6 3.79606 195.6 3.45398C195.6 3.18338 195.681 2.94086 195.844 2.72642C196.007 2.51198 196.249 2.34094 196.57 2.2133C196.896 2.08566 197.286 2.02184 197.739 2.02184C198.055 2.02184 198.363 2.05247 198.664 2.11374C198.97 2.16991 199.23 2.25415 199.444 2.36647L198.97 3.50759C198.603 3.30336 198.2 3.20125 197.762 3.20125C197.385 3.20125 197.197 3.26762 197.197 3.40037C197.197 3.46674 197.248 3.51525 197.35 3.54588C197.452 3.57141 197.612 3.59694 197.831 3.62247C198.172 3.66331 198.46 3.71692 198.695 3.78329C198.934 3.84967 199.143 3.97476 199.321 4.15856C199.505 4.34236 199.596 4.6053 199.596 4.94738C199.596 5.20777 199.515 5.44519 199.352 5.65962C199.189 5.87406 198.944 6.0451 198.618 6.17274C198.292 6.30038 197.897 6.3642 197.434 6.3642Z" fill="white"/>
<path d="M201.755 6.3642C201.398 6.3642 201.047 6.32591 200.7 6.24933C200.354 6.17274 200.073 6.07318 199.859 5.95065L200.333 4.80953C200.527 4.92696 200.756 5.01886 201.021 5.08524C201.286 5.15161 201.543 5.1848 201.793 5.1848C201.992 5.1848 202.129 5.16948 202.206 5.13885C202.287 5.10311 202.328 5.05205 202.328 4.98568C202.328 4.9193 202.277 4.87335 202.175 4.84782C202.078 4.8223 201.918 4.79677 201.694 4.77124C201.352 4.73039 201.062 4.67934 200.822 4.61807C200.583 4.55169 200.372 4.42661 200.188 4.2428C200.01 4.059 199.921 3.79606 199.921 3.45398C199.921 3.18338 200.002 2.94086 200.165 2.72642C200.328 2.51198 200.57 2.34094 200.891 2.2133C201.217 2.08566 201.607 2.02184 202.06 2.02184C202.376 2.02184 202.684 2.05247 202.985 2.11374C203.291 2.16991 203.551 2.25415 203.765 2.36647L203.291 3.50759C202.924 3.30336 202.521 3.20125 202.083 3.20125C201.706 3.20125 201.518 3.26762 201.518 3.40037C201.518 3.46674 201.569 3.51525 201.671 3.54588C201.773 3.57141 201.933 3.59694 202.152 3.62247C202.493 3.66331 202.781 3.71692 203.016 3.78329C203.255 3.84967 203.464 3.97476 203.642 4.15856C203.826 4.34236 203.917 4.6053 203.917 4.94738C203.917 5.20777 203.836 5.44519 203.673 5.65962C203.51 5.87406 203.265 6.0451 202.939 6.17274C202.613 6.30038 202.218 6.3642 201.755 6.3642Z" fill="white"/>
<path d="M206.649 6.3642C206.185 6.3642 205.767 6.2723 205.396 6.0885C205.029 5.89959 204.741 5.64175 204.532 5.31499C204.323 4.98312 204.219 4.60786 204.219 4.18919C204.219 3.77053 204.323 3.39782 204.532 3.07105C204.741 2.73919 205.029 2.48135 205.396 2.29755C205.767 2.11374 206.185 2.02184 206.649 2.02184C207.118 2.02184 207.535 2.11374 207.902 2.29755C208.274 2.48135 208.562 2.73919 208.766 3.07105C208.974 3.39782 209.079 3.77053 209.079 4.18919C209.079 4.60786 208.974 4.98312 208.766 5.31499C208.562 5.64175 208.274 5.89959 207.902 6.0885C207.535 6.2723 207.118 6.3642 206.649 6.3642ZM206.649 5.01631C206.847 5.01631 207.011 4.94483 207.138 4.80187C207.265 4.65381 207.329 4.44958 207.329 4.18919C207.329 3.9288 207.265 3.72713 207.138 3.58417C207.011 3.44121 206.847 3.36973 206.649 3.36973C206.45 3.36973 206.287 3.44121 206.16 3.58417C206.032 3.72713 205.969 3.9288 205.969 4.18919C205.969 4.44958 206.032 4.65381 206.16 4.80187C206.287 4.94483 206.45 5.01631 206.649 5.01631Z" fill="white"/>
<path d="M211.866 6.3642C211.392 6.3642 210.967 6.2723 210.59 6.0885C210.218 5.90469 209.925 5.64686 209.711 5.31499C209.502 4.98312 209.398 4.60786 209.398 4.18919C209.398 3.77053 209.502 3.39782 209.711 3.07105C209.925 2.73919 210.218 2.48135 210.59 2.29755C210.967 2.11374 211.392 2.02184 211.866 2.02184C212.376 2.02184 212.811 2.13161 213.173 2.35116C213.535 2.5707 213.784 2.87449 213.922 3.26252L212.585 3.92115C212.422 3.55354 212.18 3.36973 211.859 3.36973C211.655 3.36973 211.484 3.44121 211.347 3.58417C211.214 3.72713 211.148 3.9288 211.148 4.18919C211.148 4.45469 211.214 4.65891 211.347 4.80187C211.484 4.94483 211.655 5.01631 211.859 5.01631C212.18 5.01631 212.422 4.83251 212.585 4.4649L213.922 5.12353C213.784 5.51156 213.535 5.81535 213.173 6.03489C212.811 6.25443 212.376 6.3642 211.866 6.3642Z" fill="white"/>
<path d="M214.321 2.09843H216.048V6.28762H214.321V2.09843ZM215.185 1.76145C214.874 1.76145 214.622 1.67976 214.428 1.51638C214.24 1.34789 214.145 1.13601 214.145 0.880726C214.145 0.625443 214.24 0.416111 214.428 0.25273C214.622 0.0842434 214.874 0 215.185 0C215.5 0 215.753 0.0791378 215.941 0.237413C216.13 0.395688 216.224 0.599915 216.224 0.850092C216.224 1.11559 216.13 1.33513 215.941 1.50872C215.753 1.67721 215.5 1.76145 215.185 1.76145Z" fill="white"/>
<path d="M218.686 2.02184C219.42 2.02184 219.98 2.18777 220.367 2.51964C220.754 2.8464 220.948 3.35187 220.948 4.03602V6.28762H219.343V5.73621C219.144 6.15487 218.75 6.3642 218.159 6.3642C217.827 6.3642 217.545 6.30804 217.31 6.19572C217.081 6.07829 216.905 5.92256 216.783 5.72855C216.666 5.52943 216.607 5.30733 216.607 5.06226C216.607 4.6487 216.765 4.3347 217.081 4.12027C217.397 3.90583 217.876 3.79861 218.518 3.79861H219.213C219.157 3.47185 218.895 3.30847 218.426 3.30847C218.238 3.30847 218.047 3.3391 217.853 3.40037C217.659 3.45653 217.494 3.53567 217.356 3.63778L216.806 2.49667C217.045 2.3486 217.333 2.23373 217.67 2.15204C218.011 2.06524 218.35 2.02184 218.686 2.02184ZM218.678 5.32265C218.801 5.32265 218.91 5.28946 219.007 5.22309C219.104 5.15672 219.175 5.05716 219.221 4.92441V4.63339H218.793C218.441 4.63339 218.266 4.75082 218.266 4.98568C218.266 5.08268 218.301 5.16437 218.373 5.23075C218.449 5.29202 218.551 5.32265 218.678 5.32265Z" fill="white"/>
<path d="M224.774 6.14211C224.514 6.29017 224.16 6.3642 223.712 6.3642C223.126 6.3642 222.675 6.2238 222.359 5.94299C222.043 5.65707 221.885 5.23075 221.885 4.66402V3.59183H221.312V2.32818H221.885V1.15643H223.612V2.32818H224.468V3.59183H223.612V4.6487C223.612 4.77634 223.646 4.8759 223.712 4.94738C223.778 5.01886 223.865 5.0546 223.972 5.0546C224.119 5.0546 224.249 5.01631 224.361 4.93972L224.774 6.14211Z" fill="white"/>
<path d="M229.545 4.18919C229.545 4.21472 229.537 4.35002 229.522 4.59509H226.618C226.679 4.75337 226.781 4.8759 226.924 4.9627C227.066 5.04439 227.245 5.08524 227.459 5.08524C227.642 5.08524 227.795 5.06226 227.917 5.01631C228.045 4.97036 228.182 4.89122 228.33 4.7789L229.232 5.69026C228.824 6.13955 228.215 6.3642 227.405 6.3642C226.901 6.3642 226.458 6.2723 226.076 6.0885C225.693 5.89959 225.398 5.6392 225.189 5.30733C224.98 4.97546 224.876 4.60275 224.876 4.18919C224.876 3.77053 224.978 3.39782 225.181 3.07105C225.39 2.73919 225.673 2.48135 226.03 2.29755C226.391 2.11374 226.796 2.02184 227.245 2.02184C227.668 2.02184 228.052 2.10608 228.399 2.27457C228.75 2.44306 229.028 2.69068 229.232 3.01744C229.441 3.34421 229.545 3.73479 229.545 4.18919ZM227.26 3.20125C227.082 3.20125 226.934 3.24975 226.817 3.34676C226.7 3.44377 226.623 3.58162 226.588 3.76032H227.933C227.897 3.58673 227.82 3.45143 227.703 3.35442C227.586 3.2523 227.438 3.20125 227.26 3.20125Z" fill="white"/>
</svg>
