<svg width="447" height="306" viewBox="0 0 447 306" fill="none" xmlns="http://www.w3.org/2000/svg">
<path fill-rule="evenodd" clip-rule="evenodd" d="M426.365 7.1875H20.3652C13.1855 7.1875 7.36523 13.0078 7.36523 20.1875V285.188C7.36523 292.367 13.1855 298.188 20.3652 298.188H426.365C433.545 298.188 439.365 292.367 439.365 285.188V20.1875C439.365 13.0078 433.545 7.1875 426.365 7.1875ZM20.3652 0.1875C9.31954 0.1875 0.365234 9.1418 0.365234 20.1875V285.188C0.365234 296.233 9.31955 305.188 20.3652 305.188H426.365C437.411 305.188 446.365 296.233 446.365 285.188V20.1875C446.365 9.1418 437.411 0.1875 426.365 0.1875H20.3652Z" fill="white"/>
</svg>
