<svg width="35" height="24" viewBox="0 0 35 24" fill="none" xmlns="http://www.w3.org/2000/svg">
<g clip-path="url(#clip0_819_253)">
<path d="M7.76953 6.4509L11.0132 8.32534M7.76953 6.4509V10.2669M7.76953 6.4509L11.0256 4.52955M17.4207 23.2627V19.5134M17.4207 23.2627L14.2169 21.4556M17.4207 23.2627L20.6774 21.4556M27.2314 6.4509V10.2669M27.2314 6.4509L23.9544 8.31382M27.2314 6.4509L23.9544 4.53823M17.4207 12.0281V15.7641M17.4207 12.0281L14.2169 10.1767M17.4207 12.0281L20.6774 10.1767M11.0132 8.32534V19.6484M11.0132 8.32534L14.2169 10.1767M11.0132 8.32534L20.7009 2.63923M11.0132 19.6484L7.76953 17.8188V14.0429M11.0132 19.6484L14.2169 21.4556M7.76953 10.2669L17.4207 15.7641M7.76953 10.2669V14.0429M17.4207 15.7641V19.5134M17.4207 15.7641L27.2314 10.2669M17.4207 19.5134L7.76953 14.0429M17.4207 19.5134L27.2314 14.0429M27.2314 10.2669V14.0429M27.2314 14.0429V17.8188L23.9544 19.6372M14.2169 21.4556V10.1767M14.2169 10.1767L23.9544 4.53823M20.6774 10.1767L20.6774 21.4556M20.6774 10.1767L23.9544 8.31382M20.6774 10.1767L11.0256 4.52955M20.6774 21.4556L23.9544 19.6372M23.9544 8.31382V19.6372M23.9544 8.31382L14.2817 2.60821M14.2817 2.60821L17.4473 0.740234L20.7009 2.63923M14.2817 2.60821L11.0256 4.52955M23.9544 4.53823L20.7009 2.63923" stroke="white"/>
</g>
<defs>
<clipPath id="clip0_819_253">
<rect width="35" height="23.935" fill="white" transform="translate(0 0.0332031)"/>
</clipPath>
</defs>
</svg>
