<svg width="65" height="46" viewBox="0 0 65 46" fill="none" xmlns="http://www.w3.org/2000/svg">
<path fill-rule="evenodd" clip-rule="evenodd" d="M57.5901 1.37425C60.3462 2.1275 62.5105 4.35275 63.2489 7.18175C64.5903 12.3108 64.5847 23 64.5847 23C64.5847 23 64.5847 33.695 63.2489 38.8182C62.5105 41.6415 60.3462 43.8667 57.5901 44.6257C52.602 46 32.5875 46 32.5875 46C32.5875 46 12.5787 46 7.58496 44.6257C4.82882 43.8725 2.65885 41.6473 1.92613 38.8182C0.590332 33.6893 0.590332 23 0.590332 23C0.590332 23 0.590332 12.305 1.92613 7.18175C2.66448 4.3585 4.83445 2.1275 7.58496 1.37425C12.5787 0 32.5875 0 32.5875 0C32.5875 0 52.602 0 57.5901 1.37425ZM42.7722 23L26.0438 32.706V13.294L42.7722 23Z" fill="white"/>
</svg>
