<svg width="65" height="46" viewBox="0 0 65 46" fill="none" xmlns="http://www.w3.org/2000/svg">
<path fill-rule="evenodd" clip-rule="evenodd" d="M57.0901 1.37425C59.8462 2.1275 62.0105 4.35275 62.7489 7.18175C64.0903 12.3108 64.0847 23 64.0847 23C64.0847 23 64.0847 33.695 62.7489 38.8182C62.0105 41.6415 59.8462 43.8667 57.0901 44.6257C52.102 46 32.0875 46 32.0875 46C32.0875 46 12.0787 46 7.08496 44.6257C4.32882 43.8725 2.15885 41.6473 1.42613 38.8182C0.090332 33.6893 0.090332 23 0.090332 23C0.090332 23 0.090332 12.305 1.42613 7.18175C2.16448 4.3585 4.33445 2.1275 7.08496 1.37425C12.0787 0 32.0875 0 32.0875 0C32.0875 0 52.102 0 57.0901 1.37425ZM42.2722 23L25.5438 32.706V13.294L42.2722 23Z" fill="white"/>
</svg>
