<svg width="45" height="46" viewBox="0 0 45 46" fill="none" xmlns="http://www.w3.org/2000/svg">
<path d="M22.5021 0C16.3914 0 15.6245 0.0270777 13.2245 0.137762C10.8292 0.248921 9.19416 0.633229 7.76352 1.1971C6.28366 1.7795 5.02833 2.55857 3.7777 3.82645C2.52612 5.09386 1.75736 6.36601 1.18079 7.86524C0.622975 9.31554 0.243284 10.973 0.13547 13.3995C0.0281251 15.8317 0 16.6093 0 22.8019C0 28.9945 0.0271882 29.7693 0.135939 32.2015C0.246097 34.629 0.625319 36.2859 1.18126 37.7358C1.75642 39.2355 2.52518 40.5076 3.77629 41.775C5.02646 43.0434 6.28178 43.8244 7.76071 44.4068C9.19228 44.9706 10.8278 45.3549 13.2226 45.4661C15.6227 45.5768 16.3891 45.6039 22.4993 45.6039C28.6105 45.6039 29.375 45.5768 31.775 45.4661C34.1704 45.3549 35.8072 44.9706 37.2388 44.4068C38.7182 43.8244 39.9717 43.0434 41.2218 41.775C42.4734 40.5076 43.2422 39.2355 43.8187 37.7362C44.3719 36.2859 44.7516 34.6285 44.8641 32.202C44.9719 29.7698 45 28.9945 45 22.8019C45 16.6093 44.9719 15.8321 44.8641 13.3999C44.7516 10.9725 44.3719 9.31554 43.8187 7.86571C43.2422 6.36601 42.4734 5.09386 41.2218 3.82645C39.9703 2.55809 38.7187 1.77903 37.2374 1.1971C35.803 0.633229 34.1671 0.248921 31.7717 0.137762C29.3717 0.0270777 28.6076 0 22.4951 0H22.5021ZM20.4837 4.1091C21.0827 4.10815 21.7512 4.1091 22.5021 4.1091C28.5097 4.1091 29.2217 4.13095 31.5941 4.24021C33.7878 4.34187 34.9785 4.71335 35.7716 5.02545C36.8216 5.43873 37.5702 5.93278 38.3573 6.73084C39.1448 7.52891 39.6323 8.28897 40.041 9.35306C40.349 10.1559 40.716 11.3625 40.8159 13.5857C40.9237 15.9894 40.9471 16.7114 40.9471 22.7967C40.9471 28.882 40.9237 29.604 40.8159 32.0077C40.7156 34.2309 40.349 35.4375 40.041 36.2403C39.6332 37.3044 39.1448 38.0621 38.3573 38.8597C37.5698 39.6578 36.8221 40.1518 35.7716 40.5651C34.9794 40.8786 33.7878 41.2492 31.5941 41.3508C29.2222 41.4601 28.5097 41.4838 22.5021 41.4838C16.4941 41.4838 15.782 41.4601 13.4101 41.3508C11.2164 41.2482 10.0257 40.8767 9.23213 40.5646C8.18212 40.1513 7.43211 39.6573 6.6446 38.8592C5.85709 38.0612 5.36959 37.303 4.96083 36.2384C4.65286 35.4356 4.28583 34.229 4.18598 32.0058C4.07817 29.6021 4.0566 28.8801 4.0566 22.791C4.0566 16.7019 4.07817 15.9837 4.18598 13.58C4.28629 11.3568 4.65286 10.1502 4.96083 9.34641C5.36865 8.28232 5.85709 7.52226 6.6446 6.72419C7.43211 5.92613 8.18212 5.43208 9.23213 5.01785C10.0253 4.70432 11.2164 4.33379 13.4101 4.23166C15.4858 4.13665 16.2902 4.10815 20.4837 4.1034V4.1091ZM34.5125 7.89517C33.0219 7.89517 31.8125 9.11934 31.8125 10.6304C31.8125 12.1411 33.0219 13.3667 34.5125 13.3667C36.0032 13.3667 37.2126 12.1411 37.2126 10.6304C37.2126 9.11982 36.0032 7.89517 34.5125 7.89517ZM22.5021 11.0922C16.1209 11.0922 10.9473 16.3352 10.9473 22.8019C10.9473 29.2686 16.1209 34.5093 22.5021 34.5093C28.8833 34.5093 34.055 29.2686 34.055 22.8019C34.055 16.3352 28.8833 11.0922 22.5021 11.0922ZM22.5021 15.2013C26.644 15.2013 30.0022 18.604 30.0022 22.8019C30.0022 26.9994 26.644 30.4026 22.5021 30.4026C18.3597 30.4026 15.002 26.9994 15.002 22.8019C15.002 18.604 18.3597 15.2013 22.5021 15.2013Z" fill="white"/>
</svg>
