<svg width="47" height="46" viewBox="0 0 47 46" fill="none" xmlns="http://www.w3.org/2000/svg">
<path fill-rule="evenodd" clip-rule="evenodd" d="M23.5162 0.5C10.8357 0.5 0.584717 10.8125 0.584717 23.5705C0.584717 33.7686 7.15286 42.4011 16.2646 45.4564C17.4038 45.6861 17.8211 44.96 17.8211 44.3492C17.8211 43.8144 17.7836 41.9811 17.7836 40.0709C11.4046 41.4463 10.0762 37.3208 10.0762 37.3208C9.05106 34.647 7.53212 33.9598 7.53212 33.9598C5.44429 32.5466 7.68421 32.5466 7.68421 32.5466C10.0002 32.6994 11.2154 34.9147 11.2154 34.9147C13.2652 38.4284 16.5683 37.4356 17.8971 36.8244C18.0868 35.3347 18.6946 34.3034 19.34 33.7306C14.2524 33.1958 8.89945 31.2097 8.89945 22.348C8.89945 19.827 9.81006 17.7645 11.253 16.1605C11.0253 15.5877 10.2278 13.2191 11.4811 10.0489C11.4811 10.0489 13.4173 9.43766 17.7831 12.417C19.6522 11.912 21.5798 11.6551 23.5162 11.653C25.4524 11.653 27.4262 11.9206 29.2488 12.417C33.6151 9.43766 35.5513 10.0489 35.5513 10.0489C36.8046 13.2191 36.0066 15.5877 35.7789 16.1605C37.2599 17.7645 38.1329 19.827 38.1329 22.348C38.1329 31.2097 32.78 33.1573 27.6543 33.7306C28.4898 34.4562 29.2108 35.8311 29.2108 38.0084C29.2108 41.1022 29.1732 43.5852 29.1732 44.3488C29.1732 44.96 29.591 45.6861 30.7297 45.4569C39.8415 42.4006 46.4096 33.7686 46.4096 23.5705C46.4472 10.8125 36.1587 0.5 23.5162 0.5Z" fill="white"/>
</svg>
