<svg width="46" height="46" viewBox="0 0 46 46" fill="none" xmlns="http://www.w3.org/2000/svg">
<path d="M22.5924 0.197266C16.4818 0.197266 15.7149 0.224343 13.3148 0.335028C10.9195 0.446187 9.28449 0.830494 7.85385 1.39437C6.37399 1.97677 5.11867 2.75583 3.86803 4.02371C2.61645 5.29112 1.84769 6.56328 1.27113 8.0625C0.713307 9.5128 0.333616 11.1702 0.225802 13.5967C0.118457 16.0289 0.090332 16.8066 0.090332 22.9992C0.090332 29.1918 0.11752 29.9666 0.226271 32.3988C0.336429 34.8263 0.715651 36.4832 1.27159 37.933C1.84676 39.4327 2.61551 40.7049 3.86662 41.9723C5.11679 43.2407 6.37212 44.0216 7.85104 44.604C9.28261 45.1679 10.9181 45.5522 13.313 45.6634C15.713 45.774 16.4794 45.8011 22.5896 45.8011C28.7008 45.8011 29.4653 45.774 31.8654 45.6634C34.2607 45.5522 35.8976 45.1679 37.3292 44.604C38.8085 44.0216 40.062 43.2407 41.3122 41.9723C42.5637 40.7049 43.3325 39.4327 43.9091 37.9335C44.4622 36.4832 44.8419 34.8258 44.9544 32.3993C45.0622 29.9671 45.0903 29.1918 45.0903 22.9992C45.0903 16.8066 45.0622 16.0294 44.9544 13.5972C44.8419 11.1697 44.4622 9.5128 43.9091 8.06298C43.3325 6.56328 42.5637 5.29112 41.3122 4.02371C40.0606 2.75536 38.809 1.97629 37.3278 1.39437C35.8934 0.830494 34.2574 0.446187 31.8621 0.335028C29.462 0.224343 28.698 0.197266 22.5854 0.197266H22.5924ZM20.574 4.30636C21.1731 4.30541 21.8415 4.30636 22.5924 4.30636C28.6 4.30636 29.312 4.32822 31.6844 4.43747C33.8782 4.53913 35.0688 4.91061 35.862 5.22272C36.912 5.636 37.6606 6.13004 38.4476 6.92811C39.2351 7.72618 39.7226 8.48624 40.1314 9.55033C40.4393 10.3531 40.8064 11.5598 40.9062 13.7829C41.014 16.1866 41.0375 16.9087 41.0375 22.994C41.0375 29.0792 41.014 29.8013 40.9062 32.205C40.8059 34.4282 40.4393 35.6348 40.1314 36.4376C39.7236 37.5017 39.2351 38.2594 38.4476 39.057C37.6601 39.855 36.9124 40.3491 35.862 40.7624C35.0698 41.0759 33.8782 41.4464 31.6844 41.5481C29.3125 41.6573 28.6 41.6811 22.5924 41.6811C16.5844 41.6811 15.8724 41.6573 13.5005 41.5481C11.3067 41.4455 10.1161 41.074 9.32246 40.7619C8.27245 40.3486 7.52244 39.8546 6.73493 39.0565C5.94742 38.2584 5.45992 37.5003 5.05116 36.4357C4.74319 35.6329 4.37616 34.4263 4.27631 32.2031C4.1685 29.7994 4.14694 29.0773 4.14694 22.9883C4.14694 16.8992 4.1685 16.1809 4.27631 13.7772C4.37663 11.5541 4.74319 10.3474 5.05116 9.54368C5.45898 8.47959 5.94742 7.71953 6.73493 6.92146C7.52244 6.12339 8.27245 5.62935 9.32246 5.21511C10.1156 4.90159 11.3067 4.53106 13.5005 4.42892C15.5761 4.33392 16.3805 4.30541 20.574 4.30066V4.30636ZM34.6029 8.09243C33.1122 8.09243 31.9028 9.31661 31.9028 10.8277C31.9028 12.3383 33.1122 13.5639 34.6029 13.5639C36.0935 13.5639 37.3029 12.3383 37.3029 10.8277C37.3029 9.31709 36.0935 8.09243 34.6029 8.09243ZM22.5924 11.2895C16.2113 11.2895 11.0376 16.5325 11.0376 22.9992C11.0376 29.4659 16.2113 34.7066 22.5924 34.7066C28.9736 34.7066 34.1454 29.4659 34.1454 22.9992C34.1454 16.5325 28.9736 11.2895 22.5924 11.2895ZM22.5924 15.3986C26.7344 15.3986 30.0925 18.8013 30.0925 22.9992C30.0925 27.1966 26.7344 30.5998 22.5924 30.5998C18.4501 30.5998 15.0924 27.1966 15.0924 22.9992C15.0924 18.8013 18.4501 15.3986 22.5924 15.3986Z" fill="white"/>
</svg>
