<svg width="113" height="114" viewBox="0 0 113 114" fill="none" xmlns="http://www.w3.org/2000/svg">
<path d="M112.365 57.1035C112.365 88.3076 87.2932 113.604 56.3652 113.604C25.4373 113.604 0.365234 88.3076 0.365234 57.1035C0.365234 25.8994 25.4373 0.603516 56.3652 0.603516C87.2932 0.603516 112.365 25.8994 112.365 57.1035Z" fill="white"/>
<path d="M9.35794 87.8229V85.558C16.7156 55.4534 90.2922 48.4409 103.781 85.558V87.178C93.9019 103 76.4579 113.531 56.571 113.603L54.1836 113.561C35.3898 112.835 18.9698 102.764 9.35794 87.8229Z" fill="#383E59"/>
<path d="M86.3812 41.7355C86.3812 59.9587 72.9426 74.7315 56.3652 74.7315C39.7879 74.7315 26.3492 59.9587 26.3492 41.7355C26.3492 23.5123 39.7879 8.73952 56.3652 8.73952C72.9426 8.73952 86.3812 23.5123 86.3812 41.7355Z" fill="#FAA668"/>
</svg>
