<svg width="259" height="299" viewBox="0 0 259 299" fill="none" xmlns="http://www.w3.org/2000/svg">
<path d="M5.36523 78.9576L46.6986 102.843M5.36523 78.9576V127.584M5.36523 78.9576L46.8569 54.4742M128.349 293.187V245.411M128.349 293.187L87.5237 270.16M128.349 293.187L169.849 270.16M253.365 78.9576V127.584M253.365 78.9576L211.607 102.697M253.365 78.9576L211.607 54.5848M128.349 150.028V197.634M128.349 150.028L87.5237 126.435M128.349 150.028L169.849 126.435M46.6986 102.843V247.132M46.6986 102.843L87.5237 126.435M46.6986 102.843L170.147 30.3861M46.6986 247.132L5.36523 223.818V175.701M46.6986 247.132L87.5237 270.16M5.36523 127.584L128.349 197.634M5.36523 127.584V175.701M128.349 197.634V245.411M128.349 197.634L253.365 127.584M128.349 245.411L5.36523 175.701M128.349 245.411L253.365 175.701M253.365 127.584V175.701M253.365 175.701V223.818L211.607 246.989M87.5237 270.16V126.435M87.5237 126.435L211.607 54.5848M169.849 126.435L169.849 270.16M169.849 126.435L211.607 102.697M169.849 126.435L46.8569 54.4742M169.849 270.16L211.607 246.989M211.607 102.697V246.989M211.607 102.697L88.3485 29.9908M88.3485 29.9908L128.688 6.1875L170.147 30.3861M88.3485 29.9908L46.8569 54.4742M211.607 54.5848L170.147 30.3861" stroke="white" stroke-width="10"/>
</svg>
