<svg width="35" height="25" viewBox="0 0 35 25" fill="none" xmlns="http://www.w3.org/2000/svg">
<path d="M2.58969 14.7334C2.58969 14.5116 2.76536 14.3318 2.98206 14.3318H19.2467C19.4634 14.3318 19.639 14.5116 19.639 14.7334C19.639 14.9552 19.4634 15.1351 19.2467 15.1351H2.98206C2.76536 15.1351 2.58969 14.9552 2.58969 14.7334Z" fill="white"/>
<path d="M2.58969 16.8091C2.58969 16.5873 2.76536 16.4074 2.98206 16.4074H8.95697C9.17367 16.4074 9.34934 16.5873 9.34934 16.8091C9.34934 17.0309 9.17367 17.2107 8.95697 17.2107H2.98206C2.76536 17.2107 2.58969 17.0309 2.58969 16.8091Z" fill="white"/>
<path d="M2.58969 18.8849C2.58969 18.6631 2.76536 18.4833 2.98206 18.4833H15.7166C15.9333 18.4833 16.109 18.6631 16.109 18.8849C16.109 19.1067 15.9333 19.2865 15.7166 19.2865H2.98206C2.76536 19.2865 2.58969 19.1067 2.58969 18.8849Z" fill="white"/>
<path d="M2.58969 20.9607C2.58969 20.7389 2.76536 20.5591 2.98206 20.5591H26.1565C26.3732 20.5591 26.5489 20.7389 26.5489 20.9607C26.5489 21.1825 26.3732 21.3623 26.1565 21.3623H2.98206C2.76536 21.3623 2.58969 21.1825 2.58969 20.9607Z" fill="white"/>
<path d="M20.7657 14.7334C20.7657 14.5116 20.9413 14.3318 21.158 14.3318H31.9398C32.1565 14.3318 32.3322 14.5116 32.3322 14.7334C32.3322 14.9552 32.1565 15.1351 31.9398 15.1351H21.158C20.9413 15.1351 20.7657 14.9552 20.7657 14.7334Z" fill="white"/>
<path d="M10.4759 16.8091C10.4759 16.5873 10.6516 16.4074 10.8683 16.4074H31.9398C32.1565 16.4074 32.3322 16.5873 32.3322 16.8091C32.3322 17.0309 32.1565 17.2107 31.9398 17.2107H10.8683C10.6516 17.2107 10.4759 17.0309 10.4759 16.8091Z" fill="white"/>
<path d="M17.2356 18.8849C17.2356 18.6631 17.4113 18.4833 17.628 18.4833H31.9398C32.1565 18.4833 32.3322 18.6631 32.3322 18.8849C32.3322 19.1067 32.1565 19.2865 31.9398 19.2865H17.628C17.4113 19.2865 17.2356 19.1067 17.2356 18.8849Z" fill="white"/>
<path d="M27.6755 20.9607C27.6755 20.7389 27.8512 20.5591 28.0679 20.5591H31.9398C32.1565 20.5591 32.3322 20.7389 32.3322 20.9607C32.3322 21.1825 32.1565 21.3623 31.9398 21.3623H28.0679C27.8512 21.3623 27.6755 21.1825 27.6755 20.9607Z" fill="white"/>
<path d="M14.9824 3.69508C14.9824 3.47326 15.1581 3.29344 15.3748 3.29344H19.2467C19.4634 3.29344 19.639 3.47326 19.639 3.69508C19.639 3.9169 19.4634 4.09672 19.2467 4.09672H15.3748C15.1581 4.09672 14.9824 3.9169 14.9824 3.69508Z" fill="white"/>
<path d="M14.9824 5.7709C14.9824 5.54908 15.1581 5.36926 15.3748 5.36926H26.0814C26.2981 5.36926 26.4738 5.54908 26.4738 5.7709C26.4738 5.99272 26.2981 6.17254 26.0814 6.17254H15.3748C15.1581 6.17254 14.9824 5.99272 14.9824 5.7709Z" fill="white"/>
<path d="M14.9824 7.84656C14.9824 7.62474 15.1581 7.44492 15.3748 7.44492H18.0449C18.2617 7.44492 18.4373 7.62474 18.4373 7.84656C18.4373 8.06838 18.2617 8.2482 18.0449 8.2482H15.3748C15.1581 8.2482 14.9824 8.06838 14.9824 7.84656Z" fill="white"/>
<path d="M14.9824 9.92237C14.9824 9.70056 15.1581 9.52074 15.3748 9.52074H22.7016C22.9183 9.52074 23.094 9.70056 23.094 9.92237C23.094 10.1442 22.9183 10.324 22.7016 10.324H15.3748C15.1581 10.324 14.9824 10.1442 14.9824 9.92237Z" fill="white"/>
<path d="M20.7657 3.69508C20.7657 3.47326 20.9413 3.29344 21.158 3.29344H31.9398C32.1565 3.29344 32.3322 3.47326 32.3322 3.69508C32.3322 3.9169 32.1565 4.09672 31.9398 4.09672H21.158C20.9413 4.09672 20.7657 3.9169 20.7657 3.69508Z" fill="white"/>
<path d="M27.6004 5.7709C27.6004 5.54908 27.7761 5.36926 27.9928 5.36926H31.9398C32.1565 5.36926 32.3322 5.54908 32.3322 5.7709C32.3322 5.99272 32.1565 6.17254 31.9398 6.17254H27.9928C27.7761 6.17254 27.6004 5.99272 27.6004 5.7709Z" fill="white"/>
<path d="M19.5639 7.84656C19.5639 7.62474 19.7396 7.44492 19.9563 7.44492H31.9398C32.1565 7.44492 32.3322 7.62474 32.3322 7.84656C32.3322 8.06838 32.1565 8.2482 31.9398 8.2482H19.9563C19.7396 8.2482 19.5639 8.06838 19.5639 7.84656Z" fill="white"/>
<path d="M24.2206 9.92237C24.2206 9.70056 24.3963 9.52074 24.613 9.52074H31.9398C32.1565 9.52074 32.3322 9.70056 32.3322 9.92237C32.3322 10.1442 32.1565 10.324 31.9398 10.324H24.613C24.3963 10.324 24.2206 10.1442 24.2206 9.92237Z" fill="white"/>
<path d="M22.1927 11.9982C22.1927 11.7764 22.3684 11.5966 22.5851 11.5966H31.9398C32.1565 11.5966 32.3322 11.7764 32.3322 11.9982C32.3322 12.22 32.1565 12.3998 31.9398 12.3998H22.5851C22.3684 12.3998 22.1927 12.22 22.1927 11.9982Z" fill="white"/>
<path d="M15.0575 11.9982C15.0575 11.7764 15.2332 11.5966 15.4499 11.5966H20.6737C20.8904 11.5966 21.0661 11.7764 21.0661 11.9982C21.0661 12.22 20.8904 12.3998 20.6737 12.3998H15.4499C15.2332 12.3998 15.0575 12.22 15.0575 11.9982Z" fill="white"/>
<path fill-rule="evenodd" clip-rule="evenodd" d="M33.4305 0.562295H1.56951C1.00608 0.562295 0.549327 1.02983 0.549327 1.60656V22.8934C0.549327 23.4702 1.00608 23.9377 1.56951 23.9377H33.4305C33.9939 23.9377 34.4507 23.4702 34.4507 22.8934V1.60656C34.4507 1.02983 33.9939 0.562295 33.4305 0.562295ZM1.56951 0C0.702692 0 0 0.71928 0 1.60656V22.8934C0 23.7807 0.702693 24.5 1.56951 24.5H33.4305C34.2973 24.5 35 23.7807 35 22.8934V1.60656C35 0.71928 34.2973 0 33.4305 0H1.56951Z" fill="white"/>
<path d="M12.3991 7.86538C12.3991 10.3719 10.4316 12.4039 8.00448 12.4039C5.5774 12.4039 3.60987 10.3719 3.60987 7.86538C3.60987 5.35883 5.5774 3.32686 8.00448 3.32686C10.4316 3.32686 12.3991 5.35883 12.3991 7.86538Z" fill="white"/>
<path d="M4.31557 10.333V10.1511C4.89297 7.73283 10.6669 7.16953 11.7255 10.1511V10.2812C10.9502 11.5522 9.58127 12.3981 8.02063 12.4039L7.83328 12.4005C6.35843 12.3422 5.06987 11.5332 4.31557 10.333Z" fill="#383E59"/>
<path d="M10.36 6.63091C10.36 8.09474 9.3054 9.2814 8.00448 9.2814C6.70357 9.2814 5.64897 8.09474 5.64897 6.63091C5.64897 5.16708 6.70357 3.98041 8.00448 3.98041C9.3054 3.98041 10.36 5.16708 10.36 6.63091Z" fill="#FAA668"/>
</svg>
