<svg width="46" height="46" viewBox="0 0 46 46" fill="none" xmlns="http://www.w3.org/2000/svg">
<path fill-rule="evenodd" clip-rule="evenodd" d="M23.0162 0.5C10.3357 0.5 0.0847168 10.8125 0.0847168 23.5705C0.0847168 33.7686 6.65286 42.4011 15.7646 45.4564C16.9038 45.6861 17.3211 44.96 17.3211 44.3492C17.3211 43.8144 17.2836 41.9811 17.2836 40.0709C10.9046 41.4463 9.57621 37.3208 9.57621 37.3208C8.55106 34.647 7.03212 33.9598 7.03212 33.9598C4.94429 32.5466 7.18421 32.5466 7.18421 32.5466C9.50017 32.6994 10.7154 34.9147 10.7154 34.9147C12.7652 38.4284 16.0683 37.4356 17.3971 36.8244C17.5868 35.3347 18.1946 34.3034 18.84 33.7306C13.7524 33.1958 8.39945 31.2097 8.39945 22.348C8.39945 19.827 9.31006 17.7645 10.753 16.1605C10.5253 15.5877 9.72782 13.2191 10.9811 10.0489C10.9811 10.0489 12.9173 9.43766 17.2831 12.417C19.1522 11.912 21.0798 11.6551 23.0162 11.653C24.9524 11.653 26.9262 11.9206 28.7488 12.417C33.1151 9.43766 35.0513 10.0489 35.0513 10.0489C36.3046 13.2191 35.5066 15.5877 35.2789 16.1605C36.7599 17.7645 37.6329 19.827 37.6329 22.348C37.6329 31.2097 32.28 33.1573 27.1543 33.7306C27.9898 34.4562 28.7108 35.8311 28.7108 38.0084C28.7108 41.1022 28.6732 43.5852 28.6732 44.3488C28.6732 44.96 29.091 45.6861 30.2297 45.4569C39.3415 42.4006 45.9096 33.7686 45.9096 23.5705C45.9472 10.8125 35.6587 0.5 23.0162 0.5Z" fill="white"/>
</svg>
