<svg width="38" height="275" viewBox="0 0 38 275" fill="none" xmlns="http://www.w3.org/2000/svg">
<path d="M37.5 19.8003C37.5 30.2417 29.2173 38.7062 19 38.7062C8.78273 38.7062 0.5 30.2417 0.5 19.8003C0.5 9.35895 8.78273 0.894531 19 0.894531C29.2173 0.894531 37.5 9.35895 37.5 19.8003Z" fill="white"/>
<path d="M37.5 254.989C37.5 265.43 29.2173 273.895 19 273.895C8.78273 273.895 0.5 265.43 0.5 254.989C0.5 244.547 8.78273 236.083 19 236.083C29.2173 236.083 37.5 244.547 37.5 254.989Z" fill="white"/>
<path d="M19 19.8003L19 254.989M37.5 19.8003C37.5 30.2417 29.2173 38.7062 19 38.7062C8.78273 38.7062 0.5 30.2417 0.5 19.8003C0.5 9.35895 8.78273 0.894531 19 0.894531C29.2173 0.894531 37.5 9.35895 37.5 19.8003ZM37.5 254.989C37.5 265.43 29.2173 273.895 19 273.895C8.78273 273.895 0.5 265.43 0.5 254.989C0.5 244.547 8.78273 236.083 19 236.083C29.2173 236.083 37.5 244.547 37.5 254.989Z" stroke="white"/>
</svg>
