<svg width="351" height="234" viewBox="0 0 351 234" fill="none" xmlns="http://www.w3.org/2000/svg">
<path d="M15.1725 3.46164H16.7391V5.72855C16.4232 5.94809 16.0564 6.11658 15.6386 6.23401C15.2209 6.35144 14.8108 6.41015 14.4083 6.41015C13.8377 6.41015 13.3257 6.29272 12.8723 6.05786C12.4188 5.8179 12.0622 5.48603 11.8024 5.06226C11.5477 4.63339 11.4203 4.14835 11.4203 3.60715C11.4203 3.06595 11.5477 2.58346 11.8024 2.15969C12.0622 1.73082 12.4214 1.39895 12.8799 1.16409C13.3435 0.924124 13.8657 0.804141 14.4465 0.804141C14.9713 0.804141 15.44 0.89349 15.8526 1.07219C16.2704 1.24578 16.6168 1.50106 16.8919 1.83804L15.738 2.85662C15.4017 2.46348 15.0018 2.26691 14.5382 2.26691C14.1408 2.26691 13.825 2.3869 13.5906 2.62686C13.3563 2.86683 13.2391 3.19359 13.2391 3.60715C13.2391 4.0105 13.3537 4.3347 13.583 4.57978C13.8173 4.82485 14.1281 4.94738 14.5153 4.94738C14.7445 4.94738 14.9636 4.90399 15.1725 4.81719V3.46164Z" fill="white"/>
<path d="M19.6625 6.3642C19.1989 6.3642 18.7812 6.2723 18.4093 6.0885C18.0424 5.89959 17.7546 5.64175 17.5457 5.31499C17.3368 4.98312 17.2324 4.60786 17.2324 4.18919C17.2324 3.77053 17.3368 3.39782 17.5457 3.07105C17.7546 2.73919 18.0424 2.48135 18.4093 2.29755C18.7812 2.11374 19.1989 2.02184 19.6625 2.02184C20.1312 2.02184 20.549 2.11374 20.9158 2.29755C21.2877 2.48135 21.5756 2.73919 21.7793 3.07105C21.9882 3.39782 22.0927 3.77053 22.0927 4.18919C22.0927 4.60786 21.9882 4.98312 21.7793 5.31499C21.5756 5.64175 21.2877 5.89959 20.9158 6.0885C20.549 6.2723 20.1312 6.3642 19.6625 6.3642ZM19.6625 5.01631C19.8612 5.01631 20.0243 4.94483 20.1516 4.80187C20.279 4.65381 20.3427 4.44958 20.3427 4.18919C20.3427 3.9288 20.279 3.72713 20.1516 3.58417C20.0243 3.44121 19.8612 3.36974 19.6625 3.36974C19.4638 3.36974 19.3008 3.44121 19.1735 3.58417C19.0461 3.72713 18.9824 3.9288 18.9824 4.18919C18.9824 4.44958 19.0461 4.65381 19.1735 4.80187C19.3008 4.94483 19.4638 5.01631 19.6625 5.01631Z" fill="white"/>
<path d="M22.6332 0.605021H24.3603V6.28762H22.6332V0.605021Z" fill="white"/>
<path d="M29.7492 0.605021V6.28762H28.1061V5.94299C27.8565 6.2238 27.4744 6.3642 26.9599 6.3642C26.593 6.3642 26.2542 6.27741 25.9435 6.10382C25.6378 5.92512 25.3933 5.66983 25.2099 5.33797C25.0315 5.0061 24.9424 4.62317 24.9424 4.18919C24.9424 3.75521 25.0315 3.37484 25.2099 3.04808C25.3933 2.71621 25.6378 2.46348 25.9435 2.28989C26.2542 2.11119 26.593 2.02184 26.9599 2.02184C27.4235 2.02184 27.7775 2.14182 28.0221 2.38179V0.605021H29.7492ZM27.3725 5.01631C27.5712 5.01631 27.7342 4.94483 27.8616 4.80187C27.989 4.65381 28.0526 4.44958 28.0526 4.18919C28.0526 3.9288 27.989 3.72713 27.8616 3.58417C27.7342 3.44121 27.5712 3.36974 27.3725 3.36974C27.1738 3.36974 27.0108 3.44121 26.8834 3.58417C26.7561 3.72713 26.6924 3.9288 26.6924 4.18919C26.6924 4.44958 26.7561 4.65381 26.8834 4.80187C27.0108 4.94483 27.1738 5.01631 27.3725 5.01631Z" fill="white"/>
<path d="M37.6347 6.28762L37.6194 3.84456L36.4579 5.80513H35.6631L34.5015 3.9288V6.28762H32.8585V0.926677H34.3411L36.0834 3.78329L37.7799 0.926677H39.2625L39.2777 6.28762H37.6347Z" fill="white"/>
<path d="M44.5438 4.18919C44.5438 4.21472 44.5362 4.35002 44.5209 4.59509H41.6169C41.6781 4.75337 41.78 4.8759 41.9226 4.9627C42.0653 5.04439 42.2436 5.08524 42.4576 5.08524C42.641 5.08524 42.7938 5.06226 42.9161 5.01631C43.0434 4.97036 43.181 4.89122 43.3287 4.7789L44.2305 5.69026C43.8229 6.13955 43.2141 6.3642 42.4041 6.3642C41.8997 6.3642 41.4565 6.2723 41.0744 6.0885C40.6923 5.89959 40.3968 5.6392 40.1879 5.30733C39.979 4.97546 39.8746 4.60275 39.8746 4.18919C39.8746 3.77053 39.9765 3.39782 40.1803 3.07105C40.3891 2.73919 40.6719 2.48135 41.0285 2.29755C41.3902 2.11374 41.7952 2.02184 42.2436 2.02184C42.6664 2.02184 43.0511 2.10608 43.3975 2.27457C43.749 2.44306 44.0267 2.69068 44.2305 3.01744C44.4394 3.34421 44.5438 3.73479 44.5438 4.18919ZM42.2589 3.20125C42.0806 3.20125 41.9328 3.24975 41.8156 3.34676C41.6985 3.44377 41.622 3.58162 41.5864 3.76032H42.9314C42.8957 3.58673 42.8193 3.45143 42.7021 3.35442C42.5849 3.2523 42.4372 3.20125 42.2589 3.20125Z" fill="white"/>
<path d="M49.7122 0.605021V6.28762H48.0692V5.94299C47.8195 6.2238 47.4374 6.3642 46.9229 6.3642C46.5561 6.3642 46.2173 6.27741 45.9065 6.10382C45.6008 5.92512 45.3563 5.66983 45.1729 5.33797C44.9946 5.0061 44.9054 4.62317 44.9054 4.18919C44.9054 3.75521 44.9946 3.37484 45.1729 3.04808C45.3563 2.71621 45.6008 2.46348 45.9065 2.28989C46.2173 2.11119 46.5561 2.02184 46.9229 2.02184C47.3865 2.02184 47.7406 2.14182 47.9851 2.38179V0.605021H49.7122ZM47.3355 5.01631C47.5342 5.01631 47.6973 4.94483 47.8246 4.80187C47.952 4.65381 48.0157 4.44958 48.0157 4.18919C48.0157 3.9288 47.952 3.72713 47.8246 3.58417C47.6973 3.44121 47.5342 3.36974 47.3355 3.36974C47.1369 3.36974 46.9738 3.44121 46.8465 3.58417C46.7191 3.72713 46.6554 3.9288 46.6554 4.18919C46.6554 4.44958 46.7191 4.65381 46.8465 4.80187C46.9738 4.94483 47.1369 5.01631 47.3355 5.01631Z" fill="white"/>
<path d="M52.3492 2.02184C53.0829 2.02184 53.6433 2.18777 54.0305 2.51964C54.4177 2.8464 54.6112 3.35187 54.6112 4.03602V6.28762H53.0064V5.73621C52.8078 6.15487 52.4129 6.3642 51.8219 6.3642C51.4908 6.3642 51.208 6.30804 50.9737 6.19572C50.7444 6.07829 50.5687 5.92256 50.4464 5.72855C50.3292 5.52943 50.2706 5.30733 50.2706 5.06226C50.2706 4.6487 50.4286 4.3347 50.7444 4.12027C51.0603 3.90583 51.5392 3.79861 52.1811 3.79861H52.8765C52.8205 3.47185 52.5581 3.30847 52.0894 3.30847C51.9009 3.30847 51.7099 3.3391 51.5163 3.40037C51.3227 3.45653 51.1571 3.53567 51.0195 3.63778L50.4693 2.49667C50.7088 2.3486 50.9966 2.23373 51.3329 2.15204C51.6742 2.06524 52.013 2.02184 52.3492 2.02184ZM52.3416 5.32265C52.4639 5.32265 52.5734 5.28946 52.6702 5.22309C52.767 5.15672 52.8383 5.05716 52.8842 4.92441V4.63339H52.4562C52.1047 4.63339 51.9289 4.75082 51.9289 4.98568C51.9289 5.08268 51.9646 5.16437 52.0359 5.23075C52.1123 5.29202 52.2142 5.32265 52.3416 5.32265Z" fill="white"/>
<path d="M55.3577 0.605021H57.0847V6.28762H55.3577V0.605021Z" fill="white"/>
<path d="M60.1413 2.09843H61.8684V6.28762H60.1413V2.09843ZM61.0048 1.76145C60.6941 1.76145 60.4419 1.67976 60.2483 1.51638C60.0598 1.34789 59.9655 1.13601 59.9655 0.880726C59.9655 0.625443 60.0598 0.416111 60.2483 0.25273C60.4419 0.0842433 60.6941 0 61.0048 0C61.3207 0 61.5729 0.0791378 61.7614 0.237413C61.9499 0.395688 62.0442 0.599915 62.0442 0.850092C62.0442 1.11559 61.9499 1.33513 61.7614 1.50872C61.5729 1.67721 61.3207 1.76145 61.0048 1.76145Z" fill="white"/>
<path d="M65.5378 2.02184C66.0524 2.02184 66.465 2.17756 66.7758 2.48901C67.0917 2.80045 67.2496 3.27017 67.2496 3.89817V6.28762H65.5225V4.19685C65.5225 3.71692 65.3519 3.47695 65.0105 3.47695C64.8169 3.47695 64.659 3.54588 64.5367 3.68373C64.4196 3.81648 64.361 4.02837 64.361 4.31939V6.28762H62.6339V2.09843H64.2769V2.51198C64.4399 2.3486 64.6284 2.22607 64.8424 2.14438C65.0564 2.06269 65.2882 2.02184 65.5378 2.02184Z" fill="white"/>
<path d="M79.0484 0.926677L77.3366 6.28762H75.4032L74.5396 3.42334L73.6303 6.28762H71.6969L69.9851 0.926677H71.842L72.7744 3.97476L73.7602 0.926677H75.4185L76.3508 4.01305L77.3366 0.926677H79.0484Z" fill="white"/>
<path d="M81.2979 6.3642C80.8343 6.3642 80.4165 6.2723 80.0446 6.0885C79.6778 5.89959 79.39 5.64175 79.1811 5.31499C78.9722 4.98312 78.8678 4.60786 78.8678 4.18919C78.8678 3.77053 78.9722 3.39782 79.1811 3.07105C79.39 2.73919 79.6778 2.48135 80.0446 2.29755C80.4165 2.11374 80.8343 2.02184 81.2979 2.02184C81.7666 2.02184 82.1844 2.11374 82.5512 2.29755C82.9231 2.48135 83.2109 2.73919 83.4147 3.07105C83.6236 3.39782 83.728 3.77053 83.728 4.18919C83.728 4.60786 83.6236 4.98312 83.4147 5.31499C83.2109 5.64175 82.9231 5.89959 82.5512 6.0885C82.1844 6.2723 81.7666 6.3642 81.2979 6.3642ZM81.2979 5.01631C81.4966 5.01631 81.6596 4.94483 81.787 4.80187C81.9144 4.65381 81.978 4.44958 81.978 4.18919C81.978 3.9288 81.9144 3.72713 81.787 3.58417C81.6596 3.44121 81.4966 3.36974 81.2979 3.36974C81.0992 3.36974 80.9362 3.44121 80.8088 3.58417C80.6815 3.72713 80.6178 3.9288 80.6178 4.18919C80.6178 4.44958 80.6815 4.65381 80.8088 4.80187C80.9362 4.94483 81.0992 5.01631 81.2979 5.01631Z" fill="white"/>
<path d="M85.9116 2.55028C86.2173 2.19799 86.6682 2.02184 87.2642 2.02184V3.55354C87.1267 3.53312 86.9993 3.5229 86.8821 3.5229C86.2912 3.5229 85.9957 3.82414 85.9957 4.42661V6.28762H84.2686V2.09843H85.9116V2.55028Z" fill="white"/>
<path d="M87.7537 0.605021H89.4808V6.28762H87.7537V0.605021Z" fill="white"/>
<path d="M94.8697 0.605021V6.28762H93.2267V5.94299C92.977 6.2238 92.5949 6.3642 92.0804 6.3642C91.7136 6.3642 91.3748 6.27741 91.064 6.10382C90.7583 5.92512 90.5138 5.66983 90.3304 5.33797C90.152 5.0061 90.0629 4.62317 90.0629 4.18919C90.0629 3.75521 90.152 3.37484 90.3304 3.04808C90.5138 2.71621 90.7583 2.46348 91.064 2.28989C91.3748 2.11119 91.7136 2.02184 92.0804 2.02184C92.544 2.02184 92.898 2.14182 93.1426 2.38179V0.605021H94.8697ZM92.493 5.01631C92.6917 5.01631 92.8547 4.94483 92.9821 4.80187C93.1095 4.65381 93.1732 4.44958 93.1732 4.18919C93.1732 3.9288 93.1095 3.72713 92.9821 3.58417C92.8547 3.44121 92.6917 3.36974 92.493 3.36974C92.2943 3.36974 92.1313 3.44121 92.0039 3.58417C91.8766 3.72713 91.8129 3.9288 91.8129 4.18919C91.8129 4.44958 91.8766 4.65381 92.0039 4.80187C92.1313 4.94483 92.2943 5.01631 92.493 5.01631Z" fill="white"/>
<path d="M101.158 4.34236V6.28762H99.3546V4.31939L97.3371 0.926677H99.24L100.333 2.78003L101.433 0.926677H103.176L101.158 4.34236Z" fill="white"/>
<path d="M105.104 6.3642C104.641 6.3642 104.223 6.2723 103.851 6.0885C103.484 5.89959 103.196 5.64175 102.987 5.31499C102.779 4.98312 102.674 4.60786 102.674 4.18919C102.674 3.77053 102.779 3.39782 102.987 3.07105C103.196 2.73919 103.484 2.48135 103.851 2.29755C104.223 2.11374 104.641 2.02184 105.104 2.02184C105.573 2.02184 105.991 2.11374 106.358 2.29755C106.729 2.48135 107.017 2.73919 107.221 3.07105C107.43 3.39782 107.534 3.77053 107.534 4.18919C107.534 4.60786 107.43 4.98312 107.221 5.31499C107.017 5.64175 106.729 5.89959 106.358 6.0885C105.991 6.2723 105.573 6.3642 105.104 6.3642ZM105.104 5.01631C105.303 5.01631 105.466 4.94483 105.593 4.80187C105.721 4.65381 105.784 4.44958 105.784 4.18919C105.784 3.9288 105.721 3.72713 105.593 3.58417C105.466 3.44121 105.303 3.36974 105.104 3.36974C104.906 3.36974 104.743 3.44121 104.615 3.58417C104.488 3.72713 104.424 3.9288 104.424 4.18919C104.424 4.44958 104.488 4.65381 104.615 4.80187C104.743 4.94483 104.906 5.01631 105.104 5.01631Z" fill="white"/>
<path d="M112.645 2.09843V6.28762H111.002V5.88938C110.849 6.04765 110.671 6.16764 110.467 6.24933C110.263 6.32591 110.047 6.3642 109.817 6.3642C109.287 6.3642 108.862 6.20338 108.541 5.88172C108.22 5.55496 108.06 5.06481 108.06 4.41129V2.09843H109.787V4.11261C109.787 4.39853 109.833 4.60275 109.924 4.72529C110.016 4.84782 110.151 4.90909 110.329 4.90909C110.497 4.90909 110.638 4.84272 110.75 4.70997C110.862 4.57212 110.918 4.35768 110.918 4.06666V2.09843H112.645Z" fill="white"/>
<path d="M116.491 6.14211C116.231 6.29017 115.877 6.3642 115.428 6.3642C114.842 6.3642 114.392 6.2238 114.076 5.94299C113.76 5.65707 113.602 5.23075 113.602 4.66402V3.59183H113.029V2.32818H113.602V1.15643H115.329V2.32818H116.185V3.59183H115.329V4.6487C115.329 4.77634 115.362 4.8759 115.428 4.94738C115.495 5.01886 115.581 5.0546 115.688 5.0546C115.836 5.0546 115.966 5.01631 116.078 4.93972L116.491 6.14211Z" fill="white"/>
<path d="M119.83 2.02184C120.344 2.02184 120.757 2.17756 121.068 2.48901C121.384 2.80045 121.542 3.27017 121.542 3.89817V6.28762H119.815V4.19685C119.815 3.71692 119.644 3.47695 119.302 3.47695C119.109 3.47695 118.951 3.54588 118.829 3.68373C118.712 3.81648 118.653 4.02837 118.653 4.31939V6.28762H116.926V0.605021H118.653V2.4354C118.974 2.15969 119.366 2.02184 119.83 2.02184Z" fill="white"/>
<path d="M124.636 0.926677H126.44V6.28762H124.636V0.926677Z" fill="white"/>
<path d="M130.158 2.02184C130.673 2.02184 131.086 2.17756 131.396 2.48901C131.712 2.80045 131.87 3.27017 131.87 3.89817V6.28762H130.143V4.19685C130.143 3.71692 129.972 3.47695 129.631 3.47695C129.437 3.47695 129.28 3.54588 129.157 3.68373C129.04 3.81648 128.981 4.02837 128.981 4.31939V6.28762H127.254V2.09843H128.897V2.51198C129.06 2.3486 129.249 2.22607 129.463 2.14438C129.677 2.06269 129.909 2.02184 130.158 2.02184Z" fill="white"/>
<path d="M137.199 2.09843L135.518 6.28762H133.73L132.049 2.09843H133.822L134.662 4.34236L135.564 2.09843H137.199Z" fill="white"/>
<path d="M141.799 4.18919C141.799 4.21472 141.792 4.35002 141.776 4.59509H138.872C138.933 4.75337 139.035 4.8759 139.178 4.9627C139.321 5.04439 139.499 5.08524 139.713 5.08524C139.896 5.08524 140.049 5.06226 140.171 5.01631C140.299 4.97036 140.436 4.89122 140.584 4.7789L141.486 5.69026C141.078 6.13955 140.469 6.3642 139.659 6.3642C139.155 6.3642 138.712 6.2723 138.33 6.0885C137.948 5.89959 137.652 5.6392 137.443 5.30733C137.234 4.97546 137.13 4.60275 137.13 4.18919C137.13 3.77053 137.232 3.39782 137.436 3.07105C137.645 2.73919 137.927 2.48135 138.284 2.29755C138.646 2.11374 139.051 2.02184 139.499 2.02184C139.922 2.02184 140.306 2.10608 140.653 2.27457C141.004 2.44306 141.282 2.69068 141.486 3.01744C141.695 3.34421 141.799 3.73479 141.799 4.18919ZM139.514 3.20125C139.336 3.20125 139.188 3.24975 139.071 3.34676C138.954 3.44377 138.877 3.58162 138.842 3.76032H140.187C140.151 3.58673 140.075 3.45143 139.957 3.35442C139.84 3.2523 139.693 3.20125 139.514 3.20125Z" fill="white"/>
<path d="M145.248 2.02184C145.763 2.02184 146.175 2.17756 146.486 2.48901C146.802 2.80045 146.96 3.27017 146.96 3.89817V6.28762H145.233V4.19685C145.233 3.71692 145.062 3.47695 144.721 3.47695C144.527 3.47695 144.369 3.54588 144.247 3.68373C144.13 3.81648 144.071 4.02837 144.071 4.31939V6.28762H142.344V2.09843H143.987V2.51198C144.15 2.3486 144.339 2.22607 144.553 2.14438C144.767 2.06269 144.999 2.02184 145.248 2.02184Z" fill="white"/>
<path d="M150.79 6.14211C150.53 6.29017 150.176 6.3642 149.727 6.3642C149.142 6.3642 148.691 6.2238 148.375 5.94299C148.059 5.65707 147.901 5.23075 147.901 4.66402V3.59183H147.328V2.32818H147.901V1.15643H149.628V2.32818H150.484V3.59183H149.628V4.6487C149.628 4.77634 149.661 4.8759 149.727 4.94738C149.794 5.01886 149.88 5.0546 149.987 5.0546C150.135 5.0546 150.265 5.01631 150.377 4.93972L150.79 6.14211Z" fill="white"/>
<path d="M151.225 2.09843H152.952V6.28762H151.225V2.09843ZM152.088 1.76145C151.778 1.76145 151.526 1.67976 151.332 1.51638C151.143 1.34789 151.049 1.13601 151.049 0.880726C151.049 0.625443 151.143 0.416111 151.332 0.25273C151.526 0.0842433 151.778 0 152.088 0C152.404 0 152.657 0.0791378 152.845 0.237413C153.034 0.395688 153.128 0.599915 153.128 0.850092C153.128 1.11559 153.034 1.33513 152.845 1.50872C152.657 1.67721 152.404 1.76145 152.088 1.76145Z" fill="white"/>
<path d="M155.926 6.3642C155.462 6.3642 155.045 6.2723 154.673 6.0885C154.306 5.89959 154.018 5.64175 153.809 5.31499C153.6 4.98312 153.496 4.60786 153.496 4.18919C153.496 3.77053 153.6 3.39782 153.809 3.07105C154.018 2.73919 154.306 2.48135 154.673 2.29755C155.045 2.11374 155.462 2.02184 155.926 2.02184C156.395 2.02184 156.813 2.11374 157.179 2.29755C157.551 2.48135 157.839 2.73919 158.043 3.07105C158.252 3.39782 158.356 3.77053 158.356 4.18919C158.356 4.60786 158.252 4.98312 158.043 5.31499C157.839 5.64175 157.551 5.89959 157.179 6.0885C156.813 6.2723 156.395 6.3642 155.926 6.3642ZM155.926 5.01631C156.125 5.01631 156.288 4.94483 156.415 4.80187C156.542 4.65381 156.606 4.44958 156.606 4.18919C156.606 3.9288 156.542 3.72713 156.415 3.58417C156.288 3.44121 156.125 3.36974 155.926 3.36974C155.727 3.36974 155.564 3.44121 155.437 3.58417C155.31 3.72713 155.246 3.9288 155.246 4.18919C155.246 4.44958 155.31 4.65381 155.437 4.80187C155.564 4.94483 155.727 5.01631 155.926 5.01631Z" fill="white"/>
<path d="M161.801 2.02184C162.315 2.02184 162.728 2.17756 163.039 2.48901C163.355 2.80045 163.512 3.27017 163.512 3.89817V6.28762H161.785V4.19685C161.785 3.71692 161.615 3.47695 161.273 3.47695C161.08 3.47695 160.922 3.54588 160.8 3.68373C160.682 3.81648 160.624 4.02837 160.624 4.31939V6.28762H158.897V2.09843H160.54V2.51198C160.703 2.3486 160.891 2.22607 161.105 2.14438C161.319 2.06269 161.551 2.02184 161.801 2.02184Z" fill="white"/>
<path d="M168.426 2.02184C169.159 2.02184 169.72 2.18777 170.107 2.51964C170.494 2.8464 170.688 3.35187 170.688 4.03602V6.28762H169.083V5.73621C168.884 6.15487 168.49 6.3642 167.899 6.3642C167.567 6.3642 167.285 6.30804 167.05 6.19572C166.821 6.07829 166.645 5.92256 166.523 5.72855C166.406 5.52943 166.347 5.30733 166.347 5.06226C166.347 4.6487 166.505 4.3347 166.821 4.12027C167.137 3.90583 167.616 3.79861 168.258 3.79861H168.953C168.897 3.47185 168.635 3.30847 168.166 3.30847C167.978 3.30847 167.786 3.3391 167.593 3.40037C167.399 3.45653 167.234 3.53567 167.096 3.63778L166.546 2.49667C166.785 2.3486 167.073 2.23373 167.409 2.15204C167.751 2.06524 168.09 2.02184 168.426 2.02184ZM168.418 5.32265C168.54 5.32265 168.65 5.28946 168.747 5.22309C168.844 5.15672 168.915 5.05716 168.961 4.92441V4.63339H168.533C168.181 4.63339 168.006 4.75082 168.006 4.98568C168.006 5.08268 168.041 5.16437 168.113 5.23075C168.189 5.29202 168.291 5.32265 168.418 5.32265Z" fill="white"/>
<path d="M174.338 2.02184C174.853 2.02184 175.265 2.17756 175.576 2.48901C175.892 2.80045 176.05 3.27017 176.05 3.89817V6.28762H174.323V4.19685C174.323 3.71692 174.152 3.47695 173.811 3.47695C173.617 3.47695 173.459 3.54588 173.337 3.68373C173.22 3.81648 173.161 4.02837 173.161 4.31939V6.28762H171.434V2.09843H173.077V2.51198C173.24 2.3486 173.429 2.22607 173.643 2.14438C173.857 2.06269 174.089 2.02184 174.338 2.02184Z" fill="white"/>
<path d="M181.498 0.605021V6.28762H179.855V5.94299C179.605 6.2238 179.223 6.3642 178.709 6.3642C178.342 6.3642 178.003 6.27741 177.692 6.10382C177.387 5.92512 177.142 5.66983 176.959 5.33797C176.78 5.0061 176.691 4.62317 176.691 4.18919C176.691 3.75521 176.78 3.37484 176.959 3.04808C177.142 2.71621 177.387 2.46348 177.692 2.28989C178.003 2.11119 178.342 2.02184 178.709 2.02184C179.172 2.02184 179.526 2.14182 179.771 2.38179V0.605021H181.498ZM179.121 5.01631C179.32 5.01631 179.483 4.94483 179.61 4.80187C179.738 4.65381 179.801 4.44958 179.801 4.18919C179.801 3.9288 179.738 3.72713 179.61 3.58417C179.483 3.44121 179.32 3.36974 179.121 3.36974C178.923 3.36974 178.76 3.44121 178.632 3.58417C178.505 3.72713 178.441 3.9288 178.441 4.18919C178.441 4.44958 178.505 4.65381 178.632 4.80187C178.76 4.94483 178.923 5.01631 179.121 5.01631Z" fill="white"/>
<path d="M184.607 0.926677H186.411V6.28762H184.607V0.926677Z" fill="white"/>
<path d="M190.13 2.02184C190.644 2.02184 191.057 2.17756 191.367 2.48901C191.683 2.80045 191.841 3.27017 191.841 3.89817V6.28762H190.114V4.19685C190.114 3.71692 189.944 3.47695 189.602 3.47695C189.409 3.47695 189.251 3.54588 189.128 3.68373C189.011 3.81648 188.953 4.02837 188.953 4.31939V6.28762H187.226V2.09843H188.869V2.51198C189.032 2.3486 189.22 2.22607 189.434 2.14438C189.648 2.06269 189.88 2.02184 190.13 2.02184Z" fill="white"/>
<path d="M195.495 2.02184C196.01 2.02184 196.422 2.17756 196.733 2.48901C197.049 2.80045 197.207 3.27017 197.207 3.89817V6.28762H195.48V4.19685C195.48 3.71692 195.309 3.47695 194.968 3.47695C194.774 3.47695 194.616 3.54588 194.494 3.68373C194.377 3.81648 194.318 4.02837 194.318 4.31939V6.28762H192.591V2.09843H194.234V2.51198C194.397 2.3486 194.586 2.22607 194.8 2.14438C195.014 2.06269 195.246 2.02184 195.495 2.02184Z" fill="white"/>
<path d="M200.24 6.3642C199.777 6.3642 199.359 6.2723 198.987 6.0885C198.62 5.89959 198.332 5.64175 198.123 5.31499C197.915 4.98312 197.81 4.60786 197.81 4.18919C197.81 3.77053 197.915 3.39782 198.123 3.07105C198.332 2.73919 198.62 2.48135 198.987 2.29755C199.359 2.11374 199.777 2.02184 200.24 2.02184C200.709 2.02184 201.127 2.11374 201.494 2.29755C201.865 2.48135 202.153 2.73919 202.357 3.07105C202.566 3.39782 202.67 3.77053 202.67 4.18919C202.67 4.60786 202.566 4.98312 202.357 5.31499C202.153 5.64175 201.865 5.89959 201.494 6.0885C201.127 6.2723 200.709 6.3642 200.24 6.3642ZM200.24 5.01631C200.439 5.01631 200.602 4.94483 200.729 4.80187C200.857 4.65381 200.92 4.44958 200.92 4.18919C200.92 3.9288 200.857 3.72713 200.729 3.58417C200.602 3.44121 200.439 3.36974 200.24 3.36974C200.042 3.36974 199.879 3.44121 199.751 3.58417C199.624 3.72713 199.56 3.9288 199.56 4.18919C199.56 4.44958 199.624 4.65381 199.751 4.80187C199.879 4.94483 200.042 5.01631 200.24 5.01631Z" fill="white"/>
<path d="M207.753 2.09843L206.072 6.28762H204.283L202.602 2.09843H204.375L205.216 4.34236L206.118 2.09843H207.753Z" fill="white"/>
<path d="M209.74 2.02184C210.474 2.02184 211.034 2.18777 211.421 2.51964C211.808 2.8464 212.002 3.35187 212.002 4.03602V6.28762H210.397V5.73621C210.198 6.15487 209.804 6.3642 209.213 6.3642C208.882 6.3642 208.599 6.30804 208.364 6.19572C208.135 6.07829 207.959 5.92256 207.837 5.72855C207.72 5.52943 207.661 5.30733 207.661 5.06226C207.661 4.6487 207.819 4.3347 208.135 4.12027C208.451 3.90583 208.93 3.79861 209.572 3.79861H210.267C210.211 3.47185 209.949 3.30847 209.48 3.30847C209.292 3.30847 209.101 3.3391 208.907 3.40037C208.713 3.45653 208.548 3.53567 208.41 3.63778L207.86 2.49667C208.1 2.3486 208.387 2.23373 208.724 2.15204C209.065 2.06524 209.404 2.02184 209.74 2.02184ZM209.732 5.32265C209.855 5.32265 209.964 5.28946 210.061 5.22309C210.158 5.15672 210.229 5.05716 210.275 4.92441V4.63339H209.847C209.495 4.63339 209.32 4.75082 209.32 4.98568C209.32 5.08268 209.355 5.16437 209.427 5.23075C209.503 5.29202 209.605 5.32265 209.732 5.32265Z" fill="white"/>
<path d="M215.828 6.14211C215.568 6.29017 215.214 6.3642 214.766 6.3642C214.18 6.3642 213.729 6.2238 213.413 5.94299C213.097 5.65707 212.939 5.23075 212.939 4.66402V3.59183H212.366V2.32818H212.939V1.15643H214.667V2.32818H215.522V3.59183H214.667V4.6487C214.667 4.77634 214.7 4.8759 214.766 4.94738C214.832 5.01886 214.919 5.0546 215.026 5.0546C215.173 5.0546 215.303 5.01631 215.415 4.93972L215.828 6.14211Z" fill="white"/>
<path d="M216.263 2.09843H217.99V6.28762H216.263V2.09843ZM217.127 1.76145C216.816 1.76145 216.564 1.67976 216.37 1.51638C216.182 1.34789 216.088 1.13601 216.088 0.880726C216.088 0.625443 216.182 0.416111 216.37 0.25273C216.564 0.0842433 216.816 0 217.127 0C217.443 0 217.695 0.0791378 217.883 0.237413C218.072 0.395688 218.166 0.599915 218.166 0.850092C218.166 1.11559 218.072 1.33513 217.883 1.50872C217.695 1.67721 217.443 1.76145 217.127 1.76145Z" fill="white"/>
<path d="M220.964 6.3642C220.501 6.3642 220.083 6.2723 219.711 6.0885C219.344 5.89959 219.057 5.64175 218.848 5.31499C218.639 4.98312 218.534 4.60786 218.534 4.18919C218.534 3.77053 218.639 3.39782 218.848 3.07105C219.057 2.73919 219.344 2.48135 219.711 2.29755C220.083 2.11374 220.501 2.02184 220.964 2.02184C221.433 2.02184 221.851 2.11374 222.218 2.29755C222.59 2.48135 222.877 2.73919 223.081 3.07105C223.29 3.39782 223.395 3.77053 223.395 4.18919C223.395 4.60786 223.29 4.98312 223.081 5.31499C222.877 5.64175 222.59 5.89959 222.218 6.0885C221.851 6.2723 221.433 6.3642 220.964 6.3642ZM220.964 5.01631C221.163 5.01631 221.326 4.94483 221.454 4.80187C221.581 4.65381 221.645 4.44958 221.645 4.18919C221.645 3.9288 221.581 3.72713 221.454 3.58417C221.326 3.44121 221.163 3.36974 220.964 3.36974C220.766 3.36974 220.603 3.44121 220.475 3.58417C220.348 3.72713 220.284 3.9288 220.284 4.18919C220.284 4.44958 220.348 4.65381 220.475 4.80187C220.603 4.94483 220.766 5.01631 220.964 5.01631Z" fill="white"/>
<path d="M226.839 2.02184C227.354 2.02184 227.766 2.17756 228.077 2.48901C228.393 2.80045 228.551 3.27017 228.551 3.89817V6.28762H226.824V4.19685C226.824 3.71692 226.653 3.47695 226.312 3.47695C226.118 3.47695 225.96 3.54588 225.838 3.68373C225.721 3.81648 225.662 4.02837 225.662 4.31939V6.28762H223.935V2.09843H225.578V2.51198C225.741 2.3486 225.93 2.22607 226.144 2.14438C226.358 2.06269 226.589 2.02184 226.839 2.02184Z" fill="white"/>
<path d="M235.291 5.35328H233.258L232.899 6.28762H231.065L233.403 0.926677H235.176L237.514 6.28762H235.65L235.291 5.35328ZM234.794 4.05134L234.274 2.70345L233.755 4.05134H234.794Z" fill="white"/>
<path d="M244.647 2.09843L243.195 6.28762H241.514L240.88 4.35002L240.223 6.28762H238.541L237.09 2.09843H238.725L239.443 4.31173L240.192 2.09843H241.659L242.385 4.3347L243.134 2.09843H244.647Z" fill="white"/>
<path d="M246.703 2.02184C247.437 2.02184 247.997 2.18777 248.385 2.51964C248.772 2.8464 248.965 3.35187 248.965 4.03602V6.28762H247.36V5.73621C247.162 6.15487 246.767 6.3642 246.176 6.3642C245.845 6.3642 245.562 6.30804 245.328 6.19572C245.098 6.07829 244.923 5.92256 244.8 5.72855C244.683 5.52943 244.625 5.30733 244.625 5.06226C244.625 4.6487 244.783 4.3347 245.098 4.12027C245.414 3.90583 245.893 3.79861 246.535 3.79861H247.231C247.175 3.47185 246.912 3.30847 246.443 3.30847C246.255 3.30847 246.064 3.3391 245.87 3.40037C245.677 3.45653 245.511 3.53567 245.374 3.63778L244.823 2.49667C245.063 2.3486 245.351 2.23373 245.687 2.15204C246.028 2.06524 246.367 2.02184 246.703 2.02184ZM246.696 5.32265C246.818 5.32265 246.927 5.28946 247.024 5.22309C247.121 5.15672 247.192 5.05716 247.238 4.92441V4.63339H246.81C246.459 4.63339 246.283 4.75082 246.283 4.98568C246.283 5.08268 246.319 5.16437 246.39 5.23075C246.466 5.29202 246.568 5.32265 246.696 5.32265Z" fill="white"/>
<path d="M251.355 2.55028C251.66 2.19799 252.111 2.02184 252.707 2.02184V3.55354C252.57 3.53312 252.442 3.5229 252.325 3.5229C251.734 3.5229 251.439 3.82414 251.439 4.42661V6.28762H249.712V2.09843H251.355V2.55028Z" fill="white"/>
<path d="M257.783 0.605021V6.28762H256.14V5.94299C255.89 6.2238 255.508 6.3642 254.994 6.3642C254.627 6.3642 254.288 6.27741 253.977 6.10382C253.672 5.92512 253.427 5.66983 253.244 5.33797C253.065 5.0061 252.976 4.62317 252.976 4.18919C252.976 3.75521 253.065 3.37484 253.244 3.04808C253.427 2.71621 253.672 2.46348 253.977 2.28989C254.288 2.11119 254.627 2.02184 254.994 2.02184C255.457 2.02184 255.811 2.14182 256.056 2.38179V0.605021H257.783ZM255.406 5.01631C255.605 5.01631 255.768 4.94483 255.895 4.80187C256.023 4.65381 256.086 4.44958 256.086 4.18919C256.086 3.9288 256.023 3.72713 255.895 3.58417C255.768 3.44121 255.605 3.36974 255.406 3.36974C255.208 3.36974 255.045 3.44121 254.917 3.58417C254.79 3.72713 254.726 3.9288 254.726 4.18919C254.726 4.44958 254.79 4.65381 254.917 4.80187C255.045 4.94483 255.208 5.01631 255.406 5.01631Z" fill="white"/>
<path d="M264.958 4.88612V6.28762H260.671V5.17714L262.604 3.38505C262.772 3.22678 262.884 3.09148 262.94 2.97915C262.996 2.86683 263.024 2.75706 263.024 2.64984C263.024 2.51709 262.979 2.41498 262.887 2.3435C262.8 2.26691 262.673 2.22862 262.505 2.22862C262.342 2.22862 262.189 2.27202 262.046 2.35881C261.904 2.44561 261.794 2.56815 261.718 2.72642L260.357 2.04482C260.561 1.66189 260.859 1.36066 261.251 1.14111C261.644 0.916466 262.117 0.804141 262.673 0.804141C263.096 0.804141 263.47 0.873068 263.796 1.01092C264.122 1.14877 264.377 1.34534 264.56 1.60062C264.744 1.85591 264.835 2.14948 264.835 2.48135C264.835 2.77748 264.772 3.05574 264.644 3.31613C264.522 3.57141 264.28 3.86243 263.918 4.18919L263.154 4.88612H264.958Z" fill="white"/>
<path d="M267.75 6.41015C267.276 6.41015 266.856 6.30038 266.489 6.08084C266.127 5.85619 265.842 5.53453 265.633 5.11587C265.429 4.6921 265.328 4.18919 265.328 3.60715C265.328 3.0251 265.429 2.52475 265.633 2.10608C265.842 1.68231 266.127 1.36066 266.489 1.14111C266.856 0.916466 267.276 0.804141 267.75 0.804141C268.224 0.804141 268.642 0.916466 269.003 1.14111C269.37 1.36066 269.655 1.68231 269.859 2.10608C270.068 2.52475 270.173 3.0251 270.173 3.60715C270.173 4.18919 270.068 4.6921 269.859 5.11587C269.655 5.53453 269.37 5.85619 269.003 6.08084C268.642 6.30038 268.224 6.41015 267.75 6.41015ZM267.75 4.9627C268.158 4.9627 268.361 4.51085 268.361 3.60715C268.361 2.70345 268.158 2.2516 267.75 2.2516C267.343 2.2516 267.139 2.70345 267.139 3.60715C267.139 4.51085 267.343 4.9627 267.75 4.9627Z" fill="white"/>
<path d="M274.824 4.88612V6.28762H270.536V5.17714L272.47 3.38505C272.638 3.22678 272.75 3.09148 272.806 2.97915C272.862 2.86683 272.89 2.75706 272.89 2.64984C272.89 2.51709 272.844 2.41498 272.753 2.3435C272.666 2.26691 272.539 2.22862 272.371 2.22862C272.208 2.22862 272.055 2.27202 271.912 2.35881C271.769 2.44561 271.66 2.56815 271.583 2.72642L270.223 2.04482C270.427 1.66189 270.725 1.36066 271.117 1.14111C271.51 0.916466 271.983 0.804141 272.539 0.804141C272.961 0.804141 273.336 0.873068 273.662 1.01092C273.988 1.14877 274.243 1.34534 274.426 1.60062C274.61 1.85591 274.701 2.14948 274.701 2.48135C274.701 2.77748 274.638 3.05574 274.51 3.31613C274.388 3.57141 274.146 3.86243 273.784 4.18919L273.02 4.88612H274.824Z" fill="white"/>
<path d="M279.473 4.88612V6.28762H275.186V5.17714L277.119 3.38505C277.287 3.22678 277.399 3.09148 277.455 2.97915C277.512 2.86683 277.54 2.75706 277.54 2.64984C277.54 2.51709 277.494 2.41498 277.402 2.3435C277.315 2.26691 277.188 2.22862 277.02 2.22862C276.857 2.22862 276.704 2.27202 276.561 2.35881C276.419 2.44561 276.309 2.56815 276.233 2.72642L274.872 2.04482C275.076 1.66189 275.374 1.36066 275.767 1.14111C276.159 0.916466 276.633 0.804141 277.188 0.804141C277.611 0.804141 277.985 0.873068 278.311 1.01092C278.637 1.14877 278.892 1.34534 279.076 1.60062C279.259 1.85591 279.351 2.14948 279.351 2.48135C279.351 2.77748 279.287 3.05574 279.16 3.31613C279.037 3.57141 278.795 3.86243 278.434 4.18919L277.669 4.88612H279.473Z" fill="white"/>
<path d="M282.232 5.26649H347.443V230.937H3.55677V5.26649H8.65138V2.20309H0.5V234H350.5V2.20309H282.232V5.26649Z" fill="white"/>
</svg>
