<svg width="47" height="33" viewBox="0 0 47 33" fill="none" xmlns="http://www.w3.org/2000/svg">
<path fill-rule="evenodd" clip-rule="evenodd" d="M41.2638 0.985875C43.222 1.52625 44.7597 3.12263 45.2843 5.15213C46.2373 8.83163 46.2333 16.5 46.2333 16.5C46.2333 16.5 46.2333 24.1725 45.2843 27.8479C44.7597 29.8732 43.222 31.4696 41.2638 32.0141C37.7198 33 23.5 33 23.5 33C23.5 33 9.28415 33 5.7362 32.0141C3.77802 31.4737 2.2363 29.8774 1.71572 27.8479C0.766663 24.1684 0.766663 16.5 0.766663 16.5C0.766663 16.5 0.766663 8.8275 1.71572 5.15213C2.2403 3.12675 3.78202 1.52625 5.7362 0.985875C9.28415 0 23.5 0 23.5 0C23.5 0 37.7198 0 41.2638 0.985875ZM30.736 16.5L18.8508 23.463V9.53698L30.736 16.5Z" fill="white"/>
</svg>
