<svg width="64" height="46" viewBox="0 0 64 46" fill="none" xmlns="http://www.w3.org/2000/svg">
<path fill-rule="evenodd" clip-rule="evenodd" d="M56.459 1.51039C59.1553 2.24727 61.2725 4.42414 61.9949 7.19164C63.3071 12.2091 63.3016 22.666 63.3016 22.666C63.3016 22.666 63.3016 33.1285 61.9949 38.1404C61.2725 40.9023 59.1553 43.0791 56.459 43.8216C51.5794 45.166 32 45.166 32 45.166C32 45.166 12.4262 45.166 7.541 43.8216C4.84477 43.0848 2.72197 40.9079 2.00519 38.1404C0.698425 33.1229 0.698425 22.666 0.698425 22.666C0.698425 22.666 0.698425 12.2035 2.00519 7.19164C2.72749 4.42977 4.85028 2.24727 7.541 1.51039C12.4262 0.166016 32 0.166016 32 0.166016C32 0.166016 51.5794 0.166016 56.459 1.51039ZM41.9633 22.666L25.5985 32.161V13.171L41.9633 22.666Z" fill="white"/>
</svg>
