<svg width="45" height="33" viewBox="0 0 45 33" fill="none" xmlns="http://www.w3.org/2000/svg">
<path fill-rule="evenodd" clip-rule="evenodd" d="M40.0815 0.985875C42.0196 1.52625 43.5415 3.12263 44.0607 5.15213C45.004 8.83163 45 16.5 45 16.5C45 16.5 45 24.1725 44.0607 27.8479C43.5415 29.8732 42.0196 31.4696 40.0815 32.0141C36.5739 33 22.5 33 22.5 33C22.5 33 8.43007 33 4.91853 32.0141C2.98045 31.4737 1.45455 29.8774 0.939317 27.8479C0 24.1684 0 16.5 0 16.5C0 16.5 0 8.8275 0.939317 5.15213C1.45852 3.12675 2.98441 1.52625 4.91853 0.985875C8.43007 0 22.5 0 22.5 0C22.5 0 36.5739 0 40.0815 0.985875ZM29.6618 16.5L17.8985 23.463V9.53698L29.6618 16.5Z" fill="white"/>
</svg>
